<svg width="17" height="16" viewBox="0 0 17 16" fill="none"
    xmlns="http://www.w3.org/2000/svg">
    <path d="M9.065 2.5H14C15.2703 2.5 16.3192 3.44737 16.4789 4.67409L16.4947 4.83562L16.5 5V12.5C16.5 13.8255 15.4685 14.91 14.1644 14.9947L14 15H3C1.67452 15 0.589961 13.9685 0.505318 12.6644L0.5 12.5V5.5H5.57069L5.72385 5.49217C6.02777 5.46098 6.31509 5.33763 6.54702 5.13877L6.65819 5.03312L9.065 2.5ZM5.66667 1C5.93713 1 6.20151 1.0731 6.43238 1.21016L6.56667 1.3L7.885 2.289L5.93319 4.34437L5.8724 4.39872C5.8077 4.44767 5.73201 4.48017 5.65196 4.49335L5.57069 4.5H0.5V3.5C0.5 2.17452 1.53154 1.08996 2.83562 1.00532L3 1H5.66667Z" fill="#FEE082"/>
    <path d="M5.66667 1C5.93713 1 6.20151 1.0731 6.43238 1.21016L6.56667 1.3L7.885 2.289L5.93319 4.34437L5.8724 4.39872C5.8077 4.44767 5.73201 4.48017 5.65196 4.49335L5.57069 4.5H0.5V3.5C0.5 2.17452 1.53154 1.08996 2.83562 1.00532L3 1H5.66667Z" fill="#FBD140"/>
    <path d="M5.66667 1C5.93713 1 6.20151 1.0731 6.43238 1.21016L6.56667 1.3L8.167 2.5H14C15.2703 2.5 16.3192 3.44737 16.4789 4.67409L16.4947 4.83562L16.5 5V12.5C16.5 13.8255 15.4685 14.91 14.1644 14.9947L14 15H3C1.67452 15 0.589961 13.9685 0.505318 12.6644L0.5 12.5V3.5C0.5 2.17452 1.53154 1.08996 2.83562 1.00532L3 1H5.66667ZM6.65763 5.03449C6.40991 5.2946 6.07838 5.45592 5.72435 5.49219L5.57143 5.5L1.5 5.499V12.5C1.5 13.2797 2.09489 13.9204 2.85554 13.9931L3 14H14C14.7797 14 15.4204 13.4051 15.4931 12.6445L15.5 12.5V5C15.5 4.2203 14.9051 3.57955 14.1445 3.50687L14 3.5H8.117L6.65763 5.03449ZM5.66667 2H3C2.2203 2 1.57955 2.59489 1.50687 3.35554L1.5 3.5V4.499L5.57143 4.5C5.6809 4.5 5.78655 4.46411 5.87274 4.39902L5.9335 4.34483L7.194 3.021L5.96667 2.1C5.90176 2.05132 5.82632 2.01941 5.74701 2.0065L5.66667 2Z" fill="#B28501"/>
</svg>
