<svg xmlns="http://www.w3.org/2000/svg">
    <defs>
        <symbol width="20" height="20" fill="none" id="layer-diagonal-20-regular">
            <path d="M10.5 3.5c0-.4-.4-.6-.7-.5L4 5.4c-.5.2-.9.7-.9 1.4v5.7c0 .4.4.6.7.5l.3-.2V14c-1 .4-2-.4-2-1.4V6.8c0-1 .6-2 1.6-2.4l5.8-2.3c1-.4 2 .3 2.1 1.3l-1 .4v-.3Zm3 2c0-.4-.4-.6-.7-.5L6.6 7.5a1 1 0 0 0-.6 1v6c0 .4.4.6.7.5l1.3-.6v1.1L7 16c-1 .4-2-.3-2-1.4v-6a2 2 0 0 1 1.3-2l6.1-2.4c1-.4 2.1.3 2.1 1.4v.1l-1 .4v-.5ZM16.3 7c.3 0 .7.1.7.5v6.6c0 .2-.1.4-.3.5l-6 2.4a.5.5 0 0 1-.7-.5V9.9c0-.2.1-.4.3-.5l6-2.4Zm1.7.5c0-1-1-1.8-2-1.4l-6 2.4c-.6.2-1 .8-1 1.4v6.6c0 1 1 1.8 2 1.4l6-2.4c.6-.2 1-.8 1-1.4V7.5Z" fill="currentcolor"/>
        </symbol>
        <symbol width="20" height="20" fill="none" id="tab-position-horizontal-20-regular">
            <path fill-rule="evenodd" clip-rule="evenodd" d="M5.5 3A2.5 2.5 0 0 0 3 5.5v9C3 15.9 4.1 17 5.5 17h9c1.4 0 2.5-1.1 2.5-2.5v-9C17 4.1 15.9 3 14.5 3h-9ZM4 14.5V7h2v9h-.5c-.8 0-1.5-.7-1.5-1.5ZM7 16V7h9v7.5c0 .8-.7 1.5-1.5 1.5H7Z" fill="currentcolor"/>
        </symbol>
        <symbol width="16" height="16" fill="none" id="tab-desktop-new-page-16-regular">
            <path d="M5 10a1 1 0 1 0 0-2 1 1 0 0 0 0 2Zm4-1a1 1 0 1 1-2 0 1 1 0 0 1 2 0Zm2 1a1 1 0 1 0 0-2 1 1 0 0 0 0 2ZM1 3.5C1 2.1 2.1 1 3.5 1h9C13.9 1 15 2.1 15 3.5v9c0 1.4-1.1 2.5-2.5 2.5h-9A2.5 2.5 0 0 1 1 12.5v-9ZM3.5 2C2.7 2 2 2.7 2 3.5v9c0 .8.7 1.5 1.5 1.5h9c.8 0 1.5-.7 1.5-1.5V5H7.5C6.7 5 6 4.3 6 3.5V2H3.5ZM14 3.5c0-.8-.7-1.5-1.5-1.5H7v1.5c0 .3.2.5.5.5H14v-.5Z" fill="currentcolor"/>
        </symbol>
        <symbol width="16" height="16" fill="none" id="dismiss-16-regular">
            <path d="m4.089 4.216.057-.07a.5.5 0 0 1 .638-.057l.07.057L8 7.293l3.146-3.147a.5.5 0 0 1 .708.708L8.707 8l3.147 3.146a.5.5 0 0 1 .057.638l-.057.07a.5.5 0 0 1-.638.057l-.07-.057L8 8.707l-3.146 3.147a.5.5 0 0 1-.708-.708L7.293 8 4.146 4.854a.5.5 0 0 1-.057-.638l.057-.07-.057.07Z" fill="currentcolor"/>
        </symbol>
        <symbol width="20" height="20" id="add-20-regular">
            <path d="M10 2.5a.5.5 0 0 0-1 0V9H2.5a.5.5 0 0 0 0 1H9v6.5a.5.5 0 0 0 1 0V10h6.5a.5.5 0 0 0 0-1H10V2.5Z" fill="currentcolor"/>
        </symbol>
        <symbol width="20" height="20" viewBox="0 0 20 20" fill="none" id="chrome-minimize-20-regular">
            <path d="M5.49805 10C5.42969 10 5.36458 9.98698 5.30273 9.96094C5.24414 9.9349 5.19206 9.89909 5.14648 9.85352C5.10091 9.80794 5.0651 9.75586 5.03906 9.69727C5.01302 9.63542 5 9.57031 5 9.50195C5 9.43359 5.01302 9.37012 5.03906 9.31152C5.0651 9.24967 5.10091 9.19596 5.14648 9.15039C5.19206 9.10156 5.24414 9.06413 5.30273 9.03809C5.36458 9.01204 5.42969 8.99902 5.49805 8.99902H14.502C14.5703 8.99902 14.6338 9.01204 14.6924 9.03809C14.7542 9.06413 14.8079 9.10156 14.8535 9.15039C14.8991 9.19596 14.9349 9.24967 14.9609 9.31152C14.987 9.37012 15 9.43359 15 9.50195C15 9.57031 14.987 9.63542 14.9609 9.69727C14.9349 9.75586 14.8991 9.80794 14.8535 9.85352C14.8079 9.89909 14.7542 9.9349 14.6924 9.96094C14.6338 9.98698 14.5703 10 14.502 10H5.49805Z" fill="currentcolor" />
        </symbol>
        <symbol width="20" height="20" viewBox="0 0 20 20" fill="none" id="chrome-maximize-20-regular">
            <path d="M6.47461 15C6.2793 15 6.09212 14.9609 5.91309 14.8828C5.73405 14.8014 5.57617 14.694 5.43945 14.5605C5.30599 14.4238 5.19857 14.266 5.11719 14.0869C5.03906 13.9079 5 13.7207 5 13.5254V6.47461C5 6.2793 5.03906 6.09212 5.11719 5.91309C5.19857 5.73405 5.30599 5.5778 5.43945 5.44434C5.57617 5.30762 5.73405 5.2002 5.91309 5.12207C6.09212 5.04069 6.2793 5 6.47461 5H13.5254C13.7207 5 13.9079 5.04069 14.0869 5.12207C14.266 5.2002 14.4222 5.30762 14.5557 5.44434C14.6924 5.5778 14.7998 5.73405 14.8779 5.91309C14.9593 6.09212 15 6.2793 15 6.47461V13.5254C15 13.7207 14.9593 13.9079 14.8779 14.0869C14.7998 14.266 14.6924 14.4238 14.5557 14.5605C14.4222 14.694 14.266 14.8014 14.0869 14.8828C13.9079 14.9609 13.7207 15 13.5254 15H6.47461ZM13.501 13.999C13.5693 13.999 13.6328 13.986 13.6914 13.96C13.7533 13.9339 13.807 13.8981 13.8525 13.8525C13.8981 13.807 13.9339 13.7549 13.96 13.6963C13.986 13.6344 13.999 13.5693 13.999 13.501V6.49902C13.999 6.43066 13.986 6.36719 13.96 6.30859C13.9339 6.24674 13.8981 6.19303 13.8525 6.14746C13.807 6.10189 13.7533 6.06608 13.6914 6.04004C13.6328 6.014 13.5693 6.00098 13.501 6.00098H6.49902C6.43066 6.00098 6.36556 6.014 6.30371 6.04004C6.24512 6.06608 6.19303 6.10189 6.14746 6.14746C6.10189 6.19303 6.06608 6.24674 6.04004 6.30859C6.014 6.36719 6.00098 6.43066 6.00098 6.49902V13.501C6.00098 13.5693 6.014 13.6344 6.04004 13.6963C6.06608 13.7549 6.10189 13.807 6.14746 13.8525C6.19303 13.8981 6.24512 13.9339 6.30371 13.96C6.36556 13.986 6.43066 13.999 6.49902 13.999H13.501Z" fill="currentcolor"/>
        </symbol>
        <symbol width="20" height="20" viewBox="0 0 20 20" fill="none" id="chrome-restore-20-regular">
            <path d="M13.999 7.96387C13.999 7.69368 13.9453 7.43978 13.8379 7.20215C13.7305 6.96126 13.584 6.75293 13.3984 6.57715C13.2161 6.39811 13.0029 6.25814 12.7588 6.15723C12.5179 6.05306 12.264 6.00098 11.9971 6.00098H7.08496C7.13704 5.85124 7.21029 5.71452 7.30469 5.59082C7.39909 5.46712 7.50814 5.36133 7.63184 5.27344C7.75553 5.18555 7.89062 5.11882 8.03711 5.07324C8.18685 5.02441 8.34147 5 8.50098 5H11.9971C12.4105 5 12.7995 5.07975 13.1641 5.23926C13.5286 5.39551 13.846 5.60872 14.1162 5.87891C14.3896 6.14909 14.6045 6.46647 14.7607 6.83105C14.9202 7.19564 15 7.58464 15 7.99805V11.499C15 11.6585 14.9756 11.8132 14.9268 11.9629C14.8812 12.1094 14.8145 12.2445 14.7266 12.3682C14.6387 12.4919 14.5329 12.6009 14.4092 12.6953C14.2855 12.7897 14.1488 12.863 13.999 12.915V7.96387ZM6.47461 15C6.2793 15 6.09212 14.9609 5.91309 14.8828C5.73405 14.8014 5.57617 14.694 5.43945 14.5605C5.30599 14.4238 5.19857 14.266 5.11719 14.0869C5.03906 13.9079 5 13.7207 5 13.5254V8.47656C5 8.27799 5.03906 8.09082 5.11719 7.91504C5.19857 7.736 5.30599 7.57975 5.43945 7.44629C5.57617 7.30957 5.73242 7.20215 5.9082 7.12402C6.08724 7.04264 6.27604 7.00195 6.47461 7.00195H11.5234C11.722 7.00195 11.9108 7.04264 12.0898 7.12402C12.2689 7.20215 12.4251 7.30794 12.5586 7.44141C12.6921 7.57487 12.7979 7.73112 12.876 7.91016C12.9574 8.08919 12.998 8.27799 12.998 8.47656V13.5254C12.998 13.724 12.9574 13.9128 12.876 14.0918C12.7979 14.2676 12.6904 14.4238 12.5537 14.5605C12.4202 14.694 12.264 14.8014 12.085 14.8828C11.9092 14.9609 11.722 15 11.5234 15H6.47461ZM11.499 13.999C11.5674 13.999 11.6309 13.986 11.6895 13.96C11.7513 13.9339 11.805 13.8981 11.8506 13.8525C11.8994 13.807 11.9368 13.7549 11.9629 13.6963C11.9889 13.6344 12.002 13.5693 12.002 13.501V8.50098C12.002 8.43262 11.9889 8.36751 11.9629 8.30566C11.9368 8.24382 11.901 8.1901 11.8555 8.14453C11.8099 8.09896 11.7562 8.06315 11.6943 8.03711C11.6325 8.01107 11.5674 7.99805 11.499 7.99805H6.49902C6.43066 7.99805 6.36556 8.01107 6.30371 8.03711C6.24512 8.06315 6.19303 8.10059 6.14746 8.14941C6.10189 8.19499 6.06608 8.2487 6.04004 8.31055C6.014 8.36914 6.00098 8.43262 6.00098 8.50098V13.501C6.00098 13.5693 6.014 13.6344 6.04004 13.6963C6.06608 13.7549 6.10189 13.807 6.14746 13.8525C6.19303 13.8981 6.24512 13.9339 6.30371 13.96C6.36556 13.986 6.43066 13.999 6.49902 13.999H11.499Z" fill="currentcolor" />
        </symbol>
        <symbol width="20" height="20" viewBox="0 0 20 20" fill="none" id="chrome-close-20-regular">
            <path d="M10 10.708L5.85449 14.8535C5.75684 14.9512 5.63965 15 5.50293 15C5.3597 15 5.23926 14.9528 5.1416 14.8584C5.0472 14.7607 5 14.6403 5 14.4971C5 14.3604 5.04883 14.2432 5.14648 14.1455L9.29199 10L5.14648 5.85449C5.04883 5.75684 5 5.63802 5 5.49805C5 5.42969 5.01302 5.36458 5.03906 5.30273C5.0651 5.24089 5.10091 5.1888 5.14648 5.14648C5.19206 5.10091 5.24577 5.0651 5.30762 5.03906C5.36947 5.01302 5.43457 5 5.50293 5C5.63965 5 5.75684 5.04883 5.85449 5.14648L10 9.29199L14.1455 5.14648C14.2432 5.04883 14.362 5 14.502 5C14.5703 5 14.6338 5.01302 14.6924 5.03906C14.7542 5.0651 14.8079 5.10091 14.8535 5.14648C14.8991 5.19206 14.9349 5.24577 14.9609 5.30762C14.987 5.36621 15 5.42969 15 5.49805C15 5.63802 14.9512 5.75684 14.8535 5.85449L10.708 10L14.8535 14.1455C14.9512 14.2432 15 14.3604 15 14.4971C15 14.5654 14.987 14.6305 14.9609 14.6924C14.9349 14.7542 14.8991 14.8079 14.8535 14.8535C14.8112 14.8991 14.7591 14.9349 14.6973 14.9609C14.6354 14.987 14.5703 15 14.502 15C14.362 15 14.2432 14.9512 14.1455 14.8535L10 10.708Z" fill="currentcolor"/>
        </symbol>
        <symbol width="20" height="20" fill="none" id="back-20-regular">
            <path d="M9.15898 16.8666C9.36292 17.0528 9.67918 17.0384 9.86536 16.8345C10.0515 16.6305 10.0371 16.3143 9.8332 16.1281L3.66535 10.4974H17.4961C17.7722 10.4974 17.9961 10.2735 17.9961 9.99736C17.9961 9.72122 17.7722 9.49736 17.4961 9.49736H3.66824L9.8332 3.86927C10.0371 3.68309 10.0515 3.36684 9.86536 3.16289C9.67918 2.95895 9.36292 2.94456 9.15898 3.13074L2.24263 9.44478C2.10268 9.57254 2.02285 9.74008 2.00314 9.91323C1.99851 9.94058 1.99609 9.96869 1.99609 9.99736C1.99609 10.0242 1.99821 10.0506 2.00229 10.0763C2.02047 10.2522 2.10058 10.4229 2.24263 10.5526L9.15898 16.8666Z" fill="currentcolor"/>
        </symbol>
        <symbol width="20" height="20" fill="none" id="arrow-clockwise-20-regular">
            <path d="M4 10C4 6.68629 6.68629 4 10 4C11.7766 4 13.3732 4.77191 14.4723 6H12.5C12.2239 6 12 6.22386 12 6.5C12 6.77614 12.2239 7 12.5 7H15.5C15.7761 7 16 6.77614 16 6.5V3.5C16 3.22386 15.7761 3 15.5 3C15.2239 3 15 3.22386 15 3.5V5.10109C13.7299 3.80499 11.9591 3 10 3C6.13401 3 3 6.13401 3 10C3 13.866 6.13401 17 10 17C13.866 17 17 13.866 17 10C17 9.8191 16.9931 9.6397 16.9796 9.46207C16.9587 9.18673 16.7185 8.98049 16.4431 9.00144C16.1678 9.02239 15.9615 9.26258 15.9825 9.53793C15.9941 9.69034 16 9.84443 16 10C16 13.3137 13.3137 16 10 16C6.68629 16 4 13.3137 4 10Z" fill="currentcolor" />
        </symbol>
        <symbol width="20" height="20" fill="none" id="star-list-horizontal-20-regular">
            <path d="M9.10431 2.89886C9.47113 2.15561 10.531 2.15562 10.8978 2.89889L12.9217 6.99995H17.5008C17.777 6.99995 18.0008 7.22381 18.0008 7.49995C18.0008 7.7761 17.777 7.99995 17.5008 7.99995H12.9217C12.541 7.99995 12.1934 7.78384 12.0249 7.4425L10.001 3.34143L8.07062 7.2529C7.92496 7.54804 7.6434 7.75261 7.31769 7.79994L3.00109 8.42718L6.12461 11.4719C6.3603 11.7016 6.46784 12.0326 6.41221 12.357L5.67484 16.6561L9.76839 14.504C10.0128 14.3755 10.3151 14.4695 10.4436 14.7139C10.5721 14.9583 10.4782 15.2607 10.2337 15.3892L6.14018 17.5413C5.40655 17.927 4.54913 17.304 4.68924 16.4871L5.4266 12.1879L2.30308 9.14326C1.70956 8.56472 2.03708 7.55675 2.8573 7.43757L7.17389 6.81033L9.10431 2.89886ZM12 10.5C12 10.2239 12.2239 10 12.5 10H17.5C17.7761 10 18 10.2239 18 10.5C18 10.7761 17.7761 11 17.5 11H12.5C12.2239 11 12 10.7761 12 10.5ZM12.5 13C12.2239 13 12 13.2239 12 13.5C12 13.7761 12.2239 14 12.5 14H17.5C17.7761 14 18 13.7761 18 13.5C18 13.2239 17.7761 13 17.5 13H12.5Z" fill="currentcolor"/>
        </symbol>
        <symbol width="20" height="20" fill="none" id="more-horizontal-20-regular">
            <path d="M6.25 10C6.25 10.6904 5.69036 11.25 5 11.25C4.30964 11.25 3.75 10.6904 3.75 10C3.75 9.30964 4.30964 8.75 5 8.75C5.69036 8.75 6.25 9.30964 6.25 10ZM11.25 10C11.25 10.6904 10.6904 11.25 10 11.25C9.30964 11.25 8.75 10.6904 8.75 10C8.75 9.30964 9.30964 8.75 10 8.75C10.6904 8.75 11.25 9.30964 11.25 10ZM15 11.25C15.6904 11.25 16.25 10.6904 16.25 10C16.25 9.30964 15.6904 8.75 15 8.75C14.3096 8.75 13.75 9.30964 13.75 10C13.75 10.6904 14.3096 11.25 15 11.25Z" fill="currentcolor"/>
        </symbol>
        <symbol width="20" height="20" viewBox="0 0 20 20" fill="none" id="lock-closed-20-regular">
            <path d="M10 13C10.5523 13 11 12.5523 11 12C11 11.4477 10.5523 11 10 11C9.44771 11 9 11.4477 9 12C9 12.5523 9.44771 13 10 13ZM6 6H7V5C7 3.34315 8.34315 2 10 2C11.6569 2 13 3.34315 13 5V6H14C15.6569 6 17 7.34315 17 9V15C17 16.6569 15.6569 18 14 18H6C4.34315 18 3 16.6569 3 15V9C3 7.34315 4.34315 6 6 6ZM10 3C8.89543 3 8 3.89543 8 5V6H12V5C12 3.89543 11.1046 3 10 3ZM16 9C16 7.89543 15.1046 7 14 7H6C4.89543 7 4 7.89543 4 9V15C4 16.1046 4.89543 17 6 17H14C15.1046 17 16 16.1046 16 15V9Z" fill="currentcolor" />
        </symbol>
        <symbol width="21" height="20" viewBox="0 0 21 20" fill="none" id="search-20-regular">
            <path d="M8.5 3C11.5376 3 14 5.46243 14 8.5C14 9.83879 13.5217 11.0659 12.7266 12.0196L16.8536 16.1464C17.0488 16.3417 17.0488 16.6583 16.8536 16.8536C16.68 17.0271 16.4106 17.0464 16.2157 16.9114L16.1464 16.8536L12.0196 12.7266C11.0659 13.5217 9.83879 14 8.5 14C5.46243 14 3 11.5376 3 8.5C3 5.46243 5.46243 3 8.5 3ZM8.5 4C6.01472 4 4 6.01472 4 8.5C4 10.9853 6.01472 13 8.5 13C10.9853 13 13 10.9853 13 8.5C13 6.01472 10.9853 4 8.5 4Z" fill="currentcolor" />
        </symbol>
        <symbol width="20" height="20" viewBox="0 0 20 20" fill="none" id="star-add-20-regular">
            <path d="M9.10433 2.89899C9.47114 2.15574 10.531 2.15574 10.8978 2.89899L12.8282 6.81048L17.1448 7.43772C17.9651 7.55691 18.2926 8.56488 17.699 9.14342L17.1502 9.67839C16.8358 9.50531 16.5026 9.36209 16.1544 9.25257L17.001 8.42733L12.6844 7.80009C12.3587 7.75276 12.0772 7.54819 11.9315 7.25305L10.0011 3.34155L8.07062 7.25305C7.92496 7.54819 7.6434 7.75276 7.31769 7.80009L3.00109 8.42733L6.12461 11.472C6.3603 11.7017 6.46784 12.0327 6.41221 12.3571L5.67484 16.6563L9.01625 14.8996C9.04183 15.2559 9.10136 15.6029 9.19162 15.9372L6.14018 17.5414C5.40655 17.9271 4.54913 17.3041 4.68924 16.4872L5.4266 12.1881L2.30308 9.14341C1.70956 8.56488 2.03708 7.55691 2.8573 7.43772L7.17389 6.81048L9.10433 2.89899ZM19.002 14.5C19.002 16.9853 16.9872 19 14.502 19C12.0167 19 10.002 16.9853 10.002 14.5C10.002 12.0147 12.0167 10 14.502 10C16.9872 10 19.002 12.0147 19.002 14.5ZM15.002 12.5C15.002 12.2239 14.7781 12 14.502 12C14.2258 12 14.002 12.2239 14.002 12.5V14H12.502C12.2258 14 12.002 14.2239 12.002 14.5C12.002 14.7761 12.2258 15 12.502 15H14.002V16.5C14.002 16.7761 14.2258 17 14.502 17C14.7781 17 15.002 16.7761 15.002 16.5V15H16.502C16.7781 15 17.002 14.7761 17.002 14.5C17.002 14.2239 16.7781 14 16.502 14H15.002V12.5Z" fill="currentcolor" />
        </symbol>
        <symbol width="20" height="20" viewBox="0 0 20 20" fill="none" id="panel-left-text-20-regular">
            <path d="M6.58988 6.99194C6.82312 6.94961 7 6.74546 7 6.5C7 6.22386 6.77614 6 6.5 6H4.5L4.41012 6.00806C4.17688 6.05039 4 6.25454 4 6.5C4 6.77614 4.22386 7 4.5 7H6.5L6.58988 6.99194ZM6.58988 9.99194C6.82312 9.94961 7 9.74546 7 9.5C7 9.22386 6.77614 9 6.5 9H4.5L4.41012 9.00806C4.17688 9.05039 4 9.25454 4 9.5C4 9.77614 4.22386 10 4.5 10H6.5L6.58988 9.99194ZM6.58988 12.9919C6.82312 12.9496 7 12.7455 7 12.5C7 12.2239 6.77614 12 6.5 12H4.5L4.41012 12.0081C4.17688 12.0504 4 12.2545 4 12.5C4 12.7761 4.22386 13 4.5 13H6.5L6.58988 12.9919ZM5 3C3.34315 3 2 4.34315 2 6V13C2 14.6569 3.34315 16 5 16H15C16.6569 16 18 14.6569 18 13V6C18 4.34315 16.6569 3 15 3H5ZM15 15H9V4H15C16.1046 4 17 4.89543 17 6V13C17 14.1046 16.1046 15 15 15ZM5 4H8V15H5C3.89543 15 3 14.1046 3 13V6C3 4.89543 3.89543 4 5 4Z" fill="currentcolor" />
        </symbol>
        <symbol width="20" height="20" viewBox="0 0 20 20" fill="none" id="star-20-regular">
            <path d="M9.10433 2.89874C9.47114 2.15549 10.531 2.1555 10.8978 2.89874L12.8282 6.81024L17.1448 7.43748C17.9651 7.55666 18.2926 8.56464 17.699 9.14317L14.5755 12.1878L15.3129 16.487C15.453 17.3039 14.5956 17.9269 13.8619 17.5412L10.0011 15.5114L6.14018 17.5412C5.40655 17.9269 4.54913 17.3039 4.68924 16.487L5.4266 12.1878L2.30308 9.14317C1.70956 8.56463 2.03708 7.55666 2.8573 7.43748L7.17389 6.81024L9.10433 2.89874ZM10.0011 3.34131L8.07062 7.25281C7.92496 7.54795 7.6434 7.75252 7.31769 7.79985L3.00109 8.42709L6.12461 11.4718C6.3603 11.7015 6.46784 12.0325 6.41221 12.3569L5.67484 16.656L9.53572 14.6263C9.82705 14.4731 10.1751 14.4731 10.4664 14.6263L14.3273 16.656L13.5899 12.3569C13.5343 12.0325 13.6418 11.7015 13.8775 11.4718L17.001 8.42709L12.6844 7.79985C12.3587 7.75252 12.0772 7.54795 11.9315 7.25281L10.0011 3.34131Z" fill="currentcolor" />
        </symbol>
        <symbol width="24" height="24" viewBox="0 0 24 24" fill="none" id="cast-20-regular">
            <path d="M2 6.25C2 5.00736 3.00736 4 4.25 4H19.75C20.9926 4 22 5.00736 22 6.25V17.75C22 18.9926 20.9926 20 19.75 20H4.25C3.00736 20 2 18.9926 2 17.75V6.25ZM4.25 5.5C3.83579 5.5 3.5 5.83579 3.5 6.25V17.75C3.5 18.1642 3.83579 18.5 4.25 18.5H19.75C20.1642 18.5 20.5 18.1642 20.5 17.75V6.25C20.5 5.83579 20.1642 5.5 19.75 5.5H4.25ZM6.9959 15.9955C6.9959 16.5466 6.5491 16.9934 5.99795 16.9934C5.4468 16.9934 5 16.5466 5 15.9955C5 15.4443 5.4468 14.9975 5.99795 14.9975C6.5491 14.9975 6.9959 15.4443 6.9959 15.9955ZM4.9958 12.7506C4.9958 12.3363 5.33159 12.0006 5.7458 12.0006C8.09138 12.0006 9.99284 13.902 9.99284 16.2476C9.99284 16.6618 9.65705 16.9976 9.24284 16.9976C8.82863 16.9976 8.49284 16.6618 8.49284 16.2476C8.49284 14.7304 7.26295 13.5006 5.7458 13.5006C5.33159 13.5006 4.9958 13.1648 4.9958 12.7506ZM4.9958 9.74379C4.9958 9.32958 5.33159 8.99379 5.7458 8.99379C9.75197 8.99379 12.9996 12.2414 12.9996 16.2476C12.9996 16.6618 12.6638 16.9976 12.2496 16.9976C11.8354 16.9976 11.4996 16.6618 11.4996 16.2476C11.4996 13.0699 8.92354 10.4938 5.7458 10.4938C5.33159 10.4938 4.9958 10.158 4.9958 9.74379Z" fill="currentcolor"/>
        </symbol>
        <symbol width="20" height="20" viewBox="0 0 20 20" fill="none" id="chevron-right-20-regular">
            <path d="M7.64582 4.14708C7.84073 3.95147 8.15731 3.9509 8.35292 4.14582L13.8374 9.6108C14.0531 9.82574 14.0531 10.1751 13.8374 10.39L8.35292 15.855C8.15731 16.0499 7.84073 16.0493 7.64582 15.8537C7.4509 15.6581 7.45147 15.3415 7.64708 15.1466L12.8117 10.0004L7.64708 4.85418C7.45147 4.65927 7.4509 4.34269 7.64582 4.14708Z" fill="currentcolor" />
        </symbol>
        <symbol width="20" height="20" viewBox="0 0 20 20" fill="none" id="subtract-16-regular">
            <path d="M5 10C5 9.72386 5.22386 9.5 5.5 9.5H14.5C14.7761 9.5 15 9.72386 15 10C15 10.2761 14.7761 10.5 14.5 10.5H5.5C5.22386 10.5 5 10.2761 5 10Z" fill="currentcolor" />
        </symbol>
        <symbol width="20" height="20" viewBox="0 0 20 20" fill="none" id="add-16-regular">
            <path d="M10 4.5C10 4.22386 9.77614 4 9.5 4C9.22386 4 9 4.22386 9 4.5V9H4.5C4.22386 9 4 9.22386 4 9.5C4 9.77614 4.22386 10 4.5 10H9V14.5C9 14.7761 9.22386 15 9.5 15C9.77614 15 10 14.7761 10 14.5V10H14.5C14.7761 10 15 9.77614 15 9.5C15 9.22386 14.7761 9 14.5 9H10V4.5Z" fill="currentcolor" />
        </symbol>
        <symbol width="20" height="20" viewBox="0 0 20 20" fill="none" id="arrow-maximize-16-regular">
            <path d="M10.5 4C10.2239 4 10 4.22386 10 4.5C10 4.77614 10.2239 5 10.5 5H14.2929L5 14.2929V10.5C5 10.2239 4.77614 10 4.5 10C4.22386 10 4 10.2239 4 10.5V15.4C4 15.7314 4.26863 16 4.6 16H9.5C9.77614 16 10 15.7761 10 15.5C10 15.2239 9.77614 15 9.5 15H5.70711L15 5.70711V9.5C15 9.77614 15.2239 10 15.5 10C15.7761 10 16 9.77614 16 9.5V4.6C16 4.26863 15.7314 4 15.4 4H10.5Z" fill="currentcolor" />
        </symbol>

    </defs>
</svg>