<svg xmlns="http://www.w3.org/2000/svg">
    <defs>
        <symbol width="20" height="20" fill="none" id="layer-diagonal-20-regular">
            <path d="M10.5 3.5c0-.4-.4-.6-.7-.5L4 5.4c-.5.2-.9.7-.9 1.4v5.7c0 .4.4.6.7.5l.3-.2V14c-1 .4-2-.4-2-1.4V6.8c0-1 .6-2 1.6-2.4l5.8-2.3c1-.4 2 .3 2.1 1.3l-1 .4v-.3Zm3 2c0-.4-.4-.6-.7-.5L6.6 7.5a1 1 0 0 0-.6 1v6c0 .4.4.6.7.5l1.3-.6v1.1L7 16c-1 .4-2-.3-2-1.4v-6a2 2 0 0 1 1.3-2l6.1-2.4c1-.4 2.1.3 2.1 1.4v.1l-1 .4v-.5ZM16.3 7c.3 0 .7.1.7.5v6.6c0 .2-.1.4-.3.5l-6 2.4a.5.5 0 0 1-.7-.5V9.9c0-.2.1-.4.3-.5l6-2.4Zm1.7.5c0-1-1-1.8-2-1.4l-6 2.4c-.6.2-1 .8-1 1.4v6.6c0 1 1 1.8 2 1.4l6-2.4c.6-.2 1-.8 1-1.4V7.5Z" fill="currentcolor"/>
        </symbol>
        <symbol width="20" height="20" fill="none" id="tab-position-horizontal-20-regular">
            <path fill-rule="evenodd" clip-rule="evenodd" d="M5.5 3A2.5 2.5 0 0 0 3 5.5v9C3 15.9 4.1 17 5.5 17h9c1.4 0 2.5-1.1 2.5-2.5v-9C17 4.1 15.9 3 14.5 3h-9ZM4 14.5V7h2v9h-.5c-.8 0-1.5-.7-1.5-1.5ZM7 16V7h9v7.5c0 .8-.7 1.5-1.5 1.5H7Z" fill="currentcolor"/>
        </symbol>
        <symbol width="16" height="16" fill="none" id="tab-desktop-new-page-16-regular">
            <path d="M5 10a1 1 0 1 0 0-2 1 1 0 0 0 0 2Zm4-1a1 1 0 1 1-2 0 1 1 0 0 1 2 0Zm2 1a1 1 0 1 0 0-2 1 1 0 0 0 0 2ZM1 3.5C1 2.1 2.1 1 3.5 1h9C13.9 1 15 2.1 15 3.5v9c0 1.4-1.1 2.5-2.5 2.5h-9A2.5 2.5 0 0 1 1 12.5v-9ZM3.5 2C2.7 2 2 2.7 2 3.5v9c0 .8.7 1.5 1.5 1.5h9c.8 0 1.5-.7 1.5-1.5V5H7.5C6.7 5 6 4.3 6 3.5V2H3.5ZM14 3.5c0-.8-.7-1.5-1.5-1.5H7v1.5c0 .3.2.5.5.5H14v-.5Z" fill="currentcolor"/>
        </symbol>
        <symbol width="16" height="16" fill="none" id="dismiss-12-regular">
            <path d="m4.089 4.216.057-.07a.5.5 0 0 1 .638-.057l.07.057L8 7.293l3.146-3.147a.5.5 0 0 1 .708.708L8.707 8l3.147 3.146a.5.5 0 0 1 .057.638l-.057.07a.5.5 0 0 1-.638.057l-.07-.057L8 8.707l-3.146 3.147a.5.5 0 0 1-.708-.708L7.293 8 4.146 4.854a.5.5 0 0 1-.057-.638l.057-.07-.057.07Z" fill="currentcolor"/>
        </symbol>
        <symbol width="20" height="20" viewBox="0 0 20 20" fill="none" id="dismiss-16-regular">
            <path d="M4.58859 4.71569L4.64645 4.64645C4.82001 4.47288 5.08944 4.4536 5.28431 4.58859L5.35355 4.64645L10 9.293L14.6464 4.64645C14.8417 4.45118 15.1583 4.45118 15.3536 4.64645C15.5488 4.84171 15.5488 5.15829 15.3536 5.35355L10.707 10L15.3536 14.6464C15.5271 14.82 15.5464 15.0894 15.4114 15.2843L15.3536 15.3536C15.18 15.5271 14.9106 15.5464 14.7157 15.4114L14.6464 15.3536L10 10.707L5.35355 15.3536C5.15829 15.5488 4.84171 15.5488 4.64645 15.3536C4.45118 15.1583 4.45118 14.8417 4.64645 14.6464L9.293 10L4.64645 5.35355C4.47288 5.17999 4.4536 4.91056 4.58859 4.71569L4.64645 4.64645L4.58859 4.71569Z" fill="currentcolor"/>
        </symbol>
        <symbol width="20" height="20" id="add-20-regular">
            <path d="M10 2.5a.5.5 0 0 0-1 0V9H2.5a.5.5 0 0 0 0 1H9v6.5a.5.5 0 0 0 1 0V10h6.5a.5.5 0 0 0 0-1H10V2.5Z" fill="currentcolor"/>
        </symbol>
        <symbol width="20" height="20" viewBox="0 0 20 20" fill="none" id="chrome-minimize-20-regular">
            <path d="M5.49805 10C5.42969 10 5.36458 9.98698 5.30273 9.96094C5.24414 9.9349 5.19206 9.89909 5.14648 9.85352C5.10091 9.80794 5.0651 9.75586 5.03906 9.69727C5.01302 9.63542 5 9.57031 5 9.50195C5 9.43359 5.01302 9.37012 5.03906 9.31152C5.0651 9.24967 5.10091 9.19596 5.14648 9.15039C5.19206 9.10156 5.24414 9.06413 5.30273 9.03809C5.36458 9.01204 5.42969 8.99902 5.49805 8.99902H14.502C14.5703 8.99902 14.6338 9.01204 14.6924 9.03809C14.7542 9.06413 14.8079 9.10156 14.8535 9.15039C14.8991 9.19596 14.9349 9.24967 14.9609 9.31152C14.987 9.37012 15 9.43359 15 9.50195C15 9.57031 14.987 9.63542 14.9609 9.69727C14.9349 9.75586 14.8991 9.80794 14.8535 9.85352C14.8079 9.89909 14.7542 9.9349 14.6924 9.96094C14.6338 9.98698 14.5703 10 14.502 10H5.49805Z" fill="currentcolor" />
        </symbol>
        <symbol width="20" height="20" viewBox="0 0 20 20" fill="none" id="chrome-maximize-20-regular">
            <path d="M6.47461 15C6.2793 15 6.09212 14.9609 5.91309 14.8828C5.73405 14.8014 5.57617 14.694 5.43945 14.5605C5.30599 14.4238 5.19857 14.266 5.11719 14.0869C5.03906 13.9079 5 13.7207 5 13.5254V6.47461C5 6.2793 5.03906 6.09212 5.11719 5.91309C5.19857 5.73405 5.30599 5.5778 5.43945 5.44434C5.57617 5.30762 5.73405 5.2002 5.91309 5.12207C6.09212 5.04069 6.2793 5 6.47461 5H13.5254C13.7207 5 13.9079 5.04069 14.0869 5.12207C14.266 5.2002 14.4222 5.30762 14.5557 5.44434C14.6924 5.5778 14.7998 5.73405 14.8779 5.91309C14.9593 6.09212 15 6.2793 15 6.47461V13.5254C15 13.7207 14.9593 13.9079 14.8779 14.0869C14.7998 14.266 14.6924 14.4238 14.5557 14.5605C14.4222 14.694 14.266 14.8014 14.0869 14.8828C13.9079 14.9609 13.7207 15 13.5254 15H6.47461ZM13.501 13.999C13.5693 13.999 13.6328 13.986 13.6914 13.96C13.7533 13.9339 13.807 13.8981 13.8525 13.8525C13.8981 13.807 13.9339 13.7549 13.96 13.6963C13.986 13.6344 13.999 13.5693 13.999 13.501V6.49902C13.999 6.43066 13.986 6.36719 13.96 6.30859C13.9339 6.24674 13.8981 6.19303 13.8525 6.14746C13.807 6.10189 13.7533 6.06608 13.6914 6.04004C13.6328 6.014 13.5693 6.00098 13.501 6.00098H6.49902C6.43066 6.00098 6.36556 6.014 6.30371 6.04004C6.24512 6.06608 6.19303 6.10189 6.14746 6.14746C6.10189 6.19303 6.06608 6.24674 6.04004 6.30859C6.014 6.36719 6.00098 6.43066 6.00098 6.49902V13.501C6.00098 13.5693 6.014 13.6344 6.04004 13.6963C6.06608 13.7549 6.10189 13.807 6.14746 13.8525C6.19303 13.8981 6.24512 13.9339 6.30371 13.96C6.36556 13.986 6.43066 13.999 6.49902 13.999H13.501Z" fill="currentcolor"/>
        </symbol>
        <symbol width="20" height="20" viewBox="0 0 20 20" fill="none" id="chrome-restore-20-regular">
            <path d="M13.999 7.96387C13.999 7.69368 13.9453 7.43978 13.8379 7.20215C13.7305 6.96126 13.584 6.75293 13.3984 6.57715C13.2161 6.39811 13.0029 6.25814 12.7588 6.15723C12.5179 6.05306 12.264 6.00098 11.9971 6.00098H7.08496C7.13704 5.85124 7.21029 5.71452 7.30469 5.59082C7.39909 5.46712 7.50814 5.36133 7.63184 5.27344C7.75553 5.18555 7.89062 5.11882 8.03711 5.07324C8.18685 5.02441 8.34147 5 8.50098 5H11.9971C12.4105 5 12.7995 5.07975 13.1641 5.23926C13.5286 5.39551 13.846 5.60872 14.1162 5.87891C14.3896 6.14909 14.6045 6.46647 14.7607 6.83105C14.9202 7.19564 15 7.58464 15 7.99805V11.499C15 11.6585 14.9756 11.8132 14.9268 11.9629C14.8812 12.1094 14.8145 12.2445 14.7266 12.3682C14.6387 12.4919 14.5329 12.6009 14.4092 12.6953C14.2855 12.7897 14.1488 12.863 13.999 12.915V7.96387ZM6.47461 15C6.2793 15 6.09212 14.9609 5.91309 14.8828C5.73405 14.8014 5.57617 14.694 5.43945 14.5605C5.30599 14.4238 5.19857 14.266 5.11719 14.0869C5.03906 13.9079 5 13.7207 5 13.5254V8.47656C5 8.27799 5.03906 8.09082 5.11719 7.91504C5.19857 7.736 5.30599 7.57975 5.43945 7.44629C5.57617 7.30957 5.73242 7.20215 5.9082 7.12402C6.08724 7.04264 6.27604 7.00195 6.47461 7.00195H11.5234C11.722 7.00195 11.9108 7.04264 12.0898 7.12402C12.2689 7.20215 12.4251 7.30794 12.5586 7.44141C12.6921 7.57487 12.7979 7.73112 12.876 7.91016C12.9574 8.08919 12.998 8.27799 12.998 8.47656V13.5254C12.998 13.724 12.9574 13.9128 12.876 14.0918C12.7979 14.2676 12.6904 14.4238 12.5537 14.5605C12.4202 14.694 12.264 14.8014 12.085 14.8828C11.9092 14.9609 11.722 15 11.5234 15H6.47461ZM11.499 13.999C11.5674 13.999 11.6309 13.986 11.6895 13.96C11.7513 13.9339 11.805 13.8981 11.8506 13.8525C11.8994 13.807 11.9368 13.7549 11.9629 13.6963C11.9889 13.6344 12.002 13.5693 12.002 13.501V8.50098C12.002 8.43262 11.9889 8.36751 11.9629 8.30566C11.9368 8.24382 11.901 8.1901 11.8555 8.14453C11.8099 8.09896 11.7562 8.06315 11.6943 8.03711C11.6325 8.01107 11.5674 7.99805 11.499 7.99805H6.49902C6.43066 7.99805 6.36556 8.01107 6.30371 8.03711C6.24512 8.06315 6.19303 8.10059 6.14746 8.14941C6.10189 8.19499 6.06608 8.2487 6.04004 8.31055C6.014 8.36914 6.00098 8.43262 6.00098 8.50098V13.501C6.00098 13.5693 6.014 13.6344 6.04004 13.6963C6.06608 13.7549 6.10189 13.807 6.14746 13.8525C6.19303 13.8981 6.24512 13.9339 6.30371 13.96C6.36556 13.986 6.43066 13.999 6.49902 13.999H11.499Z" fill="currentcolor" />
        </symbol>
        <symbol width="20" height="20" viewBox="0 0 20 20" fill="none" id="chrome-close-20-regular">
            <path d="M10 10.708L5.85449 14.8535C5.75684 14.9512 5.63965 15 5.50293 15C5.3597 15 5.23926 14.9528 5.1416 14.8584C5.0472 14.7607 5 14.6403 5 14.4971C5 14.3604 5.04883 14.2432 5.14648 14.1455L9.29199 10L5.14648 5.85449C5.04883 5.75684 5 5.63802 5 5.49805C5 5.42969 5.01302 5.36458 5.03906 5.30273C5.0651 5.24089 5.10091 5.1888 5.14648 5.14648C5.19206 5.10091 5.24577 5.0651 5.30762 5.03906C5.36947 5.01302 5.43457 5 5.50293 5C5.63965 5 5.75684 5.04883 5.85449 5.14648L10 9.29199L14.1455 5.14648C14.2432 5.04883 14.362 5 14.502 5C14.5703 5 14.6338 5.01302 14.6924 5.03906C14.7542 5.0651 14.8079 5.10091 14.8535 5.14648C14.8991 5.19206 14.9349 5.24577 14.9609 5.30762C14.987 5.36621 15 5.42969 15 5.49805C15 5.63802 14.9512 5.75684 14.8535 5.85449L10.708 10L14.8535 14.1455C14.9512 14.2432 15 14.3604 15 14.4971C15 14.5654 14.987 14.6305 14.9609 14.6924C14.9349 14.7542 14.8991 14.8079 14.8535 14.8535C14.8112 14.8991 14.7591 14.9349 14.6973 14.9609C14.6354 14.987 14.5703 15 14.502 15C14.362 15 14.2432 14.9512 14.1455 14.8535L10 10.708Z" fill="currentcolor"/>
        </symbol>
        <symbol width="20" height="20" fill="none" id="back-20-regular">
            <path d="M9.15898 16.8666C9.36292 17.0528 9.67918 17.0384 9.86536 16.8345C10.0515 16.6305 10.0371 16.3143 9.8332 16.1281L3.66535 10.4974H17.4961C17.7722 10.4974 17.9961 10.2735 17.9961 9.99736C17.9961 9.72122 17.7722 9.49736 17.4961 9.49736H3.66824L9.8332 3.86927C10.0371 3.68309 10.0515 3.36684 9.86536 3.16289C9.67918 2.95895 9.36292 2.94456 9.15898 3.13074L2.24263 9.44478C2.10268 9.57254 2.02285 9.74008 2.00314 9.91323C1.99851 9.94058 1.99609 9.96869 1.99609 9.99736C1.99609 10.0242 1.99821 10.0506 2.00229 10.0763C2.02047 10.2522 2.10058 10.4229 2.24263 10.5526L9.15898 16.8666Z" fill="currentcolor"/>
        </symbol>
        <symbol width="20" height="20" fill="none" id="arrow-clockwise-20-regular">
            <path d="M4 10C4 6.68629 6.68629 4 10 4C11.7766 4 13.3732 4.77191 14.4723 6H12.5C12.2239 6 12 6.22386 12 6.5C12 6.77614 12.2239 7 12.5 7H15.5C15.7761 7 16 6.77614 16 6.5V3.5C16 3.22386 15.7761 3 15.5 3C15.2239 3 15 3.22386 15 3.5V5.10109C13.7299 3.80499 11.9591 3 10 3C6.13401 3 3 6.13401 3 10C3 13.866 6.13401 17 10 17C13.866 17 17 13.866 17 10C17 9.8191 16.9931 9.6397 16.9796 9.46207C16.9587 9.18673 16.7185 8.98049 16.4431 9.00144C16.1678 9.02239 15.9615 9.26258 15.9825 9.53793C15.9941 9.69034 16 9.84443 16 10C16 13.3137 13.3137 16 10 16C6.68629 16 4 13.3137 4 10Z" fill="currentcolor" />
        </symbol>
        <symbol width="20" height="20" fill="none" id="star-list-horizontal-20-regular">
            <path d="M9.10431 2.89886C9.47113 2.15561 10.531 2.15562 10.8978 2.89889L12.9217 6.99995H17.5008C17.777 6.99995 18.0008 7.22381 18.0008 7.49995C18.0008 7.7761 17.777 7.99995 17.5008 7.99995H12.9217C12.541 7.99995 12.1934 7.78384 12.0249 7.4425L10.001 3.34143L8.07062 7.2529C7.92496 7.54804 7.6434 7.75261 7.31769 7.79994L3.00109 8.42718L6.12461 11.4719C6.3603 11.7016 6.46784 12.0326 6.41221 12.357L5.67484 16.6561L9.76839 14.504C10.0128 14.3755 10.3151 14.4695 10.4436 14.7139C10.5721 14.9583 10.4782 15.2607 10.2337 15.3892L6.14018 17.5413C5.40655 17.927 4.54913 17.304 4.68924 16.4871L5.4266 12.1879L2.30308 9.14326C1.70956 8.56472 2.03708 7.55675 2.8573 7.43757L7.17389 6.81033L9.10431 2.89886ZM12 10.5C12 10.2239 12.2239 10 12.5 10H17.5C17.7761 10 18 10.2239 18 10.5C18 10.7761 17.7761 11 17.5 11H12.5C12.2239 11 12 10.7761 12 10.5ZM12.5 13C12.2239 13 12 13.2239 12 13.5C12 13.7761 12.2239 14 12.5 14H17.5C17.7761 14 18 13.7761 18 13.5C18 13.2239 17.7761 13 17.5 13H12.5Z" fill="currentcolor"/>
        </symbol>
        <symbol width="20" height="20" fill="none" id="more-horizontal-20-regular">
            <path d="M6.25 10C6.25 10.6904 5.69036 11.25 5 11.25C4.30964 11.25 3.75 10.6904 3.75 10C3.75 9.30964 4.30964 8.75 5 8.75C5.69036 8.75 6.25 9.30964 6.25 10ZM11.25 10C11.25 10.6904 10.6904 11.25 10 11.25C9.30964 11.25 8.75 10.6904 8.75 10C8.75 9.30964 9.30964 8.75 10 8.75C10.6904 8.75 11.25 9.30964 11.25 10ZM15 11.25C15.6904 11.25 16.25 10.6904 16.25 10C16.25 9.30964 15.6904 8.75 15 8.75C14.3096 8.75 13.75 9.30964 13.75 10C13.75 10.6904 14.3096 11.25 15 11.25Z" fill="currentcolor"/>
        </symbol>
        <symbol width="20" height="20" viewBox="0 0 20 20" fill="none" id="lock-closed-20-regular">
            <path d="M10 13C10.5523 13 11 12.5523 11 12C11 11.4477 10.5523 11 10 11C9.44771 11 9 11.4477 9 12C9 12.5523 9.44771 13 10 13ZM6 6H7V5C7 3.34315 8.34315 2 10 2C11.6569 2 13 3.34315 13 5V6H14C15.6569 6 17 7.34315 17 9V15C17 16.6569 15.6569 18 14 18H6C4.34315 18 3 16.6569 3 15V9C3 7.34315 4.34315 6 6 6ZM10 3C8.89543 3 8 3.89543 8 5V6H12V5C12 3.89543 11.1046 3 10 3ZM16 9C16 7.89543 15.1046 7 14 7H6C4.89543 7 4 7.89543 4 9V15C4 16.1046 4.89543 17 6 17H14C15.1046 17 16 16.1046 16 15V9Z" fill="currentcolor" />
        </symbol>
        <symbol width="21" height="20" viewBox="0 0 21 20" fill="none" id="search-20-regular">
            <path d="M8.5 3C11.5376 3 14 5.46243 14 8.5C14 9.83879 13.5217 11.0659 12.7266 12.0196L16.8536 16.1464C17.0488 16.3417 17.0488 16.6583 16.8536 16.8536C16.68 17.0271 16.4106 17.0464 16.2157 16.9114L16.1464 16.8536L12.0196 12.7266C11.0659 13.5217 9.83879 14 8.5 14C5.46243 14 3 11.5376 3 8.5C3 5.46243 5.46243 3 8.5 3ZM8.5 4C6.01472 4 4 6.01472 4 8.5C4 10.9853 6.01472 13 8.5 13C10.9853 13 13 10.9853 13 8.5C13 6.01472 10.9853 4 8.5 4Z" fill="currentcolor" />
        </symbol>
        <symbol width="20" height="20" viewBox="0 0 20 20" fill="none" id="star-add-20-regular">
            <path d="M9.10433 2.89899C9.47114 2.15574 10.531 2.15574 10.8978 2.89899L12.8282 6.81048L17.1448 7.43772C17.9651 7.55691 18.2926 8.56488 17.699 9.14342L17.1502 9.67839C16.8358 9.50531 16.5026 9.36209 16.1544 9.25257L17.001 8.42733L12.6844 7.80009C12.3587 7.75276 12.0772 7.54819 11.9315 7.25305L10.0011 3.34155L8.07062 7.25305C7.92496 7.54819 7.6434 7.75276 7.31769 7.80009L3.00109 8.42733L6.12461 11.472C6.3603 11.7017 6.46784 12.0327 6.41221 12.3571L5.67484 16.6563L9.01625 14.8996C9.04183 15.2559 9.10136 15.6029 9.19162 15.9372L6.14018 17.5414C5.40655 17.9271 4.54913 17.3041 4.68924 16.4872L5.4266 12.1881L2.30308 9.14341C1.70956 8.56488 2.03708 7.55691 2.8573 7.43772L7.17389 6.81048L9.10433 2.89899ZM19.002 14.5C19.002 16.9853 16.9872 19 14.502 19C12.0167 19 10.002 16.9853 10.002 14.5C10.002 12.0147 12.0167 10 14.502 10C16.9872 10 19.002 12.0147 19.002 14.5ZM15.002 12.5C15.002 12.2239 14.7781 12 14.502 12C14.2258 12 14.002 12.2239 14.002 12.5V14H12.502C12.2258 14 12.002 14.2239 12.002 14.5C12.002 14.7761 12.2258 15 12.502 15H14.002V16.5C14.002 16.7761 14.2258 17 14.502 17C14.7781 17 15.002 16.7761 15.002 16.5V15H16.502C16.7781 15 17.002 14.7761 17.002 14.5C17.002 14.2239 16.7781 14 16.502 14H15.002V12.5Z" fill="currentcolor" />
        </symbol>
        <symbol width="20" height="20" viewBox="0 0 20 20" fill="none" id="panel-left-text-20-regular">
            <path d="M6.58988 6.99194C6.82312 6.94961 7 6.74546 7 6.5C7 6.22386 6.77614 6 6.5 6H4.5L4.41012 6.00806C4.17688 6.05039 4 6.25454 4 6.5C4 6.77614 4.22386 7 4.5 7H6.5L6.58988 6.99194ZM6.58988 9.99194C6.82312 9.94961 7 9.74546 7 9.5C7 9.22386 6.77614 9 6.5 9H4.5L4.41012 9.00806C4.17688 9.05039 4 9.25454 4 9.5C4 9.77614 4.22386 10 4.5 10H6.5L6.58988 9.99194ZM6.58988 12.9919C6.82312 12.9496 7 12.7455 7 12.5C7 12.2239 6.77614 12 6.5 12H4.5L4.41012 12.0081C4.17688 12.0504 4 12.2545 4 12.5C4 12.7761 4.22386 13 4.5 13H6.5L6.58988 12.9919ZM5 3C3.34315 3 2 4.34315 2 6V13C2 14.6569 3.34315 16 5 16H15C16.6569 16 18 14.6569 18 13V6C18 4.34315 16.6569 3 15 3H5ZM15 15H9V4H15C16.1046 4 17 4.89543 17 6V13C17 14.1046 16.1046 15 15 15ZM5 4H8V15H5C3.89543 15 3 14.1046 3 13V6C3 4.89543 3.89543 4 5 4Z" fill="currentcolor" />
        </symbol>
        <symbol width="20" height="20" viewBox="0 0 20 20" fill="none" id="star-20-regular">
            <path d="M9.10433 2.89874C9.47114 2.15549 10.531 2.1555 10.8978 2.89874L12.8282 6.81024L17.1448 7.43748C17.9651 7.55666 18.2926 8.56464 17.699 9.14317L14.5755 12.1878L15.3129 16.487C15.453 17.3039 14.5956 17.9269 13.8619 17.5412L10.0011 15.5114L6.14018 17.5412C5.40655 17.9269 4.54913 17.3039 4.68924 16.487L5.4266 12.1878L2.30308 9.14317C1.70956 8.56463 2.03708 7.55666 2.8573 7.43748L7.17389 6.81024L9.10433 2.89874ZM10.0011 3.34131L8.07062 7.25281C7.92496 7.54795 7.6434 7.75252 7.31769 7.79985L3.00109 8.42709L6.12461 11.4718C6.3603 11.7015 6.46784 12.0325 6.41221 12.3569L5.67484 16.656L9.53572 14.6263C9.82705 14.4731 10.1751 14.4731 10.4664 14.6263L14.3273 16.656L13.5899 12.3569C13.5343 12.0325 13.6418 11.7015 13.8775 11.4718L17.001 8.42709L12.6844 7.79985C12.3587 7.75252 12.0772 7.54795 11.9315 7.25281L10.0011 3.34131Z" fill="currentcolor" />
        </symbol>
        <symbol width="20" height="20" viewBox="0 0 20 20" fill="none" id="star-20-filled">
            <path d="M9.10433 2.89874C9.47114 2.15549 10.531 2.1555 10.8978 2.89874L12.8282 6.81024L17.1448 7.43748C17.9651 7.55666 18.2926 8.56464 17.699 9.14317L14.5755 12.1878L15.3129 16.487C15.453 17.3039 14.5956 17.9269 13.8619 17.5412L10.0011 15.5114L6.14018 17.5412C5.40655 17.9269 4.54913 17.3039 4.68924 16.487L5.4266 12.1878L2.30308 9.14317C1.70956 8.56463 2.03708 7.55666 2.8573 7.43748L7.17389 6.81024L9.10433 2.89874Z" fill="currentcolor"/>
        </symbol>
        <symbol width="24" height="24" viewBox="0 0 24 24" fill="none" id="cast-20-regular">
            <path d="M2 6.25C2 5.00736 3.00736 4 4.25 4H19.75C20.9926 4 22 5.00736 22 6.25V17.75C22 18.9926 20.9926 20 19.75 20H4.25C3.00736 20 2 18.9926 2 17.75V6.25ZM4.25 5.5C3.83579 5.5 3.5 5.83579 3.5 6.25V17.75C3.5 18.1642 3.83579 18.5 4.25 18.5H19.75C20.1642 18.5 20.5 18.1642 20.5 17.75V6.25C20.5 5.83579 20.1642 5.5 19.75 5.5H4.25ZM6.9959 15.9955C6.9959 16.5466 6.5491 16.9934 5.99795 16.9934C5.4468 16.9934 5 16.5466 5 15.9955C5 15.4443 5.4468 14.9975 5.99795 14.9975C6.5491 14.9975 6.9959 15.4443 6.9959 15.9955ZM4.9958 12.7506C4.9958 12.3363 5.33159 12.0006 5.7458 12.0006C8.09138 12.0006 9.99284 13.902 9.99284 16.2476C9.99284 16.6618 9.65705 16.9976 9.24284 16.9976C8.82863 16.9976 8.49284 16.6618 8.49284 16.2476C8.49284 14.7304 7.26295 13.5006 5.7458 13.5006C5.33159 13.5006 4.9958 13.1648 4.9958 12.7506ZM4.9958 9.74379C4.9958 9.32958 5.33159 8.99379 5.7458 8.99379C9.75197 8.99379 12.9996 12.2414 12.9996 16.2476C12.9996 16.6618 12.6638 16.9976 12.2496 16.9976C11.8354 16.9976 11.4996 16.6618 11.4996 16.2476C11.4996 13.0699 8.92354 10.4938 5.7458 10.4938C5.33159 10.4938 4.9958 10.158 4.9958 9.74379Z" fill="currentcolor"/>
        </symbol>
        <symbol width="20" height="20" viewBox="0 0 20 20" fill="none" id="chevron-right-20-regular">
            <path d="M7.64582 4.14708C7.84073 3.95147 8.15731 3.9509 8.35292 4.14582L13.8374 9.6108C14.0531 9.82574 14.0531 10.1751 13.8374 10.39L8.35292 15.855C8.15731 16.0499 7.84073 16.0493 7.64582 15.8537C7.4509 15.6581 7.45147 15.3415 7.64708 15.1466L12.8117 10.0004L7.64708 4.85418C7.45147 4.65927 7.4509 4.34269 7.64582 4.14708Z" fill="currentcolor" />
        </symbol>
        <symbol width="20" height="20" viewBox="0 0 20 20" fill="none" id="subtract-16-regular">
            <path d="M5 10C5 9.72386 5.22386 9.5 5.5 9.5H14.5C14.7761 9.5 15 9.72386 15 10C15 10.2761 14.7761 10.5 14.5 10.5H5.5C5.22386 10.5 5 10.2761 5 10Z" fill="currentcolor" />
        </symbol>
        <symbol width="20" height="20" viewBox="0 0 20 20" fill="none" id="add-16-regular">
            <path d="M10 4.5C10 4.22386 9.77614 4 9.5 4C9.22386 4 9 4.22386 9 4.5V9H4.5C4.22386 9 4 9.22386 4 9.5C4 9.77614 4.22386 10 4.5 10H9V14.5C9 14.7761 9.22386 15 9.5 15C9.77614 15 10 14.7761 10 14.5V10H14.5C14.7761 10 15 9.77614 15 9.5C15 9.22386 14.7761 9 14.5 9H10V4.5Z" fill="currentcolor" />
        </symbol>
        <symbol width="20" height="20" viewBox="0 0 20 20" fill="none" id="arrow-maximize-16-regular">
            <path d="M10.5 4C10.2239 4 10 4.22386 10 4.5C10 4.77614 10.2239 5 10.5 5H14.2929L5 14.2929V10.5C5 10.2239 4.77614 10 4.5 10C4.22386 10 4 10.2239 4 10.5V15.4C4 15.7314 4.26863 16 4.6 16H9.5C9.77614 16 10 15.7761 10 15.5C10 15.2239 9.77614 15 9.5 15H5.70711L15 5.70711V9.5C15 9.77614 15.2239 10 15.5 10C15.7761 10 16 9.77614 16 9.5V4.6C16 4.26863 15.7314 4 15.4 4H10.5Z" fill="currentcolor" />
        </symbol>
        <symbol width="20" height="20" viewBox="0 0 20 20" fill="none" id="puzzle-piece-20-regular">
            <path d="M11 3C10.3096 3 9.75 3.55964 9.75 4.25V5H6.5C6.22386 5 6 5.22386 6 5.5V8.75H5.25C4.55964 8.75 4 9.30964 4 10C4 10.6904 4.55964 11.25 5.25 11.25H6V14.5C6 14.7761 6.22386 15 6.5 15H9.75V15.75C9.75 16.4404 10.3096 17 11 17C11.6904 17 12.25 16.4404 12.25 15.75V15H15.5C15.7761 15 16 14.7761 16 14.5V12.25H15.25C14.0074 12.25 13 11.2426 13 10C13 8.75736 14.0074 7.75 15.25 7.75H16V5.5C16 5.22386 15.7761 5 15.5 5H12.25V4.25C12.25 3.55964 11.6904 3 11 3ZM8.76373 4C8.88809 2.87501 9.84186 2 11 2C12.1581 2 13.1119 2.87501 13.2363 4H15.5C16.3284 4 17 4.67157 17 5.5V8.75H15.25C14.5596 8.75 14 9.30964 14 10C14 10.6904 14.5596 11.25 15.25 11.25H17V14.5C17 15.3284 16.3284 16 15.5 16H13.2363C13.1119 17.125 12.1581 18 11 18C9.84186 18 8.88809 17.125 8.76373 16H6.5C5.67157 16 5 15.3284 5 14.5V12.2363C3.87501 12.1119 3 11.1581 3 10C3 8.84186 3.87501 7.88809 5 7.76373V5.5C5 4.67157 5.67157 4 6.5 4H8.76373Z" fill="currentcolor"/>
        </symbol>
        <symbol width="20" height="20" viewBox="0 0 20 20" fill="none" id="more-vertical-16-regular">
            <path d="M10 7C9.44772 7 9 6.55228 9 6C9 5.44772 9.44772 5 10 5C10.5523 5 11 5.44772 11 6C11 6.55228 10.5523 7 10 7ZM10 11C9.44771 11 9 10.5523 9 10C9 9.44772 9.44771 9 10 9C10.5523 9 11 9.44772 11 10C11 10.5523 10.5523 11 10 11ZM9 14C9 14.5523 9.44771 15 10 15C10.5523 15 11 14.5523 11 14C11 13.4477 10.5523 13 10 13C9.44771 13 9 13.4477 9 14Z" fill="currentcolor"/>
        </symbol>
        <symbol width="20" height="20" viewBox="0 0 20 20" fill="none" id="arrow-clockwise-16-regular">
            <path d="M5 10C5 7.23858 7.23858 5 10 5C11.6353 5 13.0878 5.78495 14.0005 7H12C11.7239 7 11.5 7.22386 11.5 7.5C11.5 7.77614 11.7239 8 12 8H14.8904C14.8973 8.00014 14.9041 8.00014 14.911 8H15C15.2761 8 15.5 7.77614 15.5 7.5V4.5C15.5 4.22386 15.2761 4 15 4C14.7239 4 14.5 4.22386 14.5 4.5V6.03138C13.4009 4.78613 11.7925 4 10 4C6.68629 4 4 6.68629 4 10C4 13.3137 6.68629 16 10 16C13.1301 16 15.6999 13.6035 15.9756 10.5449C16.0003 10.2698 15.7975 10.0268 15.5225 10.002C15.2474 9.97723 15.0044 10.1801 14.9796 10.4551C14.75 13.003 12.6079 15 10 15C7.23858 15 5 12.7614 5 10Z" fill="currentcolor"/>
        </symbol>
        <symbol width="20" height="20" viewBox="0 0 20 20" fill="none" id="mic-new-24-regular">
            <path fill-rule="evenodd" clip-rule="evenodd" d="M14.4141 4.94168C14.4141 2.50506 12.4388 0.529785 10.0022 0.529785C7.56555 0.529785 5.59028 2.50506 5.59028 4.94168L5.59028 11.4434C5.59028 13.88 7.56555 15.8553 10.0022 15.8553C12.4388 15.8553 14.4141 13.88 14.4141 11.4434L14.4141 4.94168ZM10.0022 1.92301C11.6693 1.92301 13.0208 3.27452 13.0208 4.94168L13.0208 11.4434C13.0208 13.1106 11.6693 14.4621 10.0022 14.4621C8.33501 14.4621 6.98351 13.1106 6.98351 11.4434L6.98351 4.94168C6.98351 3.27452 8.33501 1.92301 10.0022 1.92301Z" fill="currentcolor"/>
            <path fill-rule="evenodd" clip-rule="evenodd" d="M17.4327 7.03152C17.048 7.03152 16.7361 7.34341 16.7361 7.72813V11.4434C16.7361 15.1625 13.7212 18.1774 10.0022 18.1774C6.28312 18.1774 3.26823 15.1625 3.26823 11.4434L3.26823 7.72814C3.26823 7.34341 2.95634 7.03152 2.57161 7.03152C2.18688 7.03152 1.875 7.34341 1.875 7.72814L1.875 11.4434C1.875 15.9319 5.51366 19.5706 10.0022 19.5706C14.4907 19.5706 18.1293 15.9319 18.1293 11.4434V7.72813C18.1293 7.34341 17.8175 7.03152 17.4327 7.03152Z" fill="currentcolor"/>
        </symbol>
        <symbol width="20" height="20" viewBox="0 0 20 20" fill="none" id="history-20-regular">
            <path d="M10 4C13.3137 4 16 6.68629 16 10C16 13.3137 13.3137 16 10 16C6.68629 16 4 13.3137 4 10C4 9.84443 4.00591 9.69034 4.0175 9.53793C4.03845 9.26258 3.83222 9.02239 3.55687 9.00144C3.28152 8.98049 3.04133 9.18673 3.02038 9.46207C3.00687 9.6397 3 9.8191 3 10C3 13.866 6.13401 17 10 17C13.866 17 17 13.866 17 10C17 6.13401 13.866 3 10 3C8.04094 3 6.27012 3.80499 5 5.10109V3.5C5 3.22386 4.77614 3 4.5 3C4.22386 3 4 3.22386 4 3.5V6.5C4 6.77614 4.22386 7 4.5 7H7.5C7.77614 7 8 6.77614 8 6.5C8 6.22386 7.77614 6 7.5 6H5.52772C6.62683 4.77191 8.2234 4 10 4ZM10 6.5C10 6.22386 9.77614 6 9.5 6C9.22386 6 9 6.22386 9 6.5V10.5C9 10.7761 9.22386 11 9.5 11H12.5C12.7761 11 13 10.7761 13 10.5C13 10.2239 12.7761 10 12.5 10H10V6.5Z" fill="currentcolor" />
        </symbol>
        <symbol width="20" height="20" viewBox="0 0 20 20" fill="none" id="pin-20-regular">
            <path d="M10.1221 3.13764C10.7326 1.91665 12.3599 1.65257 13.3251 2.61785L17.382 6.67468C18.3472 7.63996 18.0832 9.26725 16.8622 9.87775L13.4037 11.607C13.0751 11.7713 12.8183 12.0504 12.6818 12.3915L11.2459 15.9815C10.9792 16.648 10.1179 16.8248 9.61027 16.3172L7 13.7069L3.70711 16.9998H3V16.2927L6.29289 12.9998L3.68262 10.3896C3.17498 9.88191 3.35177 9.0206 4.01834 8.75397L7.60829 7.31799C7.94939 7.18155 8.22855 6.92468 8.39285 6.59609L10.1221 3.13764ZM12.618 3.32496C12.1354 2.84232 11.3217 2.97436 11.0165 3.58486L9.28727 7.04331C9.01345 7.59095 8.54818 8.01907 7.97968 8.24646L4.38973 9.68245L10.3174 15.6101L11.7534 12.0201C11.9808 11.4516 12.4089 10.9864 12.9565 10.7125L16.415 8.98332C17.0255 8.67807 17.1575 7.86443 16.6749 7.38179L12.618 3.32496Z" fill="currentcolor" />
        </symbol>
        <symbol width="20" height="20" viewBox="0 0 20 20" fill="none" id="store-microsoft-20-regular">
            <path d="M9.5 7V10H6.5V7H9.5ZM9.5 14V11H6.5V14H9.5ZM13.5 7V10H10.5V7H13.5ZM13.5 14V11H10.5V14H13.5ZM7 4V2.5C7 1.67157 7.67157 1 8.5 1H11.5C12.3284 1 13 1.67157 13 2.5V4H17.5C17.7761 4 18 4.22386 18 4.5V14.5C18 15.8807 16.8807 17 15.5 17H4.5C3.11929 17 2 15.8807 2 14.5V4.5C2 4.22386 2.22386 4 2.5 4H7ZM8 2.5V4H12V2.5C12 2.22386 11.7761 2 11.5 2H8.5C8.22386 2 8 2.22386 8 2.5ZM3 14.5C3 15.3284 3.67157 16 4.5 16H15.5C16.3284 16 17 15.3284 17 14.5V5H3V14.5Z" fill="currentcolor" />
        </symbol>
        <symbol width="20" height="20" viewBox="0 0 20 20" fill="none" id="pin-off-20-regular">
            <path d="M2.85355 2.14645C2.65829 1.95118 2.34171 1.95118 2.14645 2.14645C1.95118 2.34171 1.95118 2.65829 2.14645 2.85355L6.896 7.60309L4.01834 8.75415C3.35177 9.02078 3.17498 9.88209 3.68262 10.3897L6.29289 13L3 16.2929V17H3.70711L7 13.7071L9.61027 16.3174C10.1179 16.825 10.9792 16.6482 11.2459 15.9817L12.3969 13.104L17.1464 17.8536C17.3417 18.0488 17.6583 18.0488 17.8536 17.8536C18.0488 17.6583 18.0488 17.3417 17.8536 17.1464L2.85355 2.14645ZM11.6276 12.3347L10.3174 15.6103L4.38973 9.68263L7.66531 8.3724L11.6276 12.3347ZM12.9565 10.7127C12.9294 10.7263 12.9026 10.7403 12.8761 10.7548L13.6202 11.4989L16.8622 9.87793C18.0832 9.26743 18.3473 7.64015 17.382 6.67486L13.3251 2.61804C12.3599 1.65275 10.7326 1.91683 10.1221 3.13783L8.5011 6.37977L9.24523 7.1239C9.25971 7.09739 9.27373 7.07059 9.28728 7.04349L11.0165 3.58504C11.3218 2.97454 12.1354 2.8425 12.618 3.32514L16.6749 7.38197C17.1575 7.86461 17.0255 8.67826 16.415 8.98351L12.9565 10.7127Z" fill="currentcolor" />
        </symbol>
        <symbol width="20" height="20" viewBox="0 0 20 20" fill="none" id="arrow-download-20-regular">
            <path d="M15.5 16.9988C15.7761 16.9988 16 17.2226 16 17.4988C16 17.7442 15.8231 17.9484 15.5899 17.9907L15.5 17.9988H4.5C4.22386 17.9988 4 17.7749 4 17.4988C4 17.2533 4.17688 17.0492 4.41012 17.0068L4.5 16.9988H15.5ZM10.0001 2.00098C10.2456 2.00098 10.4497 2.17798 10.492 2.41124L10.5 2.50112L10.496 14.295L14.1414 10.6466C14.3148 10.4729 14.5842 10.4534 14.7792 10.5882L14.8485 10.646C15.0222 10.8194 15.0418 11.0888 14.907 11.2838L14.8492 11.3531L10.3574 15.8531C10.285 15.9257 10.1957 15.9714 10.1021 15.9901L9.99608 15.9999C9.83511 15.9999 9.69192 15.9237 9.60051 15.8056L5.14386 11.3537C4.94846 11.1586 4.94823 10.842 5.14336 10.6466C5.3168 10.4729 5.58621 10.4534 5.78117 10.5883L5.85046 10.6461L9.496 14.287L9.5 2.50083C9.50008 2.22469 9.724 2.00098 10.0001 2.00098Z" fill="currentcolor"/>
        </symbol>
        <symbol width="20" height="20" viewBox="0 0 20 20" fill="none" id="tag-20-regular">
            <path d="M14 7C14.5523 7 15 6.55228 15 6C15 5.44772 14.5523 5 14 5C13.4477 5 13 5.44772 13 6C13 6.55228 13.4477 7 14 7ZM11.1292 2.00004C10.5951 1.99654 10.0818 2.20681 9.7037 2.58399L3.02216 9.24852C2.23941 10.0293 2.2386 11.297 3.02036 12.0788L7.96875 17.0271C8.7498 17.8082 10.0161 17.8082 10.7972 17.0271L17.428 10.3963C17.8038 10.0205 18.0146 9.51063 18.0138 8.97917L18.0065 4.02911C18.0049 2.93081 17.1179 2.0393 16.0196 2.0321L11.1292 2.00004ZM10.4099 3.29199C10.599 3.1034 10.8556 2.99827 11.1227 3.00002L16.013 3.03208C16.5622 3.03568 17.0057 3.48143 17.0065 4.03058L17.0138 8.98065C17.0142 9.24637 16.9088 9.50133 16.7209 9.68923L10.0901 16.32C9.69955 16.7106 9.06638 16.7106 8.67586 16.32L3.72746 11.3716C3.33659 10.9808 3.33699 10.3469 3.72836 9.95653L10.4099 3.29199Z" fill="currentcolor"/>
        </symbol>
        <symbol width="20" height="20" viewBox="0 0 20 20" fill="none" id="heart-pulse-20-regular">
            <path d="M10.4965 16.8028L15.2543 12H14.25C14.1275 12 14.0068 11.985 13.8901 11.9562L10.0252 15.8577L6.16208 11.9557C6.04531 11.9848 5.92389 12 5.8 12H4.79874L9.55368 16.8028C9.81404 17.0657 10.2362 17.0657 10.4965 16.8028ZM16.7239 4.31249C17.9856 5.58687 18.3116 7.44242 17.7023 9.01353C17.6361 9.00461 17.5686 9 17.5 9H16.6113C17.2826 7.72238 17.0851 6.09863 16.0133 5.01605C14.7025 3.69204 12.5964 3.69135 11.3 5.00029L10.349 5.96272C10.1534 6.16067 9.8338 6.16082 9.63801 5.96306L8.6778 4.99319C7.36984 3.67208 5.26525 3.67106 3.97186 4.97746C2.89923 6.06088 2.71314 7.71093 3.4203 9H2.5C2.4393 9 2.37944 9.00361 2.32062 9.01062C1.68337 7.42933 1.99562 5.55224 3.26122 4.2739C4.91654 2.60193 7.58595 2.57726 9.28783 4.19116C9.32175 4.22334 9.35529 4.25616 9.38843 4.28963L9.99299 4.90026L10.5894 4.29673C10.6251 4.26068 10.6612 4.22539 10.6978 4.19086C12.3961 2.5895 15.0611 2.63292 16.7239 4.31249ZM7.96154 6.30769C7.88415 6.12196 7.70298 6.00072 7.50177 6C7.30056 5.99929 7.11853 6.11925 7.03983 6.30443L5.46922 10H2.5C2.22386 10 2 10.2239 2 10.5C2 10.7761 2.22386 11 2.5 11H5.8C6.00056 11 6.18172 10.8802 6.26017 10.6956L7.49544 7.78905L9.53846 12.6923C9.6104 12.865 9.77268 12.983 9.95909 12.9983C10.1455 13.0136 10.3249 12.9236 10.424 12.765L12.5671 9.33601L13.8737 10.8293C13.9687 10.9378 14.1058 11 14.25 11H17.5C17.7761 11 18 10.7761 18 10.5C18 10.2239 17.7761 10 17.5 10H14.4769L12.8763 8.17075C12.7721 8.05167 12.6177 7.98894 12.46 8.0016C12.3023 8.01427 12.1599 8.10083 12.076 8.235L10.0892 11.414L7.96154 6.30769Z" fill="currentcolor" />
        </symbol>
        <symbol width="20" height="20" viewBox="0 0 20 20" fill="none" id="key-20-regular">
            <path d="M15 6C15 6.55228 14.5523 7 14 7C13.4477 7 13 6.55228 13 6C13 5.44772 13.4477 5 14 5C14.5523 5 15 5.44772 15 6ZM12.5 2C9.42386 2 7 4.42386 7 7.5C7 7.89668 7.04001 8.29598 7.12154 8.67456C7.17968 8.94454 7.11378 9.17912 6.98018 9.31271L2.43934 13.8536C2.15804 14.1349 2 14.5164 2 14.9142V16.5C2 17.3284 2.67157 18 3.5 18H5.5C6.32843 18 7 17.3284 7 16.5V16H8C8.55228 16 9 15.5523 9 15V14H10C10.5523 14 11 13.5523 11 13V12.8199C11.4935 12.9536 12.0069 13 12.5 13C15.5761 13 18 10.5761 18 7.5C18 4.42386 15.5761 2 12.5 2ZM8 7.5C8 4.97614 9.97614 3 12.5 3C15.0239 3 17 4.97614 17 7.5C17 10.0239 15.0239 12 12.5 12C11.8408 12 11.2274 11.9047 10.7236 11.6528C10.5686 11.5753 10.3845 11.5836 10.2371 11.6747C10.0897 11.7658 10 11.9267 10 12.1V13H9C8.44772 13 8 13.4477 8 14V15H7C6.44772 15 6 15.4477 6 16V16.5C6 16.7761 5.77614 17 5.5 17H3.5C3.22386 17 3 16.7761 3 16.5V14.9142C3 14.7816 3.05268 14.6544 3.14645 14.5607L7.68729 10.0198C8.11942 9.58768 8.20942 8.97619 8.09913 8.46404C8.03354 8.15949 8 7.83105 8 7.5Z" fill="currentcolor" />
        </symbol>
        <symbol width="20" height="20" viewBox="0 0 20 20" fill="none" id="start-add-20-regular">
            <path d="M9.10433 2.89899C9.47114 2.15574 10.531 2.15574 10.8978 2.89899L12.8282 6.81048L17.1448 7.43772C17.9651 7.55691 18.2926 8.56488 17.699 9.14342L17.1502 9.67839C16.8358 9.50531 16.5026 9.36209 16.1544 9.25257L17.001 8.42733L12.6844 7.80009C12.3587 7.75276 12.0772 7.54819 11.9315 7.25305L10.0011 3.34155L8.07062 7.25305C7.92496 7.54819 7.6434 7.75276 7.31769 7.80009L3.00109 8.42733L6.12461 11.472C6.3603 11.7017 6.46784 12.0327 6.41221 12.3571L5.67484 16.6563L9.01625 14.8996C9.04183 15.2559 9.10136 15.6029 9.19162 15.9372L6.14018 17.5414C5.40655 17.9271 4.54913 17.3041 4.68924 16.4872L5.4266 12.1881L2.30308 9.14341C1.70956 8.56488 2.03708 7.55691 2.8573 7.43772L7.17389 6.81048L9.10433 2.89899ZM19.002 14.5C19.002 16.9853 16.9872 19 14.502 19C12.0167 19 10.002 16.9853 10.002 14.5C10.002 12.0147 12.0167 10 14.502 10C16.9872 10 19.002 12.0147 19.002 14.5ZM15.002 12.5C15.002 12.2239 14.7781 12 14.502 12C14.2258 12 14.002 12.2239 14.002 12.5V14H12.502C12.2258 14 12.002 14.2239 12.002 14.5C12.002 14.7761 12.2258 15 12.502 15H14.002V16.5C14.002 16.7761 14.2258 17 14.502 17C14.7781 17 15.002 16.7761 15.002 16.5V15H16.502C16.7781 15 17.002 14.7761 17.002 14.5C17.002 14.2239 16.7781 14 16.502 14H15.002V12.5Z" fill="currentcolor" />
        </symbol>
        <symbol width="20" height="20" viewBox="0 0 20 20" fill="none" id="eye-off-20-regular">
            <path d="M2.85355 2.14645C2.65829 1.95118 2.34171 1.95118 2.14645 2.14645C1.95118 2.34171 1.95118 2.65829 2.14645 2.85355L5.6453 6.35239C3.97044 7.49179 2.7234 9.27384 2.28017 11.3979C2.22377 11.6682 2.39718 11.9331 2.6675 11.9895C2.93782 12.0459 3.20268 11.8725 3.25909 11.6021C3.6629 9.66699 4.82367 8.06291 6.36714 7.07422L7.95336 8.66045C7.07297 9.29611 6.5 10.3311 6.5 11.5C6.5 13.433 8.067 15 10 15C11.1689 15 12.2039 14.427 12.8396 13.5466L17.1464 17.8536C17.3417 18.0488 17.6583 18.0488 17.8536 17.8536C18.0488 17.6583 18.0488 17.3417 17.8536 17.1464L2.85355 2.14645ZM12.1194 12.8265C11.6773 13.5314 10.8934 14 10 14C8.61929 14 7.5 12.8807 7.5 11.5C7.5 10.6066 7.96863 9.82265 8.67348 9.38057L12.1194 12.8265ZM10.1235 8.00214L13.4979 11.3765C13.4342 9.54169 11.9583 8.06576 10.1235 8.00214ZM10 6C9.43016 6 8.87149 6.07353 8.33419 6.21285L7.53113 5.40979C8.31349 5.14331 9.14485 5 10 5C13.6934 5 16.9425 7.67312 17.7199 11.3979C17.7763 11.6682 17.6029 11.933 17.3325 11.9895C17.0622 12.0459 16.7974 11.8725 16.7409 11.6021C16.0574 8.32688 13.2057 6 10 6Z" fill="currentcolor" />
        </symbol>
        <symbol width="20" height="20" viewBox="0 0 20 20" fill="none" id="read-aloud-20-regular">
            <path d="M12.0611 2.26066C12.1933 2.01824 12.497 1.92892 12.7394 2.06115C14.6532 3.10503 17.4722 5.22245 17.9969 9.94475C18.0274 10.2192 17.8296 10.4664 17.5552 10.4969C17.2807 10.5274 17.0335 10.3296 17.003 10.0552C16.5277 5.77762 14.0134 3.89511 12.2606 2.93903C12.0182 2.8068 11.9288 2.50308 12.0611 2.26066ZM8.46285 4.31074C8.38598 4.12283 8.20311 4.00006 8.00009 4.00006C7.79706 4.00006 7.61419 4.12283 7.53732 4.31074L3.03736 15.3106C2.9328 15.5661 3.05523 15.8581 3.31081 15.9626C3.56639 16.0672 3.85834 15.9448 3.9629 15.6892L5.50011 11.9316V11.9999H10.5001V11.9316L12.0373 15.6892C12.1418 15.9448 12.4338 16.0672 12.6894 15.9626C12.9449 15.8581 13.0674 15.5661 12.9628 15.3106L8.46285 4.31074ZM10.1189 10.9999H5.88124L8.00009 5.82057L10.1189 10.9999ZM12.2481 4.56592C12.0083 4.42892 11.7029 4.51222 11.5659 4.75197C11.4289 4.99173 11.5122 5.29715 11.7519 5.43415C13.3508 6.34776 14.2739 7.95271 14.505 9.57068C14.5441 9.84404 14.7973 10.034 15.0707 9.99493C15.344 9.95588 15.534 9.70262 15.4949 9.42926C15.2261 7.54728 14.1492 5.65228 12.2481 4.56592Z" fill="currentcolor" />
        </symbol>
        <symbol width="20" height="20" viewBox="0 0 20 20" fill="none" id="more-circle-20-regular">
            <path d="M7 10C7 10.5523 6.55228 11 6 11C5.44772 11 5 10.5523 5 10C5 9.44772 5.44772 9 6 9C6.55228 9 7 9.44772 7 10ZM11 10C11 10.5523 10.5523 11 10 11C9.44772 11 9 10.5523 9 10C9 9.44772 9.44772 9 10 9C10.5523 9 11 9.44772 11 10ZM15 10C15 10.5523 14.5523 11 14 11C13.4477 11 13 10.5523 13 10C13 9.44772 13.4477 9 14 9C14.5523 9 15 9.44772 15 10ZM10 2C5.58172 2 2 5.58172 2 10C2 14.4183 5.58172 18 10 18C14.4183 18 18 14.4183 18 10C18 5.58172 14.4183 2 10 2ZM3 10C3 6.13401 6.13401 3 10 3C13.866 3 17 6.13401 17 10C17 13.866 13.866 17 10 17C6.13401 17 3 13.866 3 10Z" fill="currentcolor"/>
        </symbol>
        <symbol width="20" height="20" viewBox="0 0 20 20" fill="none" id="apps-add-in-20-regular">
            <path d="M15 3C15 2.72386 14.7761 2.5 14.5 2.5C14.2239 2.5 14 2.72386 14 3V5H12C11.7239 5 11.5 5.22386 11.5 5.5C11.5 5.77614 11.7239 6 12 6H14V8C14 8.27614 14.2239 8.5 14.5 8.5C14.7761 8.5 15 8.27614 15 8V6H17C17.2761 6 17.5 5.77614 17.5 5.5C17.5 5.22386 17.2761 5 17 5L15 5V3ZM4.5 17C3.67157 17 3 16.3284 3 15.5V4.5C3 3.67157 3.67157 3 4.5 3H9C9.82843 3 10.5 3.67157 10.5 4.5V9.5H15.5C16.3284 9.5 17 10.1716 17 11V15.5C17 16.3284 16.3284 17 15.5 17H4.5ZM10.5 10.5V16H15.5C15.7761 16 16 15.7761 16 15.5V11C16 10.7239 15.7761 10.5 15.5 10.5H10.5ZM9.5 16V10.5H4V15.5C4 15.7589 4.19675 15.9718 4.44888 15.9974C4.46569 15.9991 4.48274 16 4.5 16H9.5ZM9.5 4.5C9.5 4.22386 9.27614 4 9 4H4.5C4.22386 4 4 4.22386 4 4.5V9.5H9.5V4.5Z" fill="currentcolor" />
        </symbol>
        <symbol width="20" height="20" viewBox="0 0 20 20" fill="none" id="share-20-regular">
            <path d="M13.3298 12.8377L17.8269 8.41512L17.8841 8.34968C18.0558 8.12058 18.0367 7.78916 17.8268 7.58283L13.3297 3.16165L13.268 3.10864C12.9078 2.83964 12.3776 3.09805 12.3776 3.57782V5.70757L12.153 5.72268C8.59039 6.00547 6.50344 8.25989 6.00472 12.3501C5.94067 12.8754 6.54318 13.2042 6.93261 12.8564C8.36448 11.5779 9.84382 10.784 11.3776 10.4657C11.6236 10.4147 11.871 10.3759 12.1199 10.3493L12.3776 10.3261V12.4216L12.3829 12.5039C12.4429 12.9566 12.992 13.1699 13.3298 12.8377ZM12.2263 6.72L13.3776 6.64256V4.61104L16.8238 7.99905L13.3776 11.3882V9.23223L12.022 9.35403L12.0136 9.35493C10.3113 9.53692 8.70337 10.2189 7.18674 11.3555C7.48493 10.0174 7.99417 9.01008 8.6632 8.28852C9.49235 7.39426 10.6526 6.84605 12.2263 6.72ZM5.5 4C4.11929 4 3 5.11929 3 6.5V14.5C3 15.8807 4.11929 17 5.5 17H13.5C14.8807 17 16 15.8807 16 14.5V13.5C16 13.2239 15.7761 13 15.5 13C15.2239 13 15 13.2239 15 13.5V14.5C15 15.3284 14.3284 16 13.5 16H5.5C4.67157 16 4 15.3284 4 14.5V6.5C4 5.67157 4.67157 5 5.5 5H8.5C8.77614 5 9 4.77614 9 4.5C9 4.22386 8.77614 4 8.5 4H5.5Z" fill="currentcolor" />
        </symbol>
        <symbol width="20" height="20" viewBox="0 0 20 20" fill="none" id="shopping-20-regular">
            <path d="M12.5002 6.49882C13.0525 6.49882 13.5002 6.05111 13.5002 5.49882C13.5002 4.94654 13.0525 4.49882 12.5002 4.49882C11.9479 4.49882 11.5002 4.94654 11.5002 5.49882C11.5002 6.05111 11.9479 6.49882 12.5002 6.49882Z" fill="currentcolor" />
            <path fill-rule="evenodd" clip-rule="evenodd" d="M13.8762 1.99609C14.5421 1.99609 15.1363 2.30961 15.5171 2.7985C16.4409 2.77199 17.2962 3.36721 17.5684 4.28685L18.9067 8.80837C19.0685 9.35499 18.9987 9.94407 18.7137 10.4378L14.5014 17.7337C13.9491 18.6903 12.7259 19.018 11.7693 18.4657L8.99042 16.8613C8.2052 17.4888 7.05688 17.4389 6.32948 16.7115L1.37973 11.7617C0.598682 10.9807 0.598684 9.71433 1.37973 8.93328L7.70806 2.60496C8.0979 2.21511 8.62666 1.99609 9.17799 1.99609H13.8762ZM15.9543 4.0223C15.953 3.96869 15.9496 3.9156 15.9443 3.8631C16.2551 3.97657 16.509 4.23097 16.6095 4.57066L17.9478 9.09218C18.0318 9.37585 17.9956 9.68156 17.8476 9.93776L13.6353 17.2337C13.3592 17.712 12.7476 17.8759 12.2693 17.5997L9.73363 16.1357L15.469 10.4004C15.8718 9.99761 16.0916 9.44724 16.0772 8.87784L15.9543 4.0223ZM14.9546 4.0476C14.9398 3.46261 14.4613 2.99609 13.8762 2.99609H9.17799C8.89187 2.99609 8.61748 3.10975 8.41516 3.31207L2.08684 9.64039C1.69632 10.0309 1.69631 10.6641 2.08684 11.0546L7.03659 16.0043C7.42711 16.3949 8.06027 16.3949 8.4508 16.0043L14.7619 9.69326C14.9709 9.48425 15.085 9.19863 15.0775 8.90314L14.9546 4.0476Z" fill="currentcolor" />
        </symbol>
        <symbol width="21" height="21" viewBox="0 0 21 21" fill="none" id="copilot-20-regular">
            <path d="M6.23319 2.83447H12.4454C13.4989 2.83447 14.4264 3.52844 14.7238 4.53907L15.1929 6.13348C15.3537 6.67993 15.8327 7.06647 16.3922 7.11515H16.6813C17.5689 7.11515 18.2541 7.3668 18.7085 7.88279C19.1511 8.38531 19.2974 9.05285 19.3071 9.72155C19.3262 11.0425 18.8095 12.6834 18.3978 13.9899C18.0395 15.1268 17.5792 16.3074 16.9614 17.2122C16.3461 18.1133 15.5061 18.8351 14.3791 18.8351H8.18099L8.1731 18.835H8.16678C7.11331 18.835 6.18574 18.1411 5.88838 17.1304L5.41924 15.536C5.25853 14.9898 4.77983 14.6033 4.22071 14.5544H3.93103C3.04342 14.5544 2.35824 14.3028 1.90381 13.7868C1.46124 13.2842 1.31487 12.6167 1.3052 11.948C1.2861 10.6271 1.8028 8.98612 2.21453 7.67964C2.57282 6.54273 3.0331 5.36219 3.65093 4.45735C4.26621 3.55625 5.10623 2.83447 6.23319 2.83447ZM3.16829 7.98021C2.7408 9.33671 2.28882 10.808 2.3051 11.9336C2.31312 12.4881 2.43544 12.8774 2.65427 13.1258C2.86124 13.3609 3.23016 13.5544 3.93103 13.5544H6.55828C7.16755 13.5544 7.7043 13.154 7.87827 12.5697C8.34787 10.9925 9.14409 8.33077 9.77253 6.29382L9.80552 6.1868C9.95467 5.70288 10.099 5.23463 10.2544 4.81923C10.3868 4.46535 10.535 4.12782 10.7157 3.83447H6.23319C5.58926 3.83447 5.01257 4.23655 4.47677 5.02125C3.94352 5.80221 3.51836 6.8694 3.16829 7.98021ZM6.0406 14.5544C6.18807 14.7632 6.30344 14.9984 6.37858 15.2537L6.84771 16.8482C7.01987 17.4333 7.55688 17.835 8.16678 17.835H8.19293C8.5519 17.8313 8.7957 17.662 8.94682 17.457C9.11395 17.2304 9.2665 16.9136 9.42129 16.4999C9.5659 16.1134 9.70182 15.6725 9.85395 15.1791L9.88421 15.0809C9.94922 14.8702 10.016 14.6528 10.0841 14.4305C9.84915 14.5078 9.5994 14.5491 9.34227 14.5491H6.71689C6.66439 14.5526 6.61149 14.5544 6.55828 14.5544H6.0406ZM8.49966 13.5491H9.34227C9.89531 13.5491 10.3893 13.2186 10.6047 12.7191C11.042 11.2731 11.4754 9.82292 11.7756 8.81453C11.851 8.56115 11.9661 8.32777 12.1127 8.12035H11.2699C10.7173 8.12035 10.2235 8.4504 10.0079 8.94934C9.57047 10.3957 9.13701 11.8464 8.83669 12.855C8.76126 13.1084 8.64627 13.3417 8.49966 13.5491ZM10.5282 7.23896C10.7631 7.1617 11.0128 7.12035 11.2699 7.12035H13.8963C13.9485 7.1169 14.0011 7.11515 14.054 7.11515H14.5716C14.4241 6.9063 14.3087 6.67114 14.2336 6.41575L13.7645 4.82134C13.5923 4.23624 13.0553 3.83447 12.4454 3.83447H12.4306C12.0655 3.83471 11.8182 4.00546 11.6655 4.21251C11.4983 4.43914 11.3458 4.75593 11.191 5.16964C11.0464 5.55614 10.9105 5.99703 10.7583 6.49048L10.7281 6.58862C10.6631 6.79931 10.5963 7.01672 10.5282 7.23896ZM17.444 13.6893C17.8715 12.3328 18.3235 10.8616 18.3072 9.736C18.2992 9.18145 18.1769 8.79218 17.958 8.54371C17.7511 8.3087 17.3821 8.11515 16.6813 8.11515H14.054C13.4447 8.11515 12.908 8.51556 12.734 9.09988C12.2644 10.6771 11.4682 13.3388 10.8398 15.3757L10.8068 15.4828C10.6576 15.9667 10.5133 16.4349 10.3579 16.8503C10.2255 17.2042 10.0773 17.5417 9.8966 17.8351H14.3791C15.023 17.8351 15.5997 17.433 16.1355 16.6483C16.6688 15.8673 17.0939 14.8002 17.444 13.6893Z" fill="currentcolor" />
        </symbol>
        <symbol width="24" height="24" viewBox="0 0 24 24" fill="none" id="headphones-24-regular">
            <path d="M22 12V19C22 20.5977 20.7511 21.9037 19.1763 21.9949L19 22H16C15.4872 22 15.0645 21.614 15.0067 21.1166L15 21V15C15 14.4872 15.386 14.0645 15.8834 14.0067L16 14H20.5V12C20.5 7.30558 16.6944 3.5 12 3.5C7.30558 3.5 3.5 7.30558 3.5 12V14H8C8.55228 14 9 14.4477 9 15V21C9 21.5523 8.55228 22 8 22H5C3.34315 22 2 20.6569 2 19V12C2 6.47715 6.47715 2 12 2C17.5228 2 22 6.47715 22 12V19V12ZM7.5 15.5H3.5V19C3.5 19.8284 4.17157 20.5 5 20.5H7.5V15.5ZM20.5 15.5H16.5V20.5H19C19.7797 20.5 20.4204 19.9051 20.4931 19.1445L20.5 19V15.5Z" fill="currentcolor"/>
        </symbol>
        <symbol width="24" height="24" viewBox="0 0 24 24" fill="none" id="search-24-regular">
            <path d="M4.5 10C4.5 6.96243 6.96243 4.5 10 4.5C13.0376 4.5 15.5 6.96243 15.5 10C15.5 13.0376 13.0376 15.5 10 15.5C6.96243 15.5 4.5 13.0376 4.5 10ZM10 3C6.13401 3 3 6.13401 3 10C3 13.866 6.13401 17 10 17C11.6628 17 13.1902 16.4202 14.3911 15.4518L19.7197 20.7803C20.0126 21.0732 20.4874 21.0732 20.7803 20.7803C21.0732 20.4874 21.0732 20.0126 20.7803 19.7197L15.4518 14.3911C16.4202 13.1902 17 11.6628 17 10C17 6.13401 13.866 3 10 3Z" fill="currentcolor"/>
        </symbol>
        <symbol width="24" height="24" viewBox="0 0 24 24" fill="none" id="settings-24-regular">
            <path d="M12.0122 2.25C12.7462 2.25846 13.4773 2.34326 14.1937 2.50304C14.5064 2.57279 14.7403 2.83351 14.7758 3.15196L14.946 4.67881C15.0231 5.37986 15.615 5.91084 16.3206 5.91158C16.5103 5.91188 16.6979 5.87238 16.8732 5.79483L18.2738 5.17956C18.5651 5.05159 18.9055 5.12136 19.1229 5.35362C20.1351 6.43464 20.8889 7.73115 21.3277 9.14558C21.4223 9.45058 21.3134 9.78203 21.0564 9.9715L19.8149 10.8866C19.4607 11.1468 19.2516 11.56 19.2516 11.9995C19.2516 12.4389 19.4607 12.8521 19.8157 13.1129L21.0582 14.0283C21.3153 14.2177 21.4243 14.5492 21.3297 14.8543C20.8911 16.2685 20.1377 17.5649 19.1261 18.6461C18.9089 18.8783 18.5688 18.9483 18.2775 18.8206L16.8712 18.2045C16.4688 18.0284 16.0068 18.0542 15.6265 18.274C15.2463 18.4937 14.9933 18.8812 14.945 19.3177L14.7759 20.8444C14.741 21.1592 14.5122 21.4182 14.204 21.4915C12.7556 21.8361 11.2465 21.8361 9.79803 21.4915C9.48991 21.4182 9.26105 21.1592 9.22618 20.8444L9.05736 19.32C9.00777 18.8843 8.75434 18.498 8.37442 18.279C7.99451 18.06 7.5332 18.0343 7.1322 18.2094L5.72557 18.8256C5.43422 18.9533 5.09403 18.8833 4.87678 18.6509C3.86462 17.5685 3.11119 16.2705 2.6732 14.8548C2.57886 14.5499 2.68786 14.2186 2.94485 14.0293L4.18818 13.1133C4.54232 12.8531 4.75147 12.4399 4.75147 12.0005C4.75147 11.561 4.54232 11.1478 4.18771 10.8873L2.94516 9.97285C2.6878 9.78345 2.5787 9.45178 2.67337 9.14658C3.11212 7.73215 3.86594 6.43564 4.87813 5.35462C5.09559 5.12236 5.43594 5.05259 5.72724 5.18056L7.12762 5.79572C7.53056 5.97256 7.9938 5.94585 8.37577 5.72269C8.75609 5.50209 9.00929 5.11422 9.05817 4.67764L9.22824 3.15196C9.26376 2.83335 9.49786 2.57254 9.8108 2.50294C10.5281 2.34342 11.26 2.25865 12.0122 2.25ZM12.0124 3.7499C11.5583 3.75524 11.1056 3.79443 10.6578 3.86702L10.5489 4.84418C10.4471 5.75368 9.92003 6.56102 9.13042 7.01903C8.33597 7.48317 7.36736 7.53903 6.52458 7.16917L5.62629 6.77456C5.05436 7.46873 4.59914 8.25135 4.27852 9.09168L5.07632 9.67879C5.81513 10.2216 6.25147 11.0837 6.25147 12.0005C6.25147 12.9172 5.81513 13.7793 5.0771 14.3215L4.27805 14.9102C4.59839 15.752 5.05368 16.5361 5.626 17.2316L6.53113 16.8351C7.36923 16.4692 8.33124 16.5227 9.12353 16.9794C9.91581 17.4361 10.4443 18.2417 10.548 19.1526L10.657 20.1365C11.5466 20.2878 12.4555 20.2878 13.3451 20.1365L13.4541 19.1527C13.5549 18.2421 14.0828 17.4337 14.876 16.9753C15.6692 16.5168 16.6332 16.463 17.4728 16.8305L18.3772 17.2267C18.949 16.5323 19.4041 15.7495 19.7247 14.909L18.9267 14.3211C18.1879 13.7783 17.7516 12.9162 17.7516 11.9995C17.7516 11.0827 18.1879 10.2206 18.9258 9.67847L19.7227 9.09109C19.4021 8.25061 18.9468 7.46784 18.3748 6.77356L17.4783 7.16737C17.113 7.32901 16.7178 7.4122 16.3187 7.41158C14.849 7.41004 13.6155 6.30355 13.4551 4.84383L13.3462 3.8667C12.9007 3.7942 12.4526 3.75512 12.0124 3.7499ZM11.9997 8.24995C14.0708 8.24995 15.7497 9.92888 15.7497 12C15.7497 14.071 14.0708 15.75 11.9997 15.75C9.92863 15.75 8.2497 14.071 8.2497 12C8.2497 9.92888 9.92863 8.24995 11.9997 8.24995ZM11.9997 9.74995C10.7571 9.74995 9.7497 10.7573 9.7497 12C9.7497 13.2426 10.7571 14.25 11.9997 14.25C13.2423 14.25 14.2497 13.2426 14.2497 12C14.2497 10.7573 13.2423 9.74995 11.9997 9.74995Z" fill="currentcolor"/>
        </symbol>
        <symbol width="16" height="16" viewBox="0 0 16 16" fill="none" id="settings-16-regular">
            <path d="M7.99994 6C6.89537 6 5.99994 6.89543 5.99994 8C5.99994 9.10457 6.89537 10 7.99994 10C9.10451 10 9.99994 9.10457 9.99994 8C9.99994 6.89543 9.10451 6 7.99994 6ZM6.99994 8C6.99994 7.44772 7.44765 7 7.99994 7C8.55222 7 8.99994 7.44772 8.99994 8C8.99994 8.55228 8.55222 9 7.99994 9C7.44765 9 6.99994 8.55228 6.99994 8ZM10.618 4.39833C10.233 4.46825 9.86392 4.21413 9.7937 3.83074L9.53397 2.41496C9.50816 2.27427 9.39961 2.16301 9.25912 2.13325C8.84818 2.04621 8.42685 2.00195 8 2.00195C7.57289 2.00195 7.1513 2.04627 6.74013 2.13341C6.5996 2.1632 6.49104 2.27452 6.46529 2.41527L6.20629 3.8308C6.1994 3.86844 6.18942 3.90551 6.17647 3.9416C6.04476 4.30859 5.6392 4.49978 5.27062 4.36863L3.91115 3.88463C3.77603 3.83652 3.62511 3.87431 3.52891 3.98033C2.96005 4.60729 2.52892 5.34708 2.2672 6.15302C2.22305 6.28899 2.26562 6.43805 2.37502 6.53053L3.47694 7.46206C3.50626 7.48685 3.53352 7.51399 3.55843 7.5432C3.81177 7.84027 3.77528 8.28558 3.47693 8.53783L2.37502 9.46935C2.26562 9.56183 2.22305 9.71089 2.2672 9.84685C2.52892 10.6528 2.96005 11.3926 3.52891 12.0196C3.62511 12.1256 3.77603 12.1634 3.91115 12.1153L5.27068 11.6312C5.30687 11.6184 5.3441 11.6084 5.38196 11.6015C5.76701 11.5316 6.13608 11.7857 6.2063 12.1691L6.46529 13.5846C6.49104 13.7254 6.5996 13.8367 6.74013 13.8665C7.1513 13.9536 7.57289 13.9979 8 13.9979C8.42685 13.9979 8.84818 13.9537 9.25912 13.8666C9.39961 13.8369 9.50816 13.7256 9.53397 13.5849L9.79368 12.1692C9.8006 12.1314 9.81058 12.0944 9.82353 12.0583C9.95524 11.6913 10.3608 11.5001 10.7294 11.6312L12.0888 12.1153C12.224 12.1634 12.3749 12.1256 12.4711 12.0196C13.04 11.3926 13.4711 10.6528 13.7328 9.84685C13.777 9.71089 13.7344 9.56183 13.625 9.46935L12.5231 8.53782C12.4937 8.51303 12.4665 8.48589 12.4416 8.45667C12.1882 8.1596 12.2247 7.71429 12.5231 7.46205L13.625 6.53053C13.7344 6.43805 13.777 6.28899 13.7328 6.15302C13.4711 5.34708 13.04 4.60729 12.4711 3.98033C12.3749 3.87431 12.224 3.83652 12.0888 3.88463L10.7293 4.36865C10.6931 4.38152 10.6559 4.39146 10.618 4.39833ZM3.99863 4.97726L4.93522 5.3107C5.82017 5.62559 6.79872 5.16815 7.11769 4.2794C7.14903 4.19207 7.17324 4.1021 7.18996 4.01078L7.36738 3.04113C7.5757 3.01512 7.78684 3.00195 8 3.00195C8.213 3.00195 8.42397 3.0151 8.63214 3.04107L8.81011 4.01117C8.98053 4.9408 9.87266 5.55003 10.7967 5.38225C10.8877 5.36572 10.9775 5.34176 11.0647 5.31073L12.0014 4.97726C12.2564 5.31084 12.4684 5.67476 12.6319 6.06064L11.8774 6.6984C11.1566 7.30787 11.0675 8.38649 11.6807 9.10555C11.7408 9.17609 11.8067 9.24166 11.8775 9.3015L12.6319 9.93924C12.4684 10.3251 12.2564 10.689 12.0014 11.0226L11.0646 10.6891C10.1797 10.3742 9.20128 10.8317 8.88231 11.7205C8.85096 11.8078 8.82677 11.8978 8.81004 11.9891L8.63214 12.9588C8.42397 12.9848 8.213 12.9979 8 12.9979C7.78684 12.9979 7.5757 12.9848 7.36738 12.9587L7.18994 11.989C7.01965 11.0592 6.12743 10.4498 5.2033 10.6176C5.11227 10.6342 5.0225 10.6581 4.93528 10.6892L3.99863 11.0226C3.74357 10.689 3.53161 10.3251 3.36814 9.93924L4.12257 9.30148C4.84343 8.69201 4.93254 7.61339 4.31933 6.89433C4.25917 6.82378 4.19332 6.75822 4.12254 6.69838L3.36814 6.06064C3.53161 5.67476 3.74357 5.31084 3.99863 4.97726Z" fill="currentcolor"/>
        </symbol>
        <symbol width="24" height="24" viewBox="0 0 24 24" fill="none" id="grid-dots-24-regular">
            <path d="M12 17.5C12.8284 17.5 13.5 18.1716 13.5 19C13.5 19.8284 12.8284 20.5 12 20.5C11.1716 20.5 10.5 19.8284 10.5 19C10.5 18.1716 11.1716 17.5 12 17.5ZM19 17.5C19.8284 17.5 20.5 18.1716 20.5 19C20.5 19.8284 19.8284 20.5 19 20.5C18.1716 20.5 17.5 19.8284 17.5 19C17.5 18.1716 18.1716 17.5 19 17.5ZM5 17.5C5.82843 17.5 6.5 18.1716 6.5 19C6.5 19.8284 5.82843 20.5 5 20.5C4.17157 20.5 3.5 19.8284 3.5 19C3.5 18.1716 4.17157 17.5 5 17.5ZM12 10.5C12.8284 10.5 13.5 11.1716 13.5 12C13.5 12.8284 12.8284 13.5 12 13.5C11.1716 13.5 10.5 12.8284 10.5 12C10.5 11.1716 11.1716 10.5 12 10.5ZM19 10.5C19.8284 10.5 20.5 11.1716 20.5 12C20.5 12.8284 19.8284 13.5 19 13.5C18.1716 13.5 17.5 12.8284 17.5 12C17.5 11.1716 18.1716 10.5 19 10.5ZM5 10.5C5.82843 10.5 6.5 11.1716 6.5 12C6.5 12.8284 5.82843 13.5 5 13.5C4.17157 13.5 3.5 12.8284 3.5 12C3.5 11.1716 4.17157 10.5 5 10.5ZM12 3.5C12.8284 3.5 13.5 4.17157 13.5 5C13.5 5.82843 12.8284 6.5 12 6.5C11.1716 6.5 10.5 5.82843 10.5 5C10.5 4.17157 11.1716 3.5 12 3.5ZM19 3.5C19.8284 3.5 20.5 4.17157 20.5 5C20.5 5.82843 19.8284 6.5 19 6.5C18.1716 6.5 17.5 5.82843 17.5 5C17.5 4.17157 18.1716 3.5 19 3.5ZM5 3.5C5.82843 3.5 6.5 4.17157 6.5 5C6.5 5.82843 5.82843 6.5 5 6.5C4.17157 6.5 3.5 5.82843 3.5 5C3.5 4.17157 4.17157 3.5 5 3.5Z" fill="currentcolor"/>
        </symbol>
        <symbol width="20" height="20" viewBox="0 0 20 20" fill="none" id="image-20-regular">
            <path d="M14 7.5C14 8.32843 13.3284 9 12.5 9C11.6716 9 11 8.32843 11 7.5C11 6.67157 11.6716 6 12.5 6C13.3284 6 14 6.67157 14 7.5ZM13 7.5C13 7.22386 12.7761 7 12.5 7C12.2239 7 12 7.22386 12 7.5C12 7.77614 12.2239 8 12.5 8C12.7761 8 13 7.77614 13 7.5ZM3 6C3 4.34315 4.34315 3 6 3H14C15.6569 3 17 4.34315 17 6V14C17 15.6569 15.6569 17 14 17H6C4.34315 17 3 15.6569 3 14V6ZM6 4C4.89543 4 4 4.89543 4 6V14C4 14.3726 4.10191 14.7215 4.27937 15.0201L8.94868 10.432C9.53227 9.85859 10.4677 9.85859 11.0513 10.432L15.7206 15.0201C15.8981 14.7215 16 14.3726 16 14V6C16 4.89543 15.1046 4 14 4H6ZM6 16H14C14.3692 16 14.7149 15.9 15.0118 15.7256L10.3504 11.1453C10.1559 10.9542 9.84409 10.9542 9.64956 11.1453L4.98824 15.7256C5.28505 15.9 5.63085 16 6 16Z" fill="currentcolor"/>
        </symbol>
        <symbol width="20" height="20" viewBox="0 0 20 20" fill="none" id="arrow-maximize-20-regular">
            <path d="M10.5 3L16.5428 3.00182L16.6281 3.01661L16.691 3.03779L16.767 3.07719L16.8221 3.11759L16.8824 3.17788L16.9112 3.21534L16.9533 3.2886L16.9834 3.37186L16.9979 3.45421L17 3.5V9.5C17 9.77614 16.7761 10 16.5 10C16.2545 10 16.0504 9.82312 16.0081 9.58988L16 9.5V4.706L4.706 16H9.5C9.74546 16 9.94961 16.1769 9.99194 16.4101L10 16.5C10 16.7455 9.82312 16.9496 9.58988 16.9919L9.5 17L3.47964 16.9996L3.4112 16.9921L3.30896 16.9622L3.23299 16.9228L3.17786 16.8824L3.11758 16.8221L3.08884 16.7847L3.04674 16.7114L3.01661 16.6281L3.01109 16.605C3.00383 16.5713 3 16.5361 3 16.5L3.00546 16.5739L3.00182 16.5428L3 10.5C3 10.2239 3.22386 10 3.5 10C3.74546 10 3.94961 10.1769 3.99194 10.4101L4 10.5V15.292L15.292 4H10.5C10.2545 4 10.0504 3.82312 10.0081 3.58988L10 3.5C10 3.22386 10.2239 3 10.5 3Z" fill="currentcolor"/>
        </symbol>
        <symbol width="20" height="20" viewBox="0 0 20 20" fill="none" id="star-edit-20-regular">
            <path d="M10.8978 2.89899C10.531 2.15574 9.47114 2.15574 9.10433 2.89899L7.17389 6.81048L2.8573 7.43772C2.03708 7.55691 1.70956 8.56488 2.30308 9.14341L5.4266 12.1881L4.68924 16.4872C4.54913 17.3041 5.40655 17.9271 6.14018 17.5414L9.5661 15.7403C9.72634 15.3409 9.96616 14.9766 10.2726 14.6701L10.3632 14.5795C10.0953 14.4754 9.79335 14.4911 9.53572 14.6265L5.67484 16.6563L6.41221 12.3571C6.46784 12.0327 6.3603 11.7017 6.12461 11.472L3.00109 8.42733L7.31769 7.80009C7.6434 7.75276 7.92496 7.54819 8.07062 7.25305L10.0011 3.34155L11.9315 7.25305C12.0772 7.54819 12.3587 7.75276 12.6844 7.80009L17.001 8.42733L16.2822 9.12799C16.7639 8.97925 17.2771 8.96021 17.7668 9.07087C18.2651 8.48446 17.9317 7.55207 17.1448 7.43772L12.8282 6.81048L10.8978 2.89899ZM15.8092 10.5478L10.9798 15.3772C10.6982 15.6588 10.4984 16.0116 10.4018 16.3979L10.0274 17.8959C9.86451 18.5473 10.4546 19.1373 11.106 18.9745L12.6039 18.6C12.9902 18.5034 13.343 18.3036 13.6246 18.0221L18.454 13.1926C19.1843 12.4623 19.1843 11.2782 18.454 10.5478C17.7237 9.81747 16.5395 9.81747 15.8092 10.5478Z" fill="currentcolor"/>
        </symbol>
        <symbol width="20" height="20" viewBox="0 0 20 20" fill="none" id="options-20-regular">
            <path d="M14.95 5C14.7184 3.85888 13.7095 3 12.5 3C11.2905 3 10.2816 3.85888 10.05 5H2.5C2.22386 5 2 5.22386 2 5.5C2 5.77614 2.22386 6 2.5 6H10.05C10.2816 7.14112 11.2905 8 12.5 8C13.7297 8 14.752 7.11217 14.961 5.94254C14.9575 5.96177 14.9539 5.98093 14.95 6H17.5C17.7761 6 18 5.77614 18 5.5C18 5.22386 17.7761 5 17.5 5H14.95ZM12.5 7C11.6716 7 11 6.32843 11 5.5C11 4.67157 11.6716 4 12.5 4C13.3284 4 14 4.67157 14 5.5C14 6.32843 13.3284 7 12.5 7ZM9.94999 14C9.71836 12.8589 8.70948 12 7.5 12C6.29052 12 5.28164 12.8589 5.05001 14H2.5C2.22386 14 2 14.2239 2 14.5C2 14.7761 2.22386 15 2.5 15H5.05001C5.28164 16.1411 6.29052 17 7.5 17C8.70948 17 9.71836 16.1411 9.94999 15H17.5C17.7761 15 18 14.7761 18 14.5C18 14.2239 17.7761 14 17.5 14H9.94999ZM7.5 16C6.67157 16 6 15.3284 6 14.5C6 13.6716 6.67157 13 7.5 13C8.32843 13 9 13.6716 9 14.5C9 15.3284 8.32843 16 7.5 16Z" fill="currentcolor"/>
        </symbol>
        <symbol width="20" height="20" viewBox="0 0 20 20" fill="none" id="dismiss-24-regular">
            <path d="M2.39705 2.55379L2.46967 2.46967C2.73594 2.2034 3.1526 2.1792 3.44621 2.39705L3.53033 2.46967L10 8.939L16.4697 2.46967C16.7626 2.17678 17.2374 2.17678 17.5303 2.46967C17.8232 2.76256 17.8232 3.23744 17.5303 3.53033L11.061 10L17.5303 16.4697C17.7966 16.7359 17.8208 17.1526 17.6029 17.4462L17.5303 17.5303C17.2641 17.7966 16.8474 17.8208 16.5538 17.6029L16.4697 17.5303L10 11.061L3.53033 17.5303C3.23744 17.8232 2.76256 17.8232 2.46967 17.5303C2.17678 17.2374 2.17678 16.7626 2.46967 16.4697L8.939 10L2.46967 3.53033C2.2034 3.26406 2.1792 2.8474 2.39705 2.55379L2.46967 2.46967L2.39705 2.55379Z" fill="currentcolor"/>
        </symbol>
        <symbol width="20" height="20" viewBox="0 0 20 20" fill="none" id="add-24-regular">
            <path d="M9.74984 1C10.1295 1 10.4434 1.28201 10.4931 1.64808L10.5 1.74985L10.5012 9H17.7543C18.1685 9 18.5043 9.33579 18.5043 9.75C18.5043 10.1297 18.2221 10.4435 17.8561 10.4932L17.7543 10.5H10.5012L10.5032 17.7491C10.5033 18.1633 10.1676 18.4993 9.7534 18.4993C9.3737 18.4993 9.05985 18.2173 9.01011 17.8512L9.00324 17.7494L9.0012 10.5H1.7522C1.33798 10.5 1.0022 10.1642 1.0022 9.75C1.0022 9.3703 1.28435 9.05651 1.65043 9.00685L1.7522 9H9.0012L8.99999 1.75015C8.99991 1.33594 9.33563 1 9.74984 1Z" fill="currentcolor"/>
        </symbol>
        <symbol width="24" height="24" viewBox="0 0 24 24" fill="none" id="chevron-circle-down-24-filled">
            <path d="M12 2C17.5228 2 22 6.47715 22 12C22 17.5228 17.5228 22 12 22C6.47715 22 2 17.5228 2 12C2 6.47715 6.47715 2 12 2ZM7.46967 9.96967C7.17678 10.2626 7.17678 10.7374 7.46967 11.0303L11.4697 15.0303C11.7626 15.3232 12.2374 15.3232 12.5303 15.0303L16.5303 11.0303C16.8232 10.7374 16.8232 10.2626 16.5303 9.96967C16.2374 9.67678 15.7626 9.67678 15.4697 9.96967L12 13.4393L8.53033 9.96967C8.23744 9.67678 7.76256 9.67678 7.46967 9.96967Z" fill="currentcolor"/>
        </symbol>
        <symbol width="29" height="28" viewBox="0 0 29 28" fill="none" id="rewards-24-regular">
            <path d="M23.7915 2.33398C24.9191 2.33398 25.8332 3.24807 25.8332 4.37565V7.92548C25.8332 9.12033 25.1692 10.2162 24.1101 10.7693L16.7813 14.5964C18.69 15.5551 19.9998 17.5307 19.9998 19.8123C19.9998 23.0339 17.3881 25.6456 14.1665 25.6456C10.9448 25.6456 8.33315 23.0339 8.33315 19.8123C8.33315 17.5307 9.64298 15.5551 11.5517 14.5964L4.22291 10.7693C3.1638 10.2162 2.49982 9.12033 2.49982 7.92548V4.37565C2.49982 3.24807 3.4139 2.33398 4.54148 2.33398H23.7915ZM14.1665 15.7289C11.9113 15.7289 10.0832 17.5571 10.0832 19.8123C10.0832 22.0674 11.9113 23.8956 14.1665 23.8956C16.4216 23.8956 18.2498 22.0674 18.2498 19.8123C18.2498 17.5571 16.4216 15.7289 14.1665 15.7289ZM18.2498 4.08282H10.0832V11.8552L14.0315 13.9177C14.1161 13.9619 14.2169 13.9619 14.3015 13.9177L18.2498 11.854V4.08282ZM8.33315 4.08282L4.54148 4.08398C4.3804 4.08398 4.24982 4.21457 4.24982 4.37565V7.92548C4.24982 8.46859 4.55163 8.96671 5.03304 9.21814L8.33315 10.9405V4.08282ZM23.7915 4.08398L19.9998 4.08282V10.9405L23.2999 9.21814C23.7813 8.96671 24.0832 8.46859 24.0832 7.92548V4.37565C24.0832 4.21457 23.9526 4.08398 23.7915 4.08398Z" fill="currentcolor" />
        </symbol>
        <symbol width="24" height="24" viewBox="0 0 24 24" fill="none" id="arrow-up-24-regular">
            <path d="M4.20938 10.7327C3.92369 11.0326 3.93523 11.5074 4.23516 11.7931C4.53509 12.0787 5.00982 12.0672 5.29551 11.7673L11.25 5.516V20.25C11.25 20.6642 11.5858 21 12 21C12.4142 21 12.75 20.6642 12.75 20.25V5.51565L18.7048 11.7673C18.9905 12.0672 19.4652 12.0787 19.7652 11.7931C20.0651 11.5074 20.0766 11.0326 19.791 10.7327L12.7243 3.31379C12.5632 3.14474 12.3578 3.04477 12.1443 3.01386C12.0976 3.00477 12.0494 3 12 3C11.9503 3 11.9017 3.00483 11.8547 3.01406C11.6417 3.04518 11.4368 3.14509 11.2761 3.31379L4.20938 10.7327Z" fill="currentcolor"/>
        </symbol>
        <symbol width="20" height="20" viewBox="0 0 20 20" fill="none" id="thumb-like-20-regular">
            <path d="M10.052 2.29515C10.3913 1.31786 11.6841 0.867587 12.4829 1.70471C12.6455 1.87514 12.8081 2.05929 12.9176 2.22352C13.2379 2.70403 13.3725 3.33682 13.4218 3.95318C13.4721 4.58132 13.438 5.25544 13.3738 5.86571C13.3093 6.47832 13.2129 7.04046 13.1328 7.44864C13.1294 7.46633 13.1259 7.48374 13.1225 7.50087H14.006C15.8777 7.50087 17.2924 9.19601 16.9576 11.0375L16.2737 14.7992C15.8017 17.3952 13.2078 19.0299 10.6622 18.3357L5.06251 16.8085C4.14894 16.5593 3.45455 15.8154 3.26885 14.8869L2.91581 13.1217C2.63809 11.7331 3.69991 10.5633 4.82905 10.117C5.15163 9.98948 5.44337 9.82765 5.66974 9.62683C7.37583 8.11332 7.99442 6.90374 9.05406 4.77782C9.4084 4.06692 9.77205 3.10141 10.052 2.29515ZM12.0165 7.87949L12.0169 7.87794L12.0187 7.8706L12.0262 7.8395C12.0328 7.81166 12.0426 7.7699 12.0549 7.7158C12.0793 7.60756 12.1135 7.45017 12.1515 7.25622C12.2277 6.86753 12.3188 6.33591 12.3793 5.76102C12.4401 5.18379 12.4685 4.57666 12.425 4.03293C12.3806 3.47742 12.2652 3.0477 12.0855 2.77822C12.0264 2.68957 11.9138 2.5569 11.7594 2.39508C11.5605 2.18663 11.1314 2.23515 10.9967 2.62314C10.7141 3.43696 10.3334 4.45281 9.94904 5.22391C8.88216 7.36435 8.19326 8.72494 6.33336 10.3749C5.99304 10.6768 5.58878 10.892 5.19665 11.047C4.31631 11.3949 3.75035 12.1954 3.89639 12.9256L4.24943 14.6907C4.36085 15.2479 4.77748 15.6942 5.32562 15.8437L10.9254 17.3709C12.9052 17.9109 14.9227 16.6394 15.2898 14.6203L15.9738 10.8586C16.197 9.63096 15.2538 8.50087 14.006 8.50087H12.5015C12.3476 8.50087 12.2022 8.42993 12.1074 8.30857C12.0127 8.18725 11.9792 8.02882 12.0165 7.87949C12.0165 7.87945 12.0165 7.87952 12.0165 7.87949Z" fill="currentcolor"/>
        </symbol>
        <symbol width="20" height="20" viewBox="0 0 20 20" fill="none" id="thumb-dislike-20-regular">
            <path d="M10.052 17.7064C10.3913 18.6837 11.6841 19.134 12.4829 18.2969C12.6455 18.1265 12.8081 17.9423 12.9176 17.7781C13.2379 17.2976 13.3725 16.6648 13.4218 16.0484C13.4721 15.4203 13.438 14.7462 13.3738 14.1359C13.3093 13.5233 13.2129 12.9611 13.1328 12.553C13.1294 12.5353 13.1259 12.5179 13.1225 12.5007H14.006C15.8777 12.5007 17.2924 10.8056 16.9576 8.96408L16.2737 5.20237C15.8017 2.60642 13.2078 0.971684 10.6622 1.66592L5.06251 3.19312C4.14894 3.44227 3.45455 4.1862 3.26885 5.11474L2.91581 6.87992C2.63809 8.26853 3.69991 9.43829 4.82905 9.88461C5.15163 10.0121 5.44337 10.1739 5.66974 10.3748C7.37583 11.8883 7.99442 13.0979 9.05406 15.2238C9.4084 15.9347 9.77205 16.9002 10.052 17.7064ZM12.0165 12.1221L12.0169 12.1237L12.0187 12.131L12.0262 12.1621C12.0328 12.1899 12.0426 12.2317 12.0549 12.2858C12.0793 12.394 12.1135 12.5514 12.1515 12.7454C12.2277 13.1341 12.3188 13.6657 12.3793 14.2406C12.4401 14.8178 12.4685 15.4249 12.425 15.9687C12.3806 16.5242 12.2652 16.9539 12.0855 17.2234C12.0264 17.312 11.9138 17.4447 11.7594 17.6065C11.5605 17.815 11.1314 17.7665 10.9967 17.3785C10.7141 16.5646 10.3334 15.5488 9.94904 14.7777C8.88216 12.6372 8.19326 11.2767 6.33336 9.6267C5.99304 9.32479 5.58878 9.10963 5.19665 8.95463C4.31631 8.60665 3.75035 7.80622 3.89639 7.07603L4.24943 5.31086C4.36085 4.75373 4.77748 4.30738 5.32562 4.15789L10.9254 2.63068C12.9052 2.09072 14.9227 3.36219 15.2898 5.38126L15.9738 9.14296C16.197 10.3706 15.2538 11.5007 14.006 11.5007H12.5015C12.3476 11.5007 12.2022 11.5717 12.1074 11.693C12.0127 11.8144 11.9792 11.9728 12.0165 12.1221C12.0165 12.1221 12.0165 12.1221 12.0165 12.1221Z" fill="currentcolor"/>
        </symbol>
        <symbol width="20" height="20" viewBox="0 0 20 20" fill="none" id="open-20-regular">
            <path d="M6.49999 5C5.67157 5 5 5.67157 5 6.5V13.5C5 14.3284 5.67157 15 6.49999 15H13.5C14.3284 15 14.9999 14.3284 14.9999 13.5V11.2692C14.9999 10.9931 15.2238 10.7692 15.4999 10.7692C15.7761 10.7692 15.9999 10.9931 15.9999 11.2692V13.5C15.9999 14.8807 14.8807 16 13.5 16H6.49999C5.11928 16 4 14.8807 4 13.5V6.5C4 5.11929 5.11928 4 6.49999 4H8.73075C9.00689 4 9.23074 4.22386 9.23074 4.5C9.23074 4.77614 9.00689 5 8.73075 5H6.49999ZM10.7693 4.5C10.7693 4.22386 10.9931 4 11.2693 4H15.5C15.7761 4 16 4.22386 16 4.5V8.73077C16 9.00691 15.7761 9.23077 15.5 9.23077C15.2239 9.23077 15 9.00691 15 8.73077V5.70711L11.6228 9.08433C11.4275 9.27959 11.111 9.27959 10.9157 9.08433C10.7204 8.88906 10.7204 8.57248 10.9157 8.37722L14.2929 5H11.2693C10.9931 5 10.7693 4.77614 10.7693 4.5Z" fill="currentcolor" />
        </symbol>
        <symbol width="20" height="20" viewBox="0 0 20 20" fill="none" id="folder-20-regular">
            <path d="M4 6.5V8H7.58579C7.71839 8 7.84557 7.94732 7.93934 7.85355L9.29289 6.5L7.93934 5.14645C7.84557 5.05268 7.71839 5 7.58579 5H5.5C4.67157 5 4 5.67157 4 6.5ZM3 6.5C3 5.11929 4.11929 4 5.5 4H7.58579C7.98361 4 8.36514 4.15804 8.64645 4.43934L10.2071 6H14.5C15.8807 6 17 7.11929 17 8.5V13.5C17 14.8807 15.8807 16 14.5 16H5.5C4.11929 16 3 14.8807 3 13.5V6.5ZM4 9V13.5C4 14.3284 4.67157 15 5.5 15H14.5C15.3284 15 16 14.3284 16 13.5V8.5C16 7.67157 15.3284 7 14.5 7H10.2071L8.64645 8.56066C8.36514 8.84197 7.98361 9 7.58579 9H4Z" fill="currentcolor" />
        </symbol>
        <symbol width="20" height="20" viewBox="0 0 20 20" fill="none" id="down-chevron-20-regular">
            <path d="M6.14645 8.64645C6.34171 8.45118 6.65829 8.45118 6.85355 8.64645L10 11.7929L13.1464 8.64645C13.3417 8.45118 13.6583 8.45118 13.8536 8.64645C14.0488 8.84171 14.0488 9.15829 13.8536 9.35355L10.3536 12.8536C10.1583 13.0488 9.84171 13.0488 9.64645 12.8536L6.14645 9.35355C5.95118 9.15829 5.95118 8.84171 6.14645 8.64645Z" fill="currentcolor" />
        </symbol>
        <symbol width="20" height="20" viewBox="0 0 20 20" fill="none" id="panel-left-text-20-regular">
            <path d="M6.58988 6.99194C6.82312 6.94961 7 6.74546 7 6.5C7 6.22386 6.77614 6 6.5 6H4.5L4.41012 6.00806C4.17688 6.05039 4 6.25454 4 6.5C4 6.77614 4.22386 7 4.5 7H6.5L6.58988 6.99194ZM6.58988 9.99194C6.82312 9.94961 7 9.74546 7 9.5C7 9.22386 6.77614 9 6.5 9H4.5L4.41012 9.00806C4.17688 9.05039 4 9.25454 4 9.5C4 9.77614 4.22386 10 4.5 10H6.5L6.58988 9.99194ZM6.58988 12.9919C6.82312 12.9496 7 12.7455 7 12.5C7 12.2239 6.77614 12 6.5 12H4.5L4.41012 12.0081C4.17688 12.0504 4 12.2545 4 12.5C4 12.7761 4.22386 13 4.5 13H6.5L6.58988 12.9919ZM5 3C3.34315 3 2 4.34315 2 6V13C2 14.6569 3.34315 16 5 16H15C16.6569 16 18 14.6569 18 13V6C18 4.34315 16.6569 3 15 3H5ZM15 15H9V4H15C16.1046 4 17 4.89543 17 6V13C17 14.1046 16.1046 15 15 15ZM5 4H8V15H5C3.89543 15 3 14.1046 3 13V6C3 4.89543 3.89543 4 5 4Z" fill="currentcolor" />
        </symbol>
        <symbol width="20" height="20" viewBox="0 0 20 20" fill="none" id="star-20-regular">
            <path d="M9.10433 2.89874C9.47114 2.15549 10.531 2.1555 10.8978 2.89874L12.8282 6.81024L17.1448 7.43748C17.9651 7.55666 18.2926 8.56464 17.699 9.14317L14.5755 12.1878L15.3129 16.487C15.453 17.3039 14.5956 17.9269 13.8619 17.5412L10.0011 15.5114L6.14018 17.5412C5.40655 17.9269 4.54913 17.3039 4.68924 16.487L5.4266 12.1878L2.30308 9.14317C1.70956 8.56463 2.03708 7.55666 2.8573 7.43748L7.17389 6.81024L9.10433 2.89874ZM10.0011 3.34131L8.07062 7.25281C7.92496 7.54795 7.6434 7.75252 7.31769 7.79985L3.00109 8.42709L6.12461 11.4718C6.3603 11.7015 6.46784 12.0325 6.41221 12.3569L5.67484 16.656L9.53572 14.6263C9.82705 14.4731 10.1751 14.4731 10.4664 14.6263L14.3273 16.656L13.5899 12.3569C13.5343 12.0325 13.6418 11.7015 13.8775 11.4718L17.001 8.42709L12.6844 7.79985C12.3587 7.75252 12.0772 7.54795 11.9315 7.25281L10.0011 3.34131Z" fill="currentcolor" />
        </symbol>
        <symbol width="24" height="24" viewBox="0 0 24 24" fill="none" id="cast-20-regular">
            <path d="M2 6.25C2 5.00736 3.00736 4 4.25 4H19.75C20.9926 4 22 5.00736 22 6.25V17.75C22 18.9926 20.9926 20 19.75 20H4.25C3.00736 20 2 18.9926 2 17.75V6.25ZM4.25 5.5C3.83579 5.5 3.5 5.83579 3.5 6.25V17.75C3.5 18.1642 3.83579 18.5 4.25 18.5H19.75C20.1642 18.5 20.5 18.1642 20.5 17.75V6.25C20.5 5.83579 20.1642 5.5 19.75 5.5H4.25ZM6.9959 15.9955C6.9959 16.5466 6.5491 16.9934 5.99795 16.9934C5.4468 16.9934 5 16.5466 5 15.9955C5 15.4443 5.4468 14.9975 5.99795 14.9975C6.5491 14.9975 6.9959 15.4443 6.9959 15.9955ZM4.9958 12.7506C4.9958 12.3363 5.33159 12.0006 5.7458 12.0006C8.09138 12.0006 9.99284 13.902 9.99284 16.2476C9.99284 16.6618 9.65705 16.9976 9.24284 16.9976C8.82863 16.9976 8.49284 16.6618 8.49284 16.2476C8.49284 14.7304 7.26295 13.5006 5.7458 13.5006C5.33159 13.5006 4.9958 13.1648 4.9958 12.7506ZM4.9958 9.74379C4.9958 9.32958 5.33159 8.99379 5.7458 8.99379C9.75197 8.99379 12.9996 12.2414 12.9996 16.2476C12.9996 16.6618 12.6638 16.9976 12.2496 16.9976C11.8354 16.9976 11.4996 16.6618 11.4996 16.2476C11.4996 13.0699 8.92354 10.4938 5.7458 10.4938C5.33159 10.4938 4.9958 10.158 4.9958 9.74379Z" fill="currentcolor"/>
        </symbol>
        <symbol width="20" height="20" viewBox="0 0 20 20" fill="none" id="subtract-20-regular">
            <path d="M3 10C3 9.72386 3.22386 9.5 3.5 9.5H16.5C16.7761 9.5 17 9.72386 17 10C17 10.2761 16.7761 10.5 16.5 10.5H3.5C3.22386 10.5 3 10.2761 3 10Z" fill="currentcolor" />
        </symbol>
        <symbol width="20" height="20" viewBox="0 0 20 20" fill="none" id="add-20-regular">
            <path d="M10 2.5C10 2.22386 9.77614 2 9.5 2C9.22386 2 9 2.22386 9 2.5V9H2.5C2.22386 9 2 9.22386 2 9.5C2 9.77614 2.22386 10 2.5 10H9V16.5C9 16.7761 9.22386 17 9.5 17C9.77614 17 10 16.7761 10 16.5V10H16.5C16.7761 10 17 9.77614 17 9.5C17 9.22386 16.7761 9 16.5 9H10V2.5Z" fill="currentcolor" />
        </symbol>
        <symbol width="20" height="20" viewBox="0 0 20 20" fill="none" id="arrow-maximize-20-regular">
            <path d="M10.5 3L16.5428 3.00182L16.6281 3.01661L16.691 3.03779L16.767 3.07719L16.8221 3.11759L16.8824 3.17788L16.9112 3.21534L16.9533 3.2886L16.9834 3.37186L16.9979 3.45421L17 3.5V9.5C17 9.77614 16.7761 10 16.5 10C16.2545 10 16.0504 9.82312 16.0081 9.58988L16 9.5V4.706L4.706 16H9.5C9.74546 16 9.94961 16.1769 9.99194 16.4101L10 16.5C10 16.7455 9.82312 16.9496 9.58988 16.9919L9.5 17L3.47964 16.9996L3.4112 16.9921L3.30896 16.9622L3.23299 16.9228L3.17786 16.8824L3.11758 16.8221L3.08884 16.7847L3.04674 16.7114L3.01661 16.6281L3.01109 16.605C3.00383 16.5713 3 16.5361 3 16.5L3.00546 16.5739L3.00182 16.5428L3 10.5C3 10.2239 3.22386 10 3.5 10C3.74546 10 3.94961 10.1769 3.99194 10.4101L4 10.5V15.292L15.292 4H10.5C10.2545 4 10.0504 3.82312 10.0081 3.58988L10 3.5C10 3.22386 10.2239 3 10.5 3Z" fill="currentcolor" />
        </symbol>
        <symbol width="20" height="20" viewBox="0 0 20 20" fill="none" id="new-tab-20-regular">
            <path d="M7 12C7.55228 12 8 11.5523 8 11C8 10.4477 7.55228 10 7 10C6.44772 10 6 10.4477 6 11C6 11.5523 6.44772 12 7 12ZM11 11C11 11.5523 10.5523 12 10 12C9.44772 12 9 11.5523 9 11C9 10.4477 9.44772 10 10 10C10.5523 10 11 10.4477 11 11ZM13 12C13.5523 12 14 11.5523 14 11C14 10.4477 13.5523 10 13 10C12.4477 10 12 10.4477 12 11C12 11.5523 12.4477 12 13 12ZM3 5.5C3 4.11929 4.11929 3 5.5 3H14.5C15.8807 3 17 4.11929 17 5.5V14.5C17 15.8807 15.8807 17 14.5 17H5.5C4.11929 17 3 15.8807 3 14.5V5.5ZM5.5 4C4.67157 4 4 4.67157 4 5.5V14.5C4 15.3284 4.67157 16 5.5 16H14.5C15.3284 16 16 15.3284 16 14.5V7H9.5C8.67157 7 8 6.32843 8 5.5V4H5.5ZM16 5.5C16 4.67157 15.3284 4 14.5 4H9V5.5C9 5.77614 9.22386 6 9.5 6H16V5.5Z" fill="currentcolor" />
        </symbol>
        <symbol width="20" height="20" viewBox="0 0 20 20" fill="none" id="new-window-20-regular">
            <path d="M6 3C4.34315 3 3 4.34315 3 6V14C3 15.6569 4.34315 17 6 17H14C15.6569 17 17 15.6569 17 14V6C17 4.34315 15.6569 3 14 3H6ZM4 6C4 4.89543 4.89543 4 6 4H14C15.1046 4 16 4.89543 16 6L4 6ZM4 7H16V14C16 15.1046 15.1046 16 14 16H6C4.89543 16 4 15.1046 4 14V7Z" fill="currentcolor" />
        </symbol>
        <symbol width="20" height="20" viewBox="0 0 20 20" fill="none" id="new-private-window-20-regular">
            <path d="M5.49707 3C4.11636 3 2.99707 4.11929 2.99707 5.5V14.5C2.99707 15.8807 4.11636 17 5.49707 17H10.1606C10.0616 16.6844 10.0062 16.35 10.0005 16H5.49707C4.66864 16 3.99707 15.3284 3.99707 14.5V7H17V6H16.9971V5.5C16.9971 4.11929 15.8778 3 14.4971 3H5.49707ZM15.9971 5.5V6H3.99707V5.5C3.99707 4.67157 4.66864 4 5.49707 4H14.4971C15.3255 4 15.9971 4.67157 15.9971 5.5ZM15 12C14.1716 12 13.5 11.3284 13.5 10.5C13.5 9.67157 14.1716 9 15 9H17.0002C16.5441 8.39278 15.8179 8 15 8C13.6193 8 12.5 9.11929 12.5 10.5C12.5 11.8807 13.6193 13 15 13C15.8179 13 16.5441 12.6072 17.0002 12H15ZM12.55 15C12.4351 15 12.3001 15.0597 12.1812 15.1934C12.0603 15.3293 12 15.4946 12 15.62V15.94C12 16.829 12.9702 18 15 18H17.9878C17.2799 18.6082 16.2407 19 15 19C12.6332 19 11 17.5744 11 15.94V15.62C11 15.2151 11.1747 14.8204 11.4339 14.5289C11.695 14.2352 12.085 14 12.55 14H17.45C17.915 14 18.305 14.2352 18.5661 14.5289C18.6882 14.6663 18.7916 14.8266 18.8668 15H12.55ZM17.5 10.5C17.5 10.6712 17.4828 10.8384 17.45 11H15V10H17.45C17.4828 10.1616 17.5 10.3288 17.5 10.5ZM15 17H18.7611C18.9085 16.6847 18.9908 16.3474 18.9993 16H15V17Z" fill="currentcolor" />
        </symbol>
        <symbol width="20" height="20" viewBox="0 0 20 20" fill="none" id="favorites-20-regular">
            <path d="M9.10431 2.89886C9.47113 2.15561 10.531 2.15562 10.8978 2.89889L12.9217 6.99995H17.5008C17.777 6.99995 18.0008 7.22381 18.0008 7.49995C18.0008 7.7761 17.777 7.99995 17.5008 7.99995H12.9217C12.541 7.99995 12.1934 7.78384 12.0249 7.4425L10.001 3.34143L8.07062 7.2529C7.92496 7.54804 7.6434 7.75261 7.31769 7.79994L3.00109 8.42718L6.12461 11.4719C6.3603 11.7016 6.46784 12.0326 6.41221 12.357L5.67484 16.6561L9.76839 14.504C10.0128 14.3755 10.3151 14.4695 10.4436 14.7139C10.5721 14.9583 10.4782 15.2607 10.2337 15.3892L6.14018 17.5413C5.40655 17.927 4.54913 17.304 4.68924 16.4871L5.4266 12.1879L2.30308 9.14326C1.70956 8.56472 2.03708 7.55675 2.8573 7.43757L7.17389 6.81033L9.10431 2.89886ZM12 10.5C12 10.2239 12.2239 10 12.5 10H17.5C17.7761 10 18 10.2239 18 10.5C18 10.7761 17.7761 11 17.5 11H12.5C12.2239 11 12 10.7761 12 10.5ZM12.5 13C12.2239 13 12 13.2239 12 13.5C12 13.7761 12.2239 14 12.5 14H17.5C17.7761 14 18 13.7761 18 13.5C18 13.2239 17.7761 13 17.5 13H12.5Z" fill="currentcolor" />
        </symbol>
        <symbol width="20" height="20" viewBox="0 0 20 20" fill="none" id="downloads-20-regular">
            <path d="M15.5 16.9989C15.7761 16.9989 16 17.2227 16 17.4989C16 17.7443 15.8231 17.9485 15.5899 17.9908L15.5 17.9989H4.5C4.22386 17.9989 4 17.775 4 17.4989C4 17.2534 4.17688 17.0493 4.41012 17.0069L4.5 16.9989H15.5ZM10.0001 2.0011C10.2456 2.0011 10.4497 2.1781 10.492 2.41137L10.5 2.50124L10.496 14.2951L14.1414 10.6468C14.3148 10.473 14.5842 10.4535 14.7792 10.5883L14.8485 10.6461C15.0222 10.8195 15.0418 11.0889 14.907 11.2839L14.8492 11.3532L10.3574 15.8532C10.285 15.9259 10.1957 15.9715 10.1021 15.9902L9.99608 16C9.83511 16 9.69192 15.9239 9.60051 15.8057L5.14386 11.3538C4.94846 11.1587 4.94823 10.8421 5.14336 10.6467C5.3168 10.473 5.58621 10.4535 5.78117 10.5884L5.85046 10.6462L9.496 14.2871L9.5 2.50095C9.50008 2.22481 9.724 2.0011 10.0001 2.0011Z" fill="currentcolor" />
        </symbol>
        <symbol width="20" height="20" viewBox="0 0 20 20" fill="none" id="apps-20-regular">
            <path d="M4.5 17C3.7203 17 3.07955 16.4051 3.00687 15.6445L3 15.5V4.5C3 3.7203 3.59489 3.07955 4.35554 3.00687L4.5 3H9C9.7797 3 10.4204 3.59489 10.4931 4.35554L10.5 4.5V4.75443L12.6886 2.48518C13.2276 1.92599 14.0959 1.87568 14.6956 2.34707L14.8118 2.4483L17.5694 5.17295C18.1219 5.71884 18.1614 6.58769 17.68 7.18413L17.5767 7.29961L15.266 9.49943L15.5 9.5C16.2797 9.5 16.9204 10.0949 16.9931 10.8555L17 11V15.5C17 16.2797 16.4051 16.9204 15.6445 16.9931L15.5 17H4.5ZM9.5 10.5H4V15.5C4 15.7148 4.13542 15.8979 4.32553 15.9687L4.41012 15.9919L4.5 16H9.5V10.5ZM15.5 10.5H10.5V16H15.5C15.7455 16 15.9496 15.8231 15.9919 15.5899L16 15.5V11C16 10.7545 15.8231 10.5504 15.5899 10.5081L15.5 10.5ZM10.5 7.70943V9.49943H12.29L10.5 7.70943ZM9 4H4.5C4.25454 4 4.05039 4.17688 4.00806 4.41012L4 4.5V9.5H9.5V4.5C9.5 4.28522 9.36458 4.10207 9.17447 4.03128L9.08988 4.00806L9 4ZM14.1222 3.17265C13.9396 2.99652 13.6692 2.98155 13.4768 3.12004L13.4086 3.17915L10.7926 5.89329C10.6271 6.065 10.6086 6.32501 10.7356 6.51644L10.799 6.59383L13.4147 9.20955C13.5826 9.37746 13.8409 9.40135 14.0345 9.27931L14.1131 9.21806L16.8708 6.59139C17.0433 6.41679 17.061 6.14725 16.9248 5.95319L16.8665 5.88429L14.1222 3.17265Z" fill="currentcolor" />
        </symbol>
        <symbol width="20" height="20" viewBox="0 0 20 20" fill="none" id="extensions-20-regular">
            <path d="M11 3C10.3096 3 9.75 3.55964 9.75 4.25V5H6.5C6.22386 5 6 5.22386 6 5.5V8.75H5.25C4.55964 8.75 4 9.30964 4 10C4 10.6904 4.55964 11.25 5.25 11.25H6V14.5C6 14.7761 6.22386 15 6.5 15H9.75V15.75C9.75 16.4404 10.3096 17 11 17C11.6904 17 12.25 16.4404 12.25 15.75V15H15.5C15.7761 15 16 14.7761 16 14.5V12.25H15.25C14.0074 12.25 13 11.2426 13 10C13 8.75736 14.0074 7.75 15.25 7.75H16V5.5C16 5.22386 15.7761 5 15.5 5H12.25V4.25C12.25 3.55964 11.6904 3 11 3ZM8.76373 4C8.88809 2.87501 9.84186 2 11 2C12.1581 2 13.1119 2.87501 13.2363 4H15.5C16.3284 4 17 4.67157 17 5.5V8.75H15.25C14.5596 8.75 14 9.30964 14 10C14 10.6904 14.5596 11.25 15.25 11.25H17V14.5C17 15.3284 16.3284 16 15.5 16H13.2363C13.1119 17.125 12.1581 18 11 18C9.84186 18 8.88809 17.125 8.76373 16H6.5C5.67157 16 5 15.3284 5 14.5V12.2363C3.87501 12.1119 3 11.1581 3 10C3 8.84186 3.87501 7.88809 5 7.76373V5.5C5 4.67157 5.67157 4 6.5 4H8.76373Z" fill="currentcolor" />
        </symbol>
        <symbol width="20" height="20" viewBox="0 0 20 20" fill="none" id="browser-essentials-20-regular">
            <path d="M10.4965 16.8028L15.2543 12H14.25C14.1275 12 14.0068 11.985 13.8901 11.9562L10.0252 15.8577L6.16208 11.9557C6.04531 11.9848 5.92389 12 5.8 12H4.79874L9.55368 16.8028C9.81404 17.0657 10.2362 17.0657 10.4965 16.8028ZM16.7239 4.31249C17.9856 5.58687 18.3116 7.44242 17.7023 9.01353C17.6361 9.00461 17.5686 9 17.5 9H16.6113C17.2826 7.72238 17.0851 6.09863 16.0133 5.01605C14.7025 3.69204 12.5964 3.69135 11.3 5.00029L10.349 5.96272C10.1534 6.16067 9.8338 6.16082 9.63801 5.96306L8.6778 4.99319C7.36984 3.67208 5.26525 3.67106 3.97186 4.97746C2.89923 6.06088 2.71314 7.71093 3.4203 9H2.5C2.4393 9 2.37944 9.00361 2.32062 9.01062C1.68337 7.42933 1.99562 5.55224 3.26122 4.2739C4.91654 2.60193 7.58595 2.57726 9.28783 4.19116C9.32175 4.22334 9.35529 4.25616 9.38843 4.28963L9.99299 4.90026L10.5894 4.29673C10.6251 4.26068 10.6612 4.22539 10.6978 4.19086C12.3961 2.5895 15.0611 2.63292 16.7239 4.31249ZM7.96154 6.30769C7.88415 6.12196 7.70298 6.00072 7.50177 6C7.30056 5.99929 7.11853 6.11925 7.03983 6.30443L5.46922 10H2.5C2.22386 10 2 10.2239 2 10.5C2 10.7761 2.22386 11 2.5 11H5.8C6.00056 11 6.18172 10.8802 6.26017 10.6956L7.49544 7.78905L9.53846 12.6923C9.6104 12.865 9.77268 12.983 9.95909 12.9983C10.1455 13.0136 10.3249 12.9236 10.424 12.765L12.5671 9.33601L13.8737 10.8293C13.9687 10.9378 14.1058 11 14.25 11H17.5C17.7761 11 18 10.7761 18 10.5C18 10.2239 17.7761 10 17.5 10H14.4769L12.8763 8.17075C12.7721 8.05167 12.6177 7.98894 12.46 8.0016C12.3023 8.01427 12.1599 8.10083 12.076 8.235L10.0892 11.414L7.96154 6.30769Z" fill="currentcolor" />
        </symbol>
        <symbol width="20" height="20" viewBox="0 0 20 20" fill="none" id="password-20-regular">
            <path d="M15 6C15 6.55228 14.5523 7 14 7C13.4477 7 13 6.55228 13 6C13 5.44772 13.4477 5 14 5C14.5523 5 15 5.44772 15 6ZM12.5 2C9.42386 2 7 4.42386 7 7.5C7 7.89668 7.04001 8.29598 7.12154 8.67456C7.17968 8.94454 7.11378 9.17912 6.98018 9.31271L2.43934 13.8536C2.15804 14.1349 2 14.5164 2 14.9142V16.5C2 17.3284 2.67157 18 3.5 18H5.5C6.32843 18 7 17.3284 7 16.5V16H8C8.55228 16 9 15.5523 9 15V14H10C10.5523 14 11 13.5523 11 13V12.8199C11.4935 12.9536 12.0069 13 12.5 13C15.5761 13 18 10.5761 18 7.5C18 4.42386 15.5761 2 12.5 2ZM8 7.5C8 4.97614 9.97614 3 12.5 3C15.0239 3 17 4.97614 17 7.5C17 10.0239 15.0239 12 12.5 12C11.8408 12 11.2274 11.9047 10.7236 11.6528C10.5686 11.5753 10.3845 11.5836 10.2371 11.6747C10.0897 11.7658 10 11.9267 10 12.1V13H9C8.44772 13 8 13.4477 8 14V15H7C6.44772 15 6 15.4477 6 16V16.5C6 16.7761 5.77614 17 5.5 17H3.5C3.22386 17 3 16.7761 3 16.5V14.9142C3 14.7816 3.05268 14.6544 3.14645 14.5607L7.68729 10.0198C8.11942 9.58768 8.20942 8.97619 8.09913 8.46404C8.03354 8.15949 8 7.83105 8 7.5Z" fill="currentcolor" />
        </symbol>
        <symbol width="20" height="20" viewBox="0 0 20 20" fill="none" id="print-20-regular">
            <path d="M5 4.5C5 3.67157 5.67157 3 6.5 3H13.5C14.3284 3 15 3.67157 15 4.5V5H15.5C16.8807 5 18 6.11929 18 7.5V12.5C18 13.3284 17.3284 14 16.5 14H15V15.5C15 16.3284 14.3284 17 13.5 17H6.5C5.67157 17 5 16.3284 5 15.5V14H3.5C2.67157 14 2 13.3284 2 12.5V7.5C2 6.11929 3.11929 5 4.5 5H5V4.5ZM6 5H14V4.5C14 4.22386 13.7761 4 13.5 4H6.5C6.22386 4 6 4.22386 6 4.5V5ZM5 13V11.5C5 10.6716 5.67157 10 6.5 10H13.5C14.3284 10 15 10.6716 15 11.5V13H16.5C16.7761 13 17 12.7761 17 12.5V7.5C17 6.67157 16.3284 6 15.5 6H4.5C3.67157 6 3 6.67157 3 7.5V12.5C3 12.7761 3.22386 13 3.5 13H5ZM6.5 11C6.22386 11 6 11.2239 6 11.5V15.5C6 15.7761 6.22386 16 6.5 16H13.5C13.7761 16 14 15.7761 14 15.5V11.5C14 11.2239 13.7761 11 13.5 11H6.5Z" fill="currentcolor" />
        </symbol>
        <symbol width="20" height="20" viewBox="0 0 20 20" fill="none" id="screenshot-20-regular">
            <path d="M4 4.99622C3.44772 4.99622 3 5.44393 3 5.99622V6.49622C3 6.77236 2.77614 6.99622 2.5 6.99622C2.22386 6.99622 2 6.77236 2 6.49622V5.99622C2 4.89165 2.89543 3.99622 4 3.99622H4.5C4.77614 3.99622 5 4.22007 5 4.49622C5 4.77236 4.77614 4.99622 4.5 4.99622H4Z" fill="currentcolor" />
            <path d="M3 13.0037C3 13.556 3.44772 14.0037 4 14.0037H4.25C4.52614 14.0037 4.75 14.2276 4.75 14.5037C4.75 14.7799 4.52614 15.0037 4.25 15.0037H4C2.89543 15.0037 2 14.1083 2 13.0037V12.5037C2 12.2276 2.22386 12.0037 2.5 12.0037C2.77614 12.0037 3 12.2276 3 12.5037V13.0037Z" fill="currentcolor" />
            <path d="M3 8.49997C3 8.22383 2.77614 7.99997 2.5 7.99997C2.22386 7.99997 2 8.22383 2 8.49997V10.5C2 10.7761 2.22386 11 2.5 11C2.77614 11 3 10.7761 3 10.5L3 8.49997Z" fill="currentcolor" />
            <path d="M16 4.99622C16.5523 4.99622 17 5.44393 17 5.99622V6.49622C17 6.77236 17.2239 6.99622 17.5 6.99622C17.7761 6.99622 18 6.77236 18 6.49622V5.99622C18 4.89165 17.1046 3.99622 16 3.99622H15.5C15.2239 3.99622 15 4.22007 15 4.49622C15 4.77236 15.2239 4.99622 15.5 4.99622H16Z" fill="currentcolor" />
            <path d="M16 14.0037C16.5523 14.0037 17 13.556 17 13.0037V12.5037C17 12.2276 17.2239 12.0037 17.5 12.0037C17.7761 12.0037 18 12.2276 18 12.5037V13.0037C18 14.1083 17.1046 15.0037 16 15.0037H15.7477C15.4716 15.0037 15.2477 14.7799 15.2477 14.5037C15.2477 14.2276 15.4716 14.0037 15.7477 14.0037H16Z" fill="currentcolor" />
            <path d="M17.5 7.99997C17.2239 7.99997 17 8.22383 17 8.49997V10.5C17 10.7761 17.2239 11 17.5 11C17.7761 11 18 10.7761 18 10.5V8.49997C18 8.22383 17.7761 7.99997 17.5 7.99997Z" fill="currentcolor" />
            <path d="M6.5 3.99622C6.22386 3.99622 6 4.22007 6 4.49622C6 4.77236 6.22386 4.99622 6.5 4.99622H9C9.27614 4.99622 9.5 4.77236 9.5 4.49622C9.5 4.22007 9.27614 3.99622 9 3.99622H6.5Z" fill="currentcolor" />
            <path d="M10.5 4.49622C10.5 4.22007 10.7239 3.99622 11 3.99622H13.5C13.7761 3.99622 14 4.22007 14 4.49622C14 4.77236 13.7761 4.99622 13.5 4.99622H11C10.7239 4.99622 10.5 4.77236 10.5 4.49622Z" fill="currentcolor" />
            <path d="M7.21585 8.08755C6.98545 8.23977 6.92285 8.54942 7.07603 8.77919L9.39495 12.2575L8.15704 14.1143C7.7157 13.9611 7.21906 13.9608 6.75185 14.1495C5.72727 14.5633 5.23227 15.729 5.64622 16.7531C6.06018 17.7773 7.22634 18.2721 8.25092 17.8583C9.2755 17.4445 9.7705 16.2788 9.35655 15.2547C9.2668 15.0326 9.1417 14.8355 8.99035 14.6671L9.99587 13.1588L11.0047 14.6721C10.8554 14.8394 10.7319 15.0348 10.643 15.2547C10.2291 16.2788 10.7241 17.4445 11.7486 17.8583C12.7732 18.2721 13.9394 17.7773 14.3533 16.7531C14.7673 15.729 14.2723 14.5633 13.2477 14.1495C12.7783 13.9599 12.2791 13.9611 11.8362 14.1165L10.5968 12.2575L10.5989 12.2543L9.99801 11.3529L9.99587 11.3561L7.91038 8.22796C7.75721 7.9982 7.44625 7.93534 7.21585 8.08755ZM12.4996 17C11.9473 17 11.4996 16.5523 11.4996 16C11.4996 15.4477 11.9473 15 12.4996 15C13.0518 15 13.4996 15.4477 13.4996 16C13.4996 16.5523 13.0518 17 12.4996 17ZM7.5 17C6.94772 17 6.5 16.5523 6.5 16C6.5 15.4477 6.94772 15 7.5 15C8.05228 15 8.5 15.4477 8.5 16C8.5 16.5523 8.05228 17 7.5 17Z" fill="currentcolor" />
            <path d="M10.5989 10.4515L11.1999 11.3529L12.9157 8.77919C13.0689 8.54942 13.0063 8.23977 12.7759 8.08755C12.5455 7.93534 12.2345 7.9982 12.0814 8.22796L10.5989 10.4515Z" fill="currentcolor" />
        </symbol>
        <symbol width="20" height="20" viewBox="0 0 20 20" fill="none" id="find-page-20-regular">
            <path d="M4 4C4 2.89543 4.89543 2 6 2H10.5858C10.9836 2 11.3651 2.15804 11.6464 2.43934L15.5607 6.35355C15.842 6.63486 16 7.01639 16 7.41421V16C16 17.1046 15.1046 18 14 18H11.9146C11.8424 17.7953 11.7244 17.6031 11.5607 17.4393L11.1213 17H14C14.5523 17 15 16.5523 15 16V8H11.5C10.6716 8 10 7.32843 10 6.5V3H6C5.44772 3 5 3.44772 5 4V9.02746C4.65327 9.06579 4.31841 9.14352 4 9.25606V4ZM11.5 7H14.7929L11 3.20711V6.5C11 6.77614 11.2239 7 11.5 7ZM5.5 17C6.2862 17 7.01185 16.7408 7.59615 16.3031L10.1464 18.8535C10.3417 19.0488 10.6583 19.0488 10.8535 18.8535C11.0488 18.6583 11.0488 18.3417 10.8536 18.1464L8.30324 15.596C8.74082 15.0117 9 14.2861 9 13.5C9 11.567 7.433 10 5.5 10C3.567 10 2 11.567 2 13.5C2 15.433 3.567 17 5.5 17ZM5.5 16C4.11929 16 3 14.8807 3 13.5C3 12.1193 4.11929 11 5.5 11C6.88071 11 8 12.1193 8 13.5C8 14.8807 6.88071 16 5.5 16Z" fill="currentcolor" />
        </symbol>
        <symbol width="20" height="20" viewBox="0 0 20 20" fill="none" id="settings-20-regular">
            <path d="M1.91075 7.38266C2.28004 6.24053 2.88839 5.19213 3.69109 4.30364C3.82683 4.15339 4.03978 4.09984 4.23044 4.16802L6.14873 4.85392C6.6688 5.03977 7.24107 4.76883 7.42692 4.24875C7.4452 4.19762 7.45927 4.14507 7.469 4.09173L7.83446 2.08573C7.8708 1.88627 8.02398 1.7285 8.22227 1.6863C8.80246 1.5628 9.39734 1.5 10 1.5C10.6023 1.5 11.1968 1.56273 11.7767 1.68607C11.9749 1.72824 12.1281 1.88591 12.1645 2.08529L12.531 4.09165C12.6301 4.63497 13.1509 4.9951 13.6942 4.89601C13.7476 4.88627 13.8002 4.87219 13.8512 4.85395L15.7696 4.16802C15.9602 4.09984 16.1732 4.15339 16.3089 4.30364C17.1116 5.19213 17.72 6.24053 18.0893 7.38266C18.1516 7.57534 18.0915 7.78658 17.9371 7.91764L16.3823 9.23773C15.9613 9.5952 15.9098 10.2263 16.2673 10.6473C16.3024 10.6887 16.3409 10.7271 16.3823 10.7623L17.9371 12.0824C18.0915 12.2134 18.1516 12.4247 18.0893 12.6173C17.72 13.7595 17.1116 14.8079 16.3089 15.6964C16.1732 15.8466 15.9602 15.9002 15.7696 15.832L13.8513 15.1461C13.3312 14.9602 12.759 15.2312 12.5731 15.7512C12.5548 15.8024 12.5408 15.8549 12.531 15.9085L12.1645 17.9147C12.1281 18.1141 11.9749 18.2718 11.7767 18.3139C11.1968 18.4373 10.6023 18.5 10 18.5C9.39734 18.5 8.80246 18.4372 8.22227 18.3137C8.02398 18.2715 7.8708 18.1137 7.83446 17.9143L7.46902 15.9084C7.36993 15.365 6.84916 15.0049 6.30583 15.104C6.25241 15.1137 6.19987 15.1278 6.14881 15.1461L4.23044 15.832C4.03978 15.9002 3.82683 15.8466 3.69109 15.6964C2.88839 14.8079 2.28004 13.7595 1.91075 12.6173C1.84845 12.4247 1.90852 12.2134 2.06289 12.0824L3.61773 10.7623C4.03872 10.4048 4.09021 9.77373 3.73274 9.35274C3.69759 9.31135 3.65913 9.27288 3.61775 9.23775L2.06289 7.91764C1.90852 7.78658 1.84845 7.57534 1.91075 7.38266ZM2.9713 7.37709L4.26499 8.47546C4.34778 8.54576 4.42471 8.62269 4.49501 8.70548C5.20995 9.54746 5.10697 10.8096 4.26497 11.5246L2.9713 12.6229C3.26335 13.4051 3.6848 14.1322 4.21623 14.7751L5.81221 14.2044C5.91449 14.1679 6.01958 14.1397 6.12643 14.1202C7.21307 13.922 8.25462 14.6423 8.45281 15.729L8.75678 17.3975C9.16465 17.4655 9.58 17.5 10 17.5C10.4197 17.5 10.8348 17.4656 11.2424 17.3976L11.5472 15.7289C11.5667 15.6221 11.5949 15.517 11.6314 15.4147C12.0031 14.3746 13.1477 13.8327 14.1879 14.2044L15.7838 14.7751C16.3152 14.1322 16.7367 13.4051 17.0287 12.6229L15.735 11.5245C15.6522 11.4542 15.5753 11.3773 15.505 11.2945C14.7901 10.4525 14.8931 9.1904 15.7351 8.47544L17.0287 7.37709C16.7367 6.59486 16.3152 5.86783 15.7838 5.22494L14.1878 5.79559C14.0855 5.83214 13.9804 5.8603 13.8736 5.87979C12.787 6.07796 11.7454 5.3577 11.5473 4.27119L11.2424 2.60235C10.8348 2.53443 10.4197 2.5 10 2.5C9.58 2.5 9.16465 2.53448 8.75678 2.60249L8.45279 4.27105C8.43331 4.37791 8.40515 4.48299 8.3686 4.58527C7.99689 5.62542 6.85236 6.1673 5.81213 5.79556L4.21623 5.22494C3.6848 5.86783 3.26335 6.59486 2.9713 7.37709ZM7.50001 10C7.50001 8.61929 8.6193 7.5 10 7.5C11.3807 7.5 12.5 8.61929 12.5 10C12.5 11.3807 11.3807 12.5 10 12.5C8.6193 12.5 7.50001 11.3807 7.50001 10ZM8.50001 10C8.50001 10.8284 9.17159 11.5 10 11.5C10.8284 11.5 11.5 10.8284 11.5 10C11.5 9.17157 10.8284 8.5 10 8.5C9.17159 8.5 8.50001 9.17157 8.50001 10Z" fill="currentcolor" />
        </symbol>
        <symbol width="20" height="20" viewBox="0 0 20 20" fill="none" id="help-20-regular">
            <path d="M10 2C14.4183 2 18 5.58172 18 10C18 14.4183 14.4183 18 10 18C5.58172 18 2 14.4183 2 10C2 5.58172 5.58172 2 10 2ZM10 3C6.13401 3 3 6.13401 3 10C3 13.866 6.13401 17 10 17C13.866 17 17 13.866 17 10C17 6.13401 13.866 3 10 3ZM10 13.5C10.4142 13.5 10.75 13.8358 10.75 14.25C10.75 14.6642 10.4142 15 10 15C9.58579 15 9.25 14.6642 9.25 14.25C9.25 13.8358 9.58579 13.5 10 13.5ZM10 5.5C11.3807 5.5 12.5 6.61929 12.5 8C12.5 8.72959 12.1848 9.40774 11.6513 9.8771L11.4967 10.0024L11.2782 10.1655L11.1906 10.2372C11.1348 10.2851 11.0835 10.3337 11.0346 10.3859C10.6963 10.7464 10.5 11.2422 10.5 12C10.5 12.2761 10.2761 12.5 10 12.5C9.72386 12.5 9.5 12.2761 9.5 12C9.5 10.988 9.79312 10.2475 10.3054 9.70162C10.4165 9.5832 10.532 9.47988 10.6609 9.37874L10.9076 9.19439L11.0256 9.09468C11.325 8.81435 11.5 8.42206 11.5 8C11.5 7.17157 10.8284 6.5 10 6.5C9.17157 6.5 8.5 7.17157 8.5 8C8.5 8.27614 8.27614 8.5 8 8.5C7.72386 8.5 7.5 8.27614 7.5 8C7.5 6.61929 8.61929 5.5 10 5.5Z" fill="currentcolor" />
        </symbol>
        <symbol width="20" height="20" viewBox="0 0 20 20" fill="none" id="folder-add-20-regular">
            <path d="M4.5 3C3.11929 3 2 4.11929 2 5.5V14.5C2 15.8807 3.11929 17 4.5 17H9.59971C9.43777 16.6832 9.30564 16.3486 9.20703 16H4.5C3.67157 16 3 15.3284 3 14.5V8H7.08579C7.48361 8 7.86514 7.84196 8.14645 7.56066L9.70711 6H15.5C16.3284 6 17 6.67157 17 7.5V9.59971C17.3578 9.78261 17.6929 10.0035 18 10.2572V7.5C18 6.11929 16.8807 5 15.5 5H9.70711L8.21967 3.51256C7.89148 3.18437 7.44636 3 6.98223 3H4.5ZM3 5.5C3 4.67157 3.67157 4 4.5 4H6.98223C7.18115 4 7.37191 4.07902 7.51256 4.21967L8.79289 5.5L7.43934 6.85355C7.34557 6.94732 7.21839 7 7.08579 7H3V5.5ZM19 14.5C19 16.9853 16.9853 19 14.5 19C12.0147 19 10 16.9853 10 14.5C10 12.0147 12.0147 10 14.5 10C16.9853 10 19 12.0147 19 14.5ZM15 12.5C15 12.2239 14.7761 12 14.5 12C14.2239 12 14 12.2239 14 12.5V14H12.5C12.2239 14 12 14.2239 12 14.5C12 14.7761 12.2239 15 12.5 15H14V16.5C14 16.7761 14.2239 17 14.5 17C14.7761 17 15 16.7761 15 16.5V15H16.5C16.7761 15 17 14.7761 17 14.5C17 14.2239 16.7761 14 16.5 14H15V12.5Z" fill="currentcolor" />
        </symbol>
        <symbol width="20" height="20" viewBox="0 0 20 20" fill="none" id="chevron-left-20-regular">
            <path d="M12.3544 15.853C12.1594 16.0486 11.8429 16.0492 11.6472 15.8542L6.16276 10.3893C5.94705 10.1743 5.94705 9.82501 6.16276 9.61006L11.6472 4.14508C11.8429 3.95017 12.1594 3.95074 12.3544 4.14634C12.5493 4.34195 12.5487 4.65854 12.3531 4.85345L7.18851 9.99967L12.3531 15.1459C12.5487 15.3408 12.5493 15.6574 12.3544 15.853Z" fill="currentcolor" />
        </symbol>
        <symbol width="20" height="20" viewBox="0 0 20 20" fill="none" id="key-20-regular">
            <path d="M15 6C15 6.55228 14.5523 7 14 7C13.4477 7 13 6.55228 13 6C13 5.44772 13.4477 5 14 5C14.5523 5 15 5.44772 15 6ZM12.5 2C9.42386 2 7 4.42386 7 7.5C7 7.89668 7.04001 8.29598 7.12154 8.67456C7.17968 8.94454 7.11378 9.17912 6.98018 9.31271L2.43934 13.8536C2.15804 14.1349 2 14.5164 2 14.9142V16.5C2 17.3284 2.67157 18 3.5 18H5.5C6.32843 18 7 17.3284 7 16.5V16H8C8.55228 16 9 15.5523 9 15V14H10C10.5523 14 11 13.5523 11 13V12.8199C11.4935 12.9536 12.0069 13 12.5 13C15.5761 13 18 10.5761 18 7.5C18 4.42386 15.5761 2 12.5 2ZM8 7.5C8 4.97614 9.97614 3 12.5 3C15.0239 3 17 4.97614 17 7.5C17 10.0239 15.0239 12 12.5 12C11.8408 12 11.2274 11.9047 10.7236 11.6528C10.5686 11.5753 10.3845 11.5836 10.2371 11.6747C10.0897 11.7658 10 11.9267 10 12.1V13H9C8.44772 13 8 13.4477 8 14V15H7C6.44772 15 6 15.4477 6 16V16.5C6 16.7761 5.77614 17 5.5 17H3.5C3.22386 17 3 16.7761 3 16.5V14.9142C3 14.7816 3.05268 14.6544 3.14645 14.5607L7.68729 10.0198C8.11942 9.58768 8.20942 8.97619 8.09913 8.46404C8.03354 8.15949 8 7.83105 8 7.5Z" fill="currentcolor"/>
        </symbol>
        <symbol width="20" height="20" viewBox="0 0 20 20" fill="none" id="translate-20-regular">
            <path d="M4.07616 4.21649C4.78409 4.00914 5.77942 3.88471 6.92028 4.21664L6.92136 4.21695C7.93342 4.51387 8.48142 5.11698 8.7532 5.78501C9.00595 6.40627 9.0058 7.05477 9.0057 7.44659L9.0057 12.5C9.0057 12.7761 8.78184 13.0007 8.5057 13.0007C8.22956 13.0007 8.0057 12.7768 8.0057 12.5007V11.9672C7.69572 12.1601 7.3403 12.3547 6.9599 12.5219C6.18016 12.8646 5.22351 13.1237 4.31803 12.9356C3.14925 12.6927 2.35713 11.8259 2.07014 10.8537C1.78345 9.88255 1.98877 8.75084 2.87738 8.01176C3.8874 7.17169 5.04808 6.96529 6.08385 7.00818C6.79336 7.03755 7.46199 7.18481 8.00531 7.33317C8.0026 6.95825 7.98173 6.54236 7.82692 6.16185C7.66747 5.76992 7.35305 5.3859 6.64043 5.17668C5.72242 4.90971 4.92619 5.00953 4.35724 5.17617C4.07228 5.25963 3.84612 5.35945 3.69373 5.43678C3.6177 5.47536 3.56057 5.50808 3.52423 5.52992C3.50608 5.54083 3.49318 5.54899 3.48576 5.55378L3.4788 5.55833L3.47963 5.55776C3.25207 5.71386 2.94134 5.65588 2.78502 5.42841C2.62863 5.20082 2.68634 4.88954 2.91393 4.73315L2.91566 4.73196L2.91797 4.7304L2.92429 4.72615L2.9437 4.71344C2.95962 4.70317 2.98147 4.68941 3.00903 4.67285C3.0641 4.63974 3.14215 4.5953 3.24121 4.54503C3.439 4.44466 3.72264 4.32003 4.07616 4.21649ZM6.04249 8.00732C5.16917 7.97116 4.27958 8.14618 3.51683 8.78058C2.98777 9.22062 2.83491 9.91237 3.02922 10.5706C3.22322 11.2278 3.75127 11.7964 4.52148 11.9565C5.12729 12.0824 5.85264 11.9162 6.55757 11.6064C7.13927 11.3508 7.65814 11.0189 8.0057 10.7577V8.37278C7.44769 8.20973 6.76366 8.03718 6.04249 8.00732ZM14.4703 6.66746C14.5624 6.40715 14.4261 6.12142 14.1657 6.02928C13.9054 5.93714 13.6197 6.07347 13.5276 6.33378C13.3506 6.83371 13.1599 7.55505 13.056 7.97614C12.5635 8.00833 12.0627 8.00989 11.5326 7.97414C11.2571 7.95557 11.0186 8.16386 11.0001 8.43937C10.9815 8.71489 11.1898 8.9533 11.4653 8.97188C11.9397 9.00387 12.392 9.00816 12.8326 8.98952C12.7193 9.55955 12.6381 10.074 12.5842 10.5409C11.418 11.1184 10.6646 11.9654 10.2849 12.8418C9.84301 13.8617 9.88857 15.0059 10.5334 15.6948C10.9624 16.1523 11.5936 16.2167 12.1699 16.0841C12.5899 15.9875 13.0274 15.78 13.4474 15.4808C13.4771 15.5469 13.506 15.6144 13.5343 15.6855C13.6364 15.9421 13.9272 16.0673 14.1838 15.9652C14.4404 15.8631 14.5656 15.5723 14.4635 15.3157C14.3952 15.1442 14.312 14.9662 14.2284 14.7932C15.0204 13.9472 15.6823 12.7243 15.9123 11.1869C16.677 11.4498 17.1868 11.9846 17.4051 12.5743C17.7907 13.6153 17.3699 15.1219 15.296 16.0437C15.0436 16.1558 14.93 16.4513 15.0421 16.7037C15.1543 16.956 15.4498 17.0697 15.7021 16.9575C18.1281 15.8793 18.9573 13.886 18.3429 12.227C17.9775 11.2405 17.1386 10.479 15.9973 10.1693C15.9985 10.1134 15.999 10.0572 15.999 10.0006C15.999 9.72447 15.7752 9.50061 15.499 9.50061C15.2229 9.50061 14.999 9.72447 14.999 10.0006L14.999 10.0214C14.5732 10.0061 14.1196 10.0466 13.6445 10.1508C13.7008 9.77145 13.7753 9.35715 13.8711 8.90344C14.6095 8.8135 15.3384 8.66682 16.1118 8.48771C16.3808 8.4254 16.5483 8.1568 16.486 7.88778C16.4237 7.61876 16.1551 7.45119 15.8861 7.51349C15.2659 7.65714 14.6871 7.77648 14.1172 7.86108C14.2176 7.47771 14.3495 7.00849 14.4703 6.66746ZM11.2025 13.2393C11.4264 12.7226 11.843 12.1827 12.5004 11.7417C12.4893 12.3749 12.5399 12.9002 12.6307 13.3537C12.7266 13.833 12.8652 14.2206 13.0115 14.5583C12.6305 14.8577 12.2572 15.0379 11.9457 15.1096C11.5618 15.1979 11.3567 15.1106 11.2632 15.0111C10.9875 14.7166 10.8536 14.0445 11.2025 13.2393ZM14.9265 11.0169C14.7584 12.1671 14.3154 13.0962 13.7802 13.7803C13.715 13.5919 13.6572 13.3874 13.6112 13.1574C13.514 12.6716 13.4657 12.0551 13.5244 11.2227C13.5641 11.2079 13.6044 11.1934 13.6451 11.1792C14.1105 11.0566 14.5384 11.0074 14.9265 11.0169Z" fill="currentcolor"/>
        </symbol>

    </defs>
</svg>