<svg>
    <defs>
        <symbol width="20" height="20" fill="none"
            xmlns="http://www.w3.org/2000/svg" id="layer-diagonal-20-regular">
            <path d="M10.5 3.5c0-.4-.4-.6-.7-.5L4 5.4c-.5.2-.9.7-.9 1.4v5.7c0 .4.4.6.7.5l.3-.2V14c-1 .4-2-.4-2-1.4V6.8c0-1 .6-2 1.6-2.4l5.8-2.3c1-.4 2 .3 2.1 1.3l-1 .4v-.3Zm3 2c0-.4-.4-.6-.7-.5L6.6 7.5a1 1 0 0 0-.6 1v6c0 .4.4.6.7.5l1.3-.6v1.1L7 16c-1 .4-2-.3-2-1.4v-6a2 2 0 0 1 1.3-2l6.1-2.4c1-.4 2.1.3 2.1 1.4v.1l-1 .4v-.5ZM16.3 7c.3 0 .7.1.7.5v6.6c0 .2-.1.4-.3.5l-6 2.4a.5.5 0 0 1-.7-.5V9.9c0-.2.1-.4.3-.5l6-2.4Zm1.7.5c0-1-1-1.8-2-1.4l-6 2.4c-.6.2-1 .8-1 1.4v6.6c0 1 1 1.8 2 1.4l6-2.4c.6-.2 1-.8 1-1.4V7.5Z" fill="currentcolor"/>
        </symbol>
        <symbol width="20" height="20" fill="none"
            xmlns="http://www.w3.org/2000/svg" id="tab-position-horizontal-20-regular">
            <path fill-rule="evenodd" clip-rule="evenodd" d="M5.5 3A2.5 2.5 0 0 0 3 5.5v9C3 15.9 4.1 17 5.5 17h9c1.4 0 2.5-1.1 2.5-2.5v-9C17 4.1 15.9 3 14.5 3h-9ZM4 14.5V7h2v9h-.5c-.8 0-1.5-.7-1.5-1.5ZM7 16V7h9v7.5c0 .8-.7 1.5-1.5 1.5H7Z" fill="currentcolor"/>
        </symbol>
        <symbol width="16" height="16" fill="none"
            xmlns="http://www.w3.org/2000/svg" id="tab-desktop-new-page-16-regular">
            <path d="M5 10a1 1 0 1 0 0-2 1 1 0 0 0 0 2Zm4-1a1 1 0 1 1-2 0 1 1 0 0 1 2 0Zm2 1a1 1 0 1 0 0-2 1 1 0 0 0 0 2ZM1 3.5C1 2.1 2.1 1 3.5 1h9C13.9 1 15 2.1 15 3.5v9c0 1.4-1.1 2.5-2.5 2.5h-9A2.5 2.5 0 0 1 1 12.5v-9ZM3.5 2C2.7 2 2 2.7 2 3.5v9c0 .8.7 1.5 1.5 1.5h9c.8 0 1.5-.7 1.5-1.5V5H7.5C6.7 5 6 4.3 6 3.5V2H3.5ZM14 3.5c0-.8-.7-1.5-1.5-1.5H7v1.5c0 .3.2.5.5.5H14v-.5Z" fill="currentcolor"/>
        </symbol>
        <symbol width="16" height="16" fill="none"
            xmlns="http://www.w3.org/2000/svg" id="dismiss-16-regular">
            <path d="m4.089 4.216.057-.07a.5.5 0 0 1 .638-.057l.07.057L8 7.293l3.146-3.147a.5.5 0 0 1 .708.708L8.707 8l3.147 3.146a.5.5 0 0 1 .057.638l-.057.07a.5.5 0 0 1-.638.057l-.07-.057L8 8.707l-3.146 3.147a.5.5 0 0 1-.708-.708L7.293 8 4.146 4.854a.5.5 0 0 1-.057-.638l.057-.07-.057.07Z" fill="currentcolor"/>
        </symbol>
    </defs>
</svg>