<svg xmlns="http://www.w3.org/2000/svg">
    <defs>
        <symbol width="20" height="20" fill="none" id="layer-diagonal-20-regular">
            <path d="M10.5 3.5c0-.4-.4-.6-.7-.5L4 5.4c-.5.2-.9.7-.9 1.4v5.7c0 .4.4.6.7.5l.3-.2V14c-1 .4-2-.4-2-1.4V6.8c0-1 .6-2 1.6-2.4l5.8-2.3c1-.4 2 .3 2.1 1.3l-1 .4v-.3Zm3 2c0-.4-.4-.6-.7-.5L6.6 7.5a1 1 0 0 0-.6 1v6c0 .4.4.6.7.5l1.3-.6v1.1L7 16c-1 .4-2-.3-2-1.4v-6a2 2 0 0 1 1.3-2l6.1-2.4c1-.4 2.1.3 2.1 1.4v.1l-1 .4v-.5ZM16.3 7c.3 0 .7.1.7.5v6.6c0 .2-.1.4-.3.5l-6 2.4a.5.5 0 0 1-.7-.5V9.9c0-.2.1-.4.3-.5l6-2.4Zm1.7.5c0-1-1-1.8-2-1.4l-6 2.4c-.6.2-1 .8-1 1.4v6.6c0 1 1 1.8 2 1.4l6-2.4c.6-.2 1-.8 1-1.4V7.5Z" fill="currentcolor"/>
        </symbol>
        <symbol width="20" height="20" fill="none" id="tab-position-horizontal-20-regular">
            <path fill-rule="evenodd" clip-rule="evenodd" d="M5.5 3A2.5 2.5 0 0 0 3 5.5v9C3 15.9 4.1 17 5.5 17h9c1.4 0 2.5-1.1 2.5-2.5v-9C17 4.1 15.9 3 14.5 3h-9ZM4 14.5V7h2v9h-.5c-.8 0-1.5-.7-1.5-1.5ZM7 16V7h9v7.5c0 .8-.7 1.5-1.5 1.5H7Z" fill="currentcolor"/>
        </symbol>
        <symbol width="16" height="16" fill="none" id="tab-desktop-new-page-16-regular">
            <path d="M5 10a1 1 0 1 0 0-2 1 1 0 0 0 0 2Zm4-1a1 1 0 1 1-2 0 1 1 0 0 1 2 0Zm2 1a1 1 0 1 0 0-2 1 1 0 0 0 0 2ZM1 3.5C1 2.1 2.1 1 3.5 1h9C13.9 1 15 2.1 15 3.5v9c0 1.4-1.1 2.5-2.5 2.5h-9A2.5 2.5 0 0 1 1 12.5v-9ZM3.5 2C2.7 2 2 2.7 2 3.5v9c0 .8.7 1.5 1.5 1.5h9c.8 0 1.5-.7 1.5-1.5V5H7.5C6.7 5 6 4.3 6 3.5V2H3.5ZM14 3.5c0-.8-.7-1.5-1.5-1.5H7v1.5c0 .3.2.5.5.5H14v-.5Z" fill="currentcolor"/>
        </symbol>
        <symbol width="16" height="16" fill="none" id="dismiss-16-regular">
            <path d="m4.089 4.216.057-.07a.5.5 0 0 1 .638-.057l.07.057L8 7.293l3.146-3.147a.5.5 0 0 1 .708.708L8.707 8l3.147 3.146a.5.5 0 0 1 .057.638l-.057.07a.5.5 0 0 1-.638.057l-.07-.057L8 8.707l-3.146 3.147a.5.5 0 0 1-.708-.708L7.293 8 4.146 4.854a.5.5 0 0 1-.057-.638l.057-.07-.057.07Z" fill="currentcolor"/>
        </symbol>
        <symbol width="20" height="20" id="add-20-regular">
            <path d="M10 2.5a.5.5 0 0 0-1 0V9H2.5a.5.5 0 0 0 0 1H9v6.5a.5.5 0 0 0 1 0V10h6.5a.5.5 0 0 0 0-1H10V2.5Z" fill="currentcolor"/>
        </symbol>
        <symbol width="20" height="20" viewBox="0 0 20 20" fill="none" id="chrome-minimize-20-regular">
            <path d="M5.49805 10C5.42969 10 5.36458 9.98698 5.30273 9.96094C5.24414 9.9349 5.19206 9.89909 5.14648 9.85352C5.10091 9.80794 5.0651 9.75586 5.03906 9.69727C5.01302 9.63542 5 9.57031 5 9.50195C5 9.43359 5.01302 9.37012 5.03906 9.31152C5.0651 9.24967 5.10091 9.19596 5.14648 9.15039C5.19206 9.10156 5.24414 9.06413 5.30273 9.03809C5.36458 9.01204 5.42969 8.99902 5.49805 8.99902H14.502C14.5703 8.99902 14.6338 9.01204 14.6924 9.03809C14.7542 9.06413 14.8079 9.10156 14.8535 9.15039C14.8991 9.19596 14.9349 9.24967 14.9609 9.31152C14.987 9.37012 15 9.43359 15 9.50195C15 9.57031 14.987 9.63542 14.9609 9.69727C14.9349 9.75586 14.8991 9.80794 14.8535 9.85352C14.8079 9.89909 14.7542 9.9349 14.6924 9.96094C14.6338 9.98698 14.5703 10 14.502 10H5.49805Z" fill="currentcolor" />
        </symbol>
        <symbol width="20" height="20" viewBox="0 0 20 20" fill="none" id="chrome-maximize-20-regular">
            <path d="M6.47461 15C6.2793 15 6.09212 14.9609 5.91309 14.8828C5.73405 14.8014 5.57617 14.694 5.43945 14.5605C5.30599 14.4238 5.19857 14.266 5.11719 14.0869C5.03906 13.9079 5 13.7207 5 13.5254V6.47461C5 6.2793 5.03906 6.09212 5.11719 5.91309C5.19857 5.73405 5.30599 5.5778 5.43945 5.44434C5.57617 5.30762 5.73405 5.2002 5.91309 5.12207C6.09212 5.04069 6.2793 5 6.47461 5H13.5254C13.7207 5 13.9079 5.04069 14.0869 5.12207C14.266 5.2002 14.4222 5.30762 14.5557 5.44434C14.6924 5.5778 14.7998 5.73405 14.8779 5.91309C14.9593 6.09212 15 6.2793 15 6.47461V13.5254C15 13.7207 14.9593 13.9079 14.8779 14.0869C14.7998 14.266 14.6924 14.4238 14.5557 14.5605C14.4222 14.694 14.266 14.8014 14.0869 14.8828C13.9079 14.9609 13.7207 15 13.5254 15H6.47461ZM13.501 13.999C13.5693 13.999 13.6328 13.986 13.6914 13.96C13.7533 13.9339 13.807 13.8981 13.8525 13.8525C13.8981 13.807 13.9339 13.7549 13.96 13.6963C13.986 13.6344 13.999 13.5693 13.999 13.501V6.49902C13.999 6.43066 13.986 6.36719 13.96 6.30859C13.9339 6.24674 13.8981 6.19303 13.8525 6.14746C13.807 6.10189 13.7533 6.06608 13.6914 6.04004C13.6328 6.014 13.5693 6.00098 13.501 6.00098H6.49902C6.43066 6.00098 6.36556 6.014 6.30371 6.04004C6.24512 6.06608 6.19303 6.10189 6.14746 6.14746C6.10189 6.19303 6.06608 6.24674 6.04004 6.30859C6.014 6.36719 6.00098 6.43066 6.00098 6.49902V13.501C6.00098 13.5693 6.014 13.6344 6.04004 13.6963C6.06608 13.7549 6.10189 13.807 6.14746 13.8525C6.19303 13.8981 6.24512 13.9339 6.30371 13.96C6.36556 13.986 6.43066 13.999 6.49902 13.999H13.501Z" fill="currentcolor"/>
        </symbol>
        <symbol width="20" height="20" viewBox="0 0 20 20" fill="none" id="chrome-close-20-regular">
            <path d="M10 10.708L5.85449 14.8535C5.75684 14.9512 5.63965 15 5.50293 15C5.3597 15 5.23926 14.9528 5.1416 14.8584C5.0472 14.7607 5 14.6403 5 14.4971C5 14.3604 5.04883 14.2432 5.14648 14.1455L9.29199 10L5.14648 5.85449C5.04883 5.75684 5 5.63802 5 5.49805C5 5.42969 5.01302 5.36458 5.03906 5.30273C5.0651 5.24089 5.10091 5.1888 5.14648 5.14648C5.19206 5.10091 5.24577 5.0651 5.30762 5.03906C5.36947 5.01302 5.43457 5 5.50293 5C5.63965 5 5.75684 5.04883 5.85449 5.14648L10 9.29199L14.1455 5.14648C14.2432 5.04883 14.362 5 14.502 5C14.5703 5 14.6338 5.01302 14.6924 5.03906C14.7542 5.0651 14.8079 5.10091 14.8535 5.14648C14.8991 5.19206 14.9349 5.24577 14.9609 5.30762C14.987 5.36621 15 5.42969 15 5.49805C15 5.63802 14.9512 5.75684 14.8535 5.85449L10.708 10L14.8535 14.1455C14.9512 14.2432 15 14.3604 15 14.4971C15 14.5654 14.987 14.6305 14.9609 14.6924C14.9349 14.7542 14.8991 14.8079 14.8535 14.8535C14.8112 14.8991 14.7591 14.9349 14.6973 14.9609C14.6354 14.987 14.5703 15 14.502 15C14.362 15 14.2432 14.9512 14.1455 14.8535L10 10.708Z" fill="currentcolor"/>
        </symbol>
        <symbol width="20" height="20" fill="none" id="back-20-regular">
            <path d="M9.15898 16.8666C9.36292 17.0528 9.67918 17.0384 9.86536 16.8345C10.0515 16.6305 10.0371 16.3143 9.8332 16.1281L3.66535 10.4974H17.4961C17.7722 10.4974 17.9961 10.2735 17.9961 9.99736C17.9961 9.72122 17.7722 9.49736 17.4961 9.49736H3.66824L9.8332 3.86927C10.0371 3.68309 10.0515 3.36684 9.86536 3.16289C9.67918 2.95895 9.36292 2.94456 9.15898 3.13074L2.24263 9.44478C2.10268 9.57254 2.02285 9.74008 2.00314 9.91323C1.99851 9.94058 1.99609 9.96869 1.99609 9.99736C1.99609 10.0242 1.99821 10.0506 2.00229 10.0763C2.02047 10.2522 2.10058 10.4229 2.24263 10.5526L9.15898 16.8666Z" fill="currentcolor"/>
        </symbol>
        <symbol width="20" height="20" fill="none" id="arrow-clockwise-20-regular">
            <path d="M4 10C4 6.68629 6.68629 4 10 4C11.7766 4 13.3732 4.77191 14.4723 6H12.5C12.2239 6 12 6.22386 12 6.5C12 6.77614 12.2239 7 12.5 7H15.5C15.7761 7 16 6.77614 16 6.5V3.5C16 3.22386 15.7761 3 15.5 3C15.2239 3 15 3.22386 15 3.5V5.10109C13.7299 3.80499 11.9591 3 10 3C6.13401 3 3 6.13401 3 10C3 13.866 6.13401 17 10 17C13.866 17 17 13.866 17 10C17 9.8191 16.9931 9.6397 16.9796 9.46207C16.9587 9.18673 16.7185 8.98049 16.4431 9.00144C16.1678 9.02239 15.9615 9.26258 15.9825 9.53793C15.9941 9.69034 16 9.84443 16 10C16 13.3137 13.3137 16 10 16C6.68629 16 4 13.3137 4 10Z" fill="currentcolor" />
        </symbol>
        <symbol width="20" height="20" fill="none" id="star-list-horizontal-20-regular">
            <path d="M9.10431 2.89886C9.47113 2.15561 10.531 2.15562 10.8978 2.89889L12.9217 6.99995H17.5008C17.777 6.99995 18.0008 7.22381 18.0008 7.49995C18.0008 7.7761 17.777 7.99995 17.5008 7.99995H12.9217C12.541 7.99995 12.1934 7.78384 12.0249 7.4425L10.001 3.34143L8.07062 7.2529C7.92496 7.54804 7.6434 7.75261 7.31769 7.79994L3.00109 8.42718L6.12461 11.4719C6.3603 11.7016 6.46784 12.0326 6.41221 12.357L5.67484 16.6561L9.76839 14.504C10.0128 14.3755 10.3151 14.4695 10.4436 14.7139C10.5721 14.9583 10.4782 15.2607 10.2337 15.3892L6.14018 17.5413C5.40655 17.927 4.54913 17.304 4.68924 16.4871L5.4266 12.1879L2.30308 9.14326C1.70956 8.56472 2.03708 7.55675 2.8573 7.43757L7.17389 6.81033L9.10431 2.89886ZM12 10.5C12 10.2239 12.2239 10 12.5 10H17.5C17.7761 10 18 10.2239 18 10.5C18 10.7761 17.7761 11 17.5 11H12.5C12.2239 11 12 10.7761 12 10.5ZM12.5 13C12.2239 13 12 13.2239 12 13.5C12 13.7761 12.2239 14 12.5 14H17.5C17.7761 14 18 13.7761 18 13.5C18 13.2239 17.7761 13 17.5 13H12.5Z" fill="currentcolor"/>
        </symbol>
        <symbol width="20" height="20" fill="none" id="more-horizontal-20-regular">
            <path d="M6.25 10C6.25 10.6904 5.69036 11.25 5 11.25C4.30964 11.25 3.75 10.6904 3.75 10C3.75 9.30964 4.30964 8.75 5 8.75C5.69036 8.75 6.25 9.30964 6.25 10ZM11.25 10C11.25 10.6904 10.6904 11.25 10 11.25C9.30964 11.25 8.75 10.6904 8.75 10C8.75 9.30964 9.30964 8.75 10 8.75C10.6904 8.75 11.25 9.30964 11.25 10ZM15 11.25C15.6904 11.25 16.25 10.6904 16.25 10C16.25 9.30964 15.6904 8.75 15 8.75C14.3096 8.75 13.75 9.30964 13.75 10C13.75 10.6904 14.3096 11.25 15 11.25Z" fill="currentcolor"/>
        </symbol>
    </defs>
</svg>