<svg xmlns="http://www.w3.org/2000/svg">
    <defs>
        <symbol width="20" height="20" fill="none" id="layer-diagonal-20-regular">
            <path d="M10.5 3.5c0-.4-.4-.6-.7-.5L4 5.4c-.5.2-.9.7-.9 1.4v5.7c0 .4.4.6.7.5l.3-.2V14c-1 .4-2-.4-2-1.4V6.8c0-1 .6-2 1.6-2.4l5.8-2.3c1-.4 2 .3 2.1 1.3l-1 .4v-.3Zm3 2c0-.4-.4-.6-.7-.5L6.6 7.5a1 1 0 0 0-.6 1v6c0 .4.4.6.7.5l1.3-.6v1.1L7 16c-1 .4-2-.3-2-1.4v-6a2 2 0 0 1 1.3-2l6.1-2.4c1-.4 2.1.3 2.1 1.4v.1l-1 .4v-.5ZM16.3 7c.3 0 .7.1.7.5v6.6c0 .2-.1.4-.3.5l-6 2.4a.5.5 0 0 1-.7-.5V9.9c0-.2.1-.4.3-.5l6-2.4Zm1.7.5c0-1-1-1.8-2-1.4l-6 2.4c-.6.2-1 .8-1 1.4v6.6c0 1 1 1.8 2 1.4l6-2.4c.6-.2 1-.8 1-1.4V7.5Z" fill="currentcolor"/>
        </symbol>
        <symbol width="20" height="20" fill="none" id="tab-position-horizontal-20-regular">
            <path fill-rule="evenodd" clip-rule="evenodd" d="M5.5 3A2.5 2.5 0 0 0 3 5.5v9C3 15.9 4.1 17 5.5 17h9c1.4 0 2.5-1.1 2.5-2.5v-9C17 4.1 15.9 3 14.5 3h-9ZM4 14.5V7h2v9h-.5c-.8 0-1.5-.7-1.5-1.5ZM7 16V7h9v7.5c0 .8-.7 1.5-1.5 1.5H7Z" fill="currentcolor"/>
        </symbol>
        <symbol width="16" height="16" fill="none" id="tab-desktop-new-page-16-regular">
            <path d="M5 10a1 1 0 1 0 0-2 1 1 0 0 0 0 2Zm4-1a1 1 0 1 1-2 0 1 1 0 0 1 2 0Zm2 1a1 1 0 1 0 0-2 1 1 0 0 0 0 2ZM1 3.5C1 2.1 2.1 1 3.5 1h9C13.9 1 15 2.1 15 3.5v9c0 1.4-1.1 2.5-2.5 2.5h-9A2.5 2.5 0 0 1 1 12.5v-9ZM3.5 2C2.7 2 2 2.7 2 3.5v9c0 .8.7 1.5 1.5 1.5h9c.8 0 1.5-.7 1.5-1.5V5H7.5C6.7 5 6 4.3 6 3.5V2H3.5ZM14 3.5c0-.8-.7-1.5-1.5-1.5H7v1.5c0 .3.2.5.5.5H14v-.5Z" fill="currentcolor"/>
        </symbol>
        <symbol width="16" height="16" fill="none" id="dismiss-12-regular">
            <path d="m4.089 4.216.057-.07a.5.5 0 0 1 .638-.057l.07.057L8 7.293l3.146-3.147a.5.5 0 0 1 .708.708L8.707 8l3.147 3.146a.5.5 0 0 1 .057.638l-.057.07a.5.5 0 0 1-.638.057l-.07-.057L8 8.707l-3.146 3.147a.5.5 0 0 1-.708-.708L7.293 8 4.146 4.854a.5.5 0 0 1-.057-.638l.057-.07-.057.07Z" fill="currentcolor"/>
        </symbol>
        <symbol width="20" height="20" viewBox="0 0 20 20" fill="none" id="dismiss-16-regular">
            <path d="M4.58859 4.71569L4.64645 4.64645C4.82001 4.47288 5.08944 4.4536 5.28431 4.58859L5.35355 4.64645L10 9.293L14.6464 4.64645C14.8417 4.45118 15.1583 4.45118 15.3536 4.64645C15.5488 4.84171 15.5488 5.15829 15.3536 5.35355L10.707 10L15.3536 14.6464C15.5271 14.82 15.5464 15.0894 15.4114 15.2843L15.3536 15.3536C15.18 15.5271 14.9106 15.5464 14.7157 15.4114L14.6464 15.3536L10 10.707L5.35355 15.3536C5.15829 15.5488 4.84171 15.5488 4.64645 15.3536C4.45118 15.1583 4.45118 14.8417 4.64645 14.6464L9.293 10L4.64645 5.35355C4.47288 5.17999 4.4536 4.91056 4.58859 4.71569L4.64645 4.64645L4.58859 4.71569Z" fill="currentcolor"/>
        </symbol>
        <symbol width="20" height="20" id="add-20-regular">
            <path d="M10 2.5a.5.5 0 0 0-1 0V9H2.5a.5.5 0 0 0 0 1H9v6.5a.5.5 0 0 0 1 0V10h6.5a.5.5 0 0 0 0-1H10V2.5Z" fill="currentcolor"/>
        </symbol>
        <symbol width="20" height="20" viewBox="0 0 20 20" fill="none" id="chrome-minimize-20-regular">
            <path d="M5.49805 10C5.42969 10 5.36458 9.98698 5.30273 9.96094C5.24414 9.9349 5.19206 9.89909 5.14648 9.85352C5.10091 9.80794 5.0651 9.75586 5.03906 9.69727C5.01302 9.63542 5 9.57031 5 9.50195C5 9.43359 5.01302 9.37012 5.03906 9.31152C5.0651 9.24967 5.10091 9.19596 5.14648 9.15039C5.19206 9.10156 5.24414 9.06413 5.30273 9.03809C5.36458 9.01204 5.42969 8.99902 5.49805 8.99902H14.502C14.5703 8.99902 14.6338 9.01204 14.6924 9.03809C14.7542 9.06413 14.8079 9.10156 14.8535 9.15039C14.8991 9.19596 14.9349 9.24967 14.9609 9.31152C14.987 9.37012 15 9.43359 15 9.50195C15 9.57031 14.987 9.63542 14.9609 9.69727C14.9349 9.75586 14.8991 9.80794 14.8535 9.85352C14.8079 9.89909 14.7542 9.9349 14.6924 9.96094C14.6338 9.98698 14.5703 10 14.502 10H5.49805Z" fill="currentcolor" />
        </symbol>
        <symbol width="20" height="20" viewBox="0 0 20 20" fill="none" id="chrome-maximize-20-regular">
            <path d="M6.47461 15C6.2793 15 6.09212 14.9609 5.91309 14.8828C5.73405 14.8014 5.57617 14.694 5.43945 14.5605C5.30599 14.4238 5.19857 14.266 5.11719 14.0869C5.03906 13.9079 5 13.7207 5 13.5254V6.47461C5 6.2793 5.03906 6.09212 5.11719 5.91309C5.19857 5.73405 5.30599 5.5778 5.43945 5.44434C5.57617 5.30762 5.73405 5.2002 5.91309 5.12207C6.09212 5.04069 6.2793 5 6.47461 5H13.5254C13.7207 5 13.9079 5.04069 14.0869 5.12207C14.266 5.2002 14.4222 5.30762 14.5557 5.44434C14.6924 5.5778 14.7998 5.73405 14.8779 5.91309C14.9593 6.09212 15 6.2793 15 6.47461V13.5254C15 13.7207 14.9593 13.9079 14.8779 14.0869C14.7998 14.266 14.6924 14.4238 14.5557 14.5605C14.4222 14.694 14.266 14.8014 14.0869 14.8828C13.9079 14.9609 13.7207 15 13.5254 15H6.47461ZM13.501 13.999C13.5693 13.999 13.6328 13.986 13.6914 13.96C13.7533 13.9339 13.807 13.8981 13.8525 13.8525C13.8981 13.807 13.9339 13.7549 13.96 13.6963C13.986 13.6344 13.999 13.5693 13.999 13.501V6.49902C13.999 6.43066 13.986 6.36719 13.96 6.30859C13.9339 6.24674 13.8981 6.19303 13.8525 6.14746C13.807 6.10189 13.7533 6.06608 13.6914 6.04004C13.6328 6.014 13.5693 6.00098 13.501 6.00098H6.49902C6.43066 6.00098 6.36556 6.014 6.30371 6.04004C6.24512 6.06608 6.19303 6.10189 6.14746 6.14746C6.10189 6.19303 6.06608 6.24674 6.04004 6.30859C6.014 6.36719 6.00098 6.43066 6.00098 6.49902V13.501C6.00098 13.5693 6.014 13.6344 6.04004 13.6963C6.06608 13.7549 6.10189 13.807 6.14746 13.8525C6.19303 13.8981 6.24512 13.9339 6.30371 13.96C6.36556 13.986 6.43066 13.999 6.49902 13.999H13.501Z" fill="currentcolor"/>
        </symbol>
        <symbol width="20" height="20" viewBox="0 0 20 20" fill="none" id="chrome-restore-20-regular">
            <path d="M13.999 7.96387C13.999 7.69368 13.9453 7.43978 13.8379 7.20215C13.7305 6.96126 13.584 6.75293 13.3984 6.57715C13.2161 6.39811 13.0029 6.25814 12.7588 6.15723C12.5179 6.05306 12.264 6.00098 11.9971 6.00098H7.08496C7.13704 5.85124 7.21029 5.71452 7.30469 5.59082C7.39909 5.46712 7.50814 5.36133 7.63184 5.27344C7.75553 5.18555 7.89062 5.11882 8.03711 5.07324C8.18685 5.02441 8.34147 5 8.50098 5H11.9971C12.4105 5 12.7995 5.07975 13.1641 5.23926C13.5286 5.39551 13.846 5.60872 14.1162 5.87891C14.3896 6.14909 14.6045 6.46647 14.7607 6.83105C14.9202 7.19564 15 7.58464 15 7.99805V11.499C15 11.6585 14.9756 11.8132 14.9268 11.9629C14.8812 12.1094 14.8145 12.2445 14.7266 12.3682C14.6387 12.4919 14.5329 12.6009 14.4092 12.6953C14.2855 12.7897 14.1488 12.863 13.999 12.915V7.96387ZM6.47461 15C6.2793 15 6.09212 14.9609 5.91309 14.8828C5.73405 14.8014 5.57617 14.694 5.43945 14.5605C5.30599 14.4238 5.19857 14.266 5.11719 14.0869C5.03906 13.9079 5 13.7207 5 13.5254V8.47656C5 8.27799 5.03906 8.09082 5.11719 7.91504C5.19857 7.736 5.30599 7.57975 5.43945 7.44629C5.57617 7.30957 5.73242 7.20215 5.9082 7.12402C6.08724 7.04264 6.27604 7.00195 6.47461 7.00195H11.5234C11.722 7.00195 11.9108 7.04264 12.0898 7.12402C12.2689 7.20215 12.4251 7.30794 12.5586 7.44141C12.6921 7.57487 12.7979 7.73112 12.876 7.91016C12.9574 8.08919 12.998 8.27799 12.998 8.47656V13.5254C12.998 13.724 12.9574 13.9128 12.876 14.0918C12.7979 14.2676 12.6904 14.4238 12.5537 14.5605C12.4202 14.694 12.264 14.8014 12.085 14.8828C11.9092 14.9609 11.722 15 11.5234 15H6.47461ZM11.499 13.999C11.5674 13.999 11.6309 13.986 11.6895 13.96C11.7513 13.9339 11.805 13.8981 11.8506 13.8525C11.8994 13.807 11.9368 13.7549 11.9629 13.6963C11.9889 13.6344 12.002 13.5693 12.002 13.501V8.50098C12.002 8.43262 11.9889 8.36751 11.9629 8.30566C11.9368 8.24382 11.901 8.1901 11.8555 8.14453C11.8099 8.09896 11.7562 8.06315 11.6943 8.03711C11.6325 8.01107 11.5674 7.99805 11.499 7.99805H6.49902C6.43066 7.99805 6.36556 8.01107 6.30371 8.03711C6.24512 8.06315 6.19303 8.10059 6.14746 8.14941C6.10189 8.19499 6.06608 8.2487 6.04004 8.31055C6.014 8.36914 6.00098 8.43262 6.00098 8.50098V13.501C6.00098 13.5693 6.014 13.6344 6.04004 13.6963C6.06608 13.7549 6.10189 13.807 6.14746 13.8525C6.19303 13.8981 6.24512 13.9339 6.30371 13.96C6.36556 13.986 6.43066 13.999 6.49902 13.999H11.499Z" fill="currentcolor" />
        </symbol>
        <symbol width="20" height="20" viewBox="0 0 20 20" fill="none" id="chrome-close-20-regular">
            <path d="M10 10.708L5.85449 14.8535C5.75684 14.9512 5.63965 15 5.50293 15C5.3597 15 5.23926 14.9528 5.1416 14.8584C5.0472 14.7607 5 14.6403 5 14.4971C5 14.3604 5.04883 14.2432 5.14648 14.1455L9.29199 10L5.14648 5.85449C5.04883 5.75684 5 5.63802 5 5.49805C5 5.42969 5.01302 5.36458 5.03906 5.30273C5.0651 5.24089 5.10091 5.1888 5.14648 5.14648C5.19206 5.10091 5.24577 5.0651 5.30762 5.03906C5.36947 5.01302 5.43457 5 5.50293 5C5.63965 5 5.75684 5.04883 5.85449 5.14648L10 9.29199L14.1455 5.14648C14.2432 5.04883 14.362 5 14.502 5C14.5703 5 14.6338 5.01302 14.6924 5.03906C14.7542 5.0651 14.8079 5.10091 14.8535 5.14648C14.8991 5.19206 14.9349 5.24577 14.9609 5.30762C14.987 5.36621 15 5.42969 15 5.49805C15 5.63802 14.9512 5.75684 14.8535 5.85449L10.708 10L14.8535 14.1455C14.9512 14.2432 15 14.3604 15 14.4971C15 14.5654 14.987 14.6305 14.9609 14.6924C14.9349 14.7542 14.8991 14.8079 14.8535 14.8535C14.8112 14.8991 14.7591 14.9349 14.6973 14.9609C14.6354 14.987 14.5703 15 14.502 15C14.362 15 14.2432 14.9512 14.1455 14.8535L10 10.708Z" fill="currentcolor"/>
        </symbol>
        <symbol width="20" height="20" fill="none" id="back-20-regular">
            <path d="M9.15898 16.8666C9.36292 17.0528 9.67918 17.0384 9.86536 16.8345C10.0515 16.6305 10.0371 16.3143 9.8332 16.1281L3.66535 10.4974H17.4961C17.7722 10.4974 17.9961 10.2735 17.9961 9.99736C17.9961 9.72122 17.7722 9.49736 17.4961 9.49736H3.66824L9.8332 3.86927C10.0371 3.68309 10.0515 3.36684 9.86536 3.16289C9.67918 2.95895 9.36292 2.94456 9.15898 3.13074L2.24263 9.44478C2.10268 9.57254 2.02285 9.74008 2.00314 9.91323C1.99851 9.94058 1.99609 9.96869 1.99609 9.99736C1.99609 10.0242 1.99821 10.0506 2.00229 10.0763C2.02047 10.2522 2.10058 10.4229 2.24263 10.5526L9.15898 16.8666Z" fill="currentcolor"/>
        </symbol>
        <symbol width="20" height="20" fill="none" id="arrow-clockwise-20-regular">
            <path d="M4 10C4 6.68629 6.68629 4 10 4C11.7766 4 13.3732 4.77191 14.4723 6H12.5C12.2239 6 12 6.22386 12 6.5C12 6.77614 12.2239 7 12.5 7H15.5C15.7761 7 16 6.77614 16 6.5V3.5C16 3.22386 15.7761 3 15.5 3C15.2239 3 15 3.22386 15 3.5V5.10109C13.7299 3.80499 11.9591 3 10 3C6.13401 3 3 6.13401 3 10C3 13.866 6.13401 17 10 17C13.866 17 17 13.866 17 10C17 9.8191 16.9931 9.6397 16.9796 9.46207C16.9587 9.18673 16.7185 8.98049 16.4431 9.00144C16.1678 9.02239 15.9615 9.26258 15.9825 9.53793C15.9941 9.69034 16 9.84443 16 10C16 13.3137 13.3137 16 10 16C6.68629 16 4 13.3137 4 10Z" fill="currentcolor" />
        </symbol>
        <symbol width="20" height="20" fill="none" id="star-list-horizontal-20-regular">
            <path d="M9.10431 2.89886C9.47113 2.15561 10.531 2.15562 10.8978 2.89889L12.9217 6.99995H17.5008C17.777 6.99995 18.0008 7.22381 18.0008 7.49995C18.0008 7.7761 17.777 7.99995 17.5008 7.99995H12.9217C12.541 7.99995 12.1934 7.78384 12.0249 7.4425L10.001 3.34143L8.07062 7.2529C7.92496 7.54804 7.6434 7.75261 7.31769 7.79994L3.00109 8.42718L6.12461 11.4719C6.3603 11.7016 6.46784 12.0326 6.41221 12.357L5.67484 16.6561L9.76839 14.504C10.0128 14.3755 10.3151 14.4695 10.4436 14.7139C10.5721 14.9583 10.4782 15.2607 10.2337 15.3892L6.14018 17.5413C5.40655 17.927 4.54913 17.304 4.68924 16.4871L5.4266 12.1879L2.30308 9.14326C1.70956 8.56472 2.03708 7.55675 2.8573 7.43757L7.17389 6.81033L9.10431 2.89886ZM12 10.5C12 10.2239 12.2239 10 12.5 10H17.5C17.7761 10 18 10.2239 18 10.5C18 10.7761 17.7761 11 17.5 11H12.5C12.2239 11 12 10.7761 12 10.5ZM12.5 13C12.2239 13 12 13.2239 12 13.5C12 13.7761 12.2239 14 12.5 14H17.5C17.7761 14 18 13.7761 18 13.5C18 13.2239 17.7761 13 17.5 13H12.5Z" fill="currentcolor"/>
        </symbol>
        <symbol width="20" height="20" fill="none" id="more-horizontal-20-regular">
            <path d="M6.25 10C6.25 10.6904 5.69036 11.25 5 11.25C4.30964 11.25 3.75 10.6904 3.75 10C3.75 9.30964 4.30964 8.75 5 8.75C5.69036 8.75 6.25 9.30964 6.25 10ZM11.25 10C11.25 10.6904 10.6904 11.25 10 11.25C9.30964 11.25 8.75 10.6904 8.75 10C8.75 9.30964 9.30964 8.75 10 8.75C10.6904 8.75 11.25 9.30964 11.25 10ZM15 11.25C15.6904 11.25 16.25 10.6904 16.25 10C16.25 9.30964 15.6904 8.75 15 8.75C14.3096 8.75 13.75 9.30964 13.75 10C13.75 10.6904 14.3096 11.25 15 11.25Z" fill="currentcolor"/>
        </symbol>
        <symbol width="20" height="20" viewBox="0 0 20 20" fill="none" id="lock-closed-20-regular">
            <path d="M10 13C10.5523 13 11 12.5523 11 12C11 11.4477 10.5523 11 10 11C9.44771 11 9 11.4477 9 12C9 12.5523 9.44771 13 10 13ZM6 6H7V5C7 3.34315 8.34315 2 10 2C11.6569 2 13 3.34315 13 5V6H14C15.6569 6 17 7.34315 17 9V15C17 16.6569 15.6569 18 14 18H6C4.34315 18 3 16.6569 3 15V9C3 7.34315 4.34315 6 6 6ZM10 3C8.89543 3 8 3.89543 8 5V6H12V5C12 3.89543 11.1046 3 10 3ZM16 9C16 7.89543 15.1046 7 14 7H6C4.89543 7 4 7.89543 4 9V15C4 16.1046 4.89543 17 6 17H14C15.1046 17 16 16.1046 16 15V9Z" fill="currentcolor" />
        </symbol>
        <symbol width="21" height="20" viewBox="0 0 21 20" fill="none" id="search-20-regular">
            <path d="M8.5 3C11.5376 3 14 5.46243 14 8.5C14 9.83879 13.5217 11.0659 12.7266 12.0196L16.8536 16.1464C17.0488 16.3417 17.0488 16.6583 16.8536 16.8536C16.68 17.0271 16.4106 17.0464 16.2157 16.9114L16.1464 16.8536L12.0196 12.7266C11.0659 13.5217 9.83879 14 8.5 14C5.46243 14 3 11.5376 3 8.5C3 5.46243 5.46243 3 8.5 3ZM8.5 4C6.01472 4 4 6.01472 4 8.5C4 10.9853 6.01472 13 8.5 13C10.9853 13 13 10.9853 13 8.5C13 6.01472 10.9853 4 8.5 4Z" fill="currentcolor" />
        </symbol>
        <symbol width="20" height="20" viewBox="0 0 20 20" fill="none" id="star-add-20-regular">
            <path d="M9.10433 2.89899C9.47114 2.15574 10.531 2.15574 10.8978 2.89899L12.8282 6.81048L17.1448 7.43772C17.9651 7.55691 18.2926 8.56488 17.699 9.14342L17.1502 9.67839C16.8358 9.50531 16.5026 9.36209 16.1544 9.25257L17.001 8.42733L12.6844 7.80009C12.3587 7.75276 12.0772 7.54819 11.9315 7.25305L10.0011 3.34155L8.07062 7.25305C7.92496 7.54819 7.6434 7.75276 7.31769 7.80009L3.00109 8.42733L6.12461 11.472C6.3603 11.7017 6.46784 12.0327 6.41221 12.3571L5.67484 16.6563L9.01625 14.8996C9.04183 15.2559 9.10136 15.6029 9.19162 15.9372L6.14018 17.5414C5.40655 17.9271 4.54913 17.3041 4.68924 16.4872L5.4266 12.1881L2.30308 9.14341C1.70956 8.56488 2.03708 7.55691 2.8573 7.43772L7.17389 6.81048L9.10433 2.89899ZM19.002 14.5C19.002 16.9853 16.9872 19 14.502 19C12.0167 19 10.002 16.9853 10.002 14.5C10.002 12.0147 12.0167 10 14.502 10C16.9872 10 19.002 12.0147 19.002 14.5ZM15.002 12.5C15.002 12.2239 14.7781 12 14.502 12C14.2258 12 14.002 12.2239 14.002 12.5V14H12.502C12.2258 14 12.002 14.2239 12.002 14.5C12.002 14.7761 12.2258 15 12.502 15H14.002V16.5C14.002 16.7761 14.2258 17 14.502 17C14.7781 17 15.002 16.7761 15.002 16.5V15H16.502C16.7781 15 17.002 14.7761 17.002 14.5C17.002 14.2239 16.7781 14 16.502 14H15.002V12.5Z" fill="currentcolor" />
        </symbol>
        <symbol width="20" height="20" viewBox="0 0 20 20" fill="none" id="panel-left-text-20-regular">
            <path d="M6.58988 6.99194C6.82312 6.94961 7 6.74546 7 6.5C7 6.22386 6.77614 6 6.5 6H4.5L4.41012 6.00806C4.17688 6.05039 4 6.25454 4 6.5C4 6.77614 4.22386 7 4.5 7H6.5L6.58988 6.99194ZM6.58988 9.99194C6.82312 9.94961 7 9.74546 7 9.5C7 9.22386 6.77614 9 6.5 9H4.5L4.41012 9.00806C4.17688 9.05039 4 9.25454 4 9.5C4 9.77614 4.22386 10 4.5 10H6.5L6.58988 9.99194ZM6.58988 12.9919C6.82312 12.9496 7 12.7455 7 12.5C7 12.2239 6.77614 12 6.5 12H4.5L4.41012 12.0081C4.17688 12.0504 4 12.2545 4 12.5C4 12.7761 4.22386 13 4.5 13H6.5L6.58988 12.9919ZM5 3C3.34315 3 2 4.34315 2 6V13C2 14.6569 3.34315 16 5 16H15C16.6569 16 18 14.6569 18 13V6C18 4.34315 16.6569 3 15 3H5ZM15 15H9V4H15C16.1046 4 17 4.89543 17 6V13C17 14.1046 16.1046 15 15 15ZM5 4H8V15H5C3.89543 15 3 14.1046 3 13V6C3 4.89543 3.89543 4 5 4Z" fill="currentcolor" />
        </symbol>
        <symbol width="20" height="20" viewBox="0 0 20 20" fill="none" id="star-20-regular">
            <path d="M9.10433 2.89874C9.47114 2.15549 10.531 2.1555 10.8978 2.89874L12.8282 6.81024L17.1448 7.43748C17.9651 7.55666 18.2926 8.56464 17.699 9.14317L14.5755 12.1878L15.3129 16.487C15.453 17.3039 14.5956 17.9269 13.8619 17.5412L10.0011 15.5114L6.14018 17.5412C5.40655 17.9269 4.54913 17.3039 4.68924 16.487L5.4266 12.1878L2.30308 9.14317C1.70956 8.56463 2.03708 7.55666 2.8573 7.43748L7.17389 6.81024L9.10433 2.89874ZM10.0011 3.34131L8.07062 7.25281C7.92496 7.54795 7.6434 7.75252 7.31769 7.79985L3.00109 8.42709L6.12461 11.4718C6.3603 11.7015 6.46784 12.0325 6.41221 12.3569L5.67484 16.656L9.53572 14.6263C9.82705 14.4731 10.1751 14.4731 10.4664 14.6263L14.3273 16.656L13.5899 12.3569C13.5343 12.0325 13.6418 11.7015 13.8775 11.4718L17.001 8.42709L12.6844 7.79985C12.3587 7.75252 12.0772 7.54795 11.9315 7.25281L10.0011 3.34131Z" fill="currentcolor" />
        </symbol>
        <symbol width="24" height="24" viewBox="0 0 24 24" fill="none" id="cast-20-regular">
            <path d="M2 6.25C2 5.00736 3.00736 4 4.25 4H19.75C20.9926 4 22 5.00736 22 6.25V17.75C22 18.9926 20.9926 20 19.75 20H4.25C3.00736 20 2 18.9926 2 17.75V6.25ZM4.25 5.5C3.83579 5.5 3.5 5.83579 3.5 6.25V17.75C3.5 18.1642 3.83579 18.5 4.25 18.5H19.75C20.1642 18.5 20.5 18.1642 20.5 17.75V6.25C20.5 5.83579 20.1642 5.5 19.75 5.5H4.25ZM6.9959 15.9955C6.9959 16.5466 6.5491 16.9934 5.99795 16.9934C5.4468 16.9934 5 16.5466 5 15.9955C5 15.4443 5.4468 14.9975 5.99795 14.9975C6.5491 14.9975 6.9959 15.4443 6.9959 15.9955ZM4.9958 12.7506C4.9958 12.3363 5.33159 12.0006 5.7458 12.0006C8.09138 12.0006 9.99284 13.902 9.99284 16.2476C9.99284 16.6618 9.65705 16.9976 9.24284 16.9976C8.82863 16.9976 8.49284 16.6618 8.49284 16.2476C8.49284 14.7304 7.26295 13.5006 5.7458 13.5006C5.33159 13.5006 4.9958 13.1648 4.9958 12.7506ZM4.9958 9.74379C4.9958 9.32958 5.33159 8.99379 5.7458 8.99379C9.75197 8.99379 12.9996 12.2414 12.9996 16.2476C12.9996 16.6618 12.6638 16.9976 12.2496 16.9976C11.8354 16.9976 11.4996 16.6618 11.4996 16.2476C11.4996 13.0699 8.92354 10.4938 5.7458 10.4938C5.33159 10.4938 4.9958 10.158 4.9958 9.74379Z" fill="currentcolor"/>
        </symbol>
        <symbol width="20" height="20" viewBox="0 0 20 20" fill="none" id="chevron-right-20-regular">
            <path d="M7.64582 4.14708C7.84073 3.95147 8.15731 3.9509 8.35292 4.14582L13.8374 9.6108C14.0531 9.82574 14.0531 10.1751 13.8374 10.39L8.35292 15.855C8.15731 16.0499 7.84073 16.0493 7.64582 15.8537C7.4509 15.6581 7.45147 15.3415 7.64708 15.1466L12.8117 10.0004L7.64708 4.85418C7.45147 4.65927 7.4509 4.34269 7.64582 4.14708Z" fill="currentcolor" />
        </symbol>
        <symbol width="20" height="20" viewBox="0 0 20 20" fill="none" id="subtract-16-regular">
            <path d="M5 10C5 9.72386 5.22386 9.5 5.5 9.5H14.5C14.7761 9.5 15 9.72386 15 10C15 10.2761 14.7761 10.5 14.5 10.5H5.5C5.22386 10.5 5 10.2761 5 10Z" fill="currentcolor" />
        </symbol>
        <symbol width="20" height="20" viewBox="0 0 20 20" fill="none" id="add-16-regular">
            <path d="M10 4.5C10 4.22386 9.77614 4 9.5 4C9.22386 4 9 4.22386 9 4.5V9H4.5C4.22386 9 4 9.22386 4 9.5C4 9.77614 4.22386 10 4.5 10H9V14.5C9 14.7761 9.22386 15 9.5 15C9.77614 15 10 14.7761 10 14.5V10H14.5C14.7761 10 15 9.77614 15 9.5C15 9.22386 14.7761 9 14.5 9H10V4.5Z" fill="currentcolor" />
        </symbol>
        <symbol width="20" height="20" viewBox="0 0 20 20" fill="none" id="arrow-maximize-16-regular">
            <path d="M10.5 4C10.2239 4 10 4.22386 10 4.5C10 4.77614 10.2239 5 10.5 5H14.2929L5 14.2929V10.5C5 10.2239 4.77614 10 4.5 10C4.22386 10 4 10.2239 4 10.5V15.4C4 15.7314 4.26863 16 4.6 16H9.5C9.77614 16 10 15.7761 10 15.5C10 15.2239 9.77614 15 9.5 15H5.70711L15 5.70711V9.5C15 9.77614 15.2239 10 15.5 10C15.7761 10 16 9.77614 16 9.5V4.6C16 4.26863 15.7314 4 15.4 4H10.5Z" fill="currentcolor" />
        </symbol>
        <symbol width="20" height="20" viewBox="0 0 20 20" fill="none" id="puzzle-piece-20-regular">
            <path d="M11 3C10.3096 3 9.75 3.55964 9.75 4.25V5H6.5C6.22386 5 6 5.22386 6 5.5V8.75H5.25C4.55964 8.75 4 9.30964 4 10C4 10.6904 4.55964 11.25 5.25 11.25H6V14.5C6 14.7761 6.22386 15 6.5 15H9.75V15.75C9.75 16.4404 10.3096 17 11 17C11.6904 17 12.25 16.4404 12.25 15.75V15H15.5C15.7761 15 16 14.7761 16 14.5V12.25H15.25C14.0074 12.25 13 11.2426 13 10C13 8.75736 14.0074 7.75 15.25 7.75H16V5.5C16 5.22386 15.7761 5 15.5 5H12.25V4.25C12.25 3.55964 11.6904 3 11 3ZM8.76373 4C8.88809 2.87501 9.84186 2 11 2C12.1581 2 13.1119 2.87501 13.2363 4H15.5C16.3284 4 17 4.67157 17 5.5V8.75H15.25C14.5596 8.75 14 9.30964 14 10C14 10.6904 14.5596 11.25 15.25 11.25H17V14.5C17 15.3284 16.3284 16 15.5 16H13.2363C13.1119 17.125 12.1581 18 11 18C9.84186 18 8.88809 17.125 8.76373 16H6.5C5.67157 16 5 15.3284 5 14.5V12.2363C3.87501 12.1119 3 11.1581 3 10C3 8.84186 3.87501 7.88809 5 7.76373V5.5C5 4.67157 5.67157 4 6.5 4H8.76373Z" fill="currentcolor"/>
        </symbol>
        <symbol width="20" height="20" viewBox="0 0 20 20" fill="none" id="more-vertical-16-regular">
            <path d="M10 7C9.44772 7 9 6.55228 9 6C9 5.44772 9.44772 5 10 5C10.5523 5 11 5.44772 11 6C11 6.55228 10.5523 7 10 7ZM10 11C9.44771 11 9 10.5523 9 10C9 9.44772 9.44771 9 10 9C10.5523 9 11 9.44772 11 10C11 10.5523 10.5523 11 10 11ZM9 14C9 14.5523 9.44771 15 10 15C10.5523 15 11 14.5523 11 14C11 13.4477 10.5523 13 10 13C9.44771 13 9 13.4477 9 14Z" fill="currentcolor"/>
        </symbol>
        <symbol width="20" height="20" viewBox="0 0 20 20" fill="none" id="arrow-clockwise-16-regular">
            <path d="M5 10C5 7.23858 7.23858 5 10 5C11.6353 5 13.0878 5.78495 14.0005 7H12C11.7239 7 11.5 7.22386 11.5 7.5C11.5 7.77614 11.7239 8 12 8H14.8904C14.8973 8.00014 14.9041 8.00014 14.911 8H15C15.2761 8 15.5 7.77614 15.5 7.5V4.5C15.5 4.22386 15.2761 4 15 4C14.7239 4 14.5 4.22386 14.5 4.5V6.03138C13.4009 4.78613 11.7925 4 10 4C6.68629 4 4 6.68629 4 10C4 13.3137 6.68629 16 10 16C13.1301 16 15.6999 13.6035 15.9756 10.5449C16.0003 10.2698 15.7975 10.0268 15.5225 10.002C15.2474 9.97723 15.0044 10.1801 14.9796 10.4551C14.75 13.003 12.6079 15 10 15C7.23858 15 5 12.7614 5 10Z" fill="currentcolor"/>
        </symbol>
        <symbol width="20" height="20" viewBox="0 0 20 20" fill="none" id="mic-new-20-regular">
            <path fill-rule="evenodd" clip-rule="evenodd" d="M14.4141 4.94168C14.4141 2.50506 12.4388 0.529785 10.0022 0.529785C7.56555 0.529785 5.59028 2.50506 5.59028 4.94168L5.59028 11.4434C5.59028 13.88 7.56555 15.8553 10.0022 15.8553C12.4388 15.8553 14.4141 13.88 14.4141 11.4434L14.4141 4.94168ZM10.0022 1.92301C11.6693 1.92301 13.0208 3.27452 13.0208 4.94168L13.0208 11.4434C13.0208 13.1106 11.6693 14.4621 10.0022 14.4621C8.33501 14.4621 6.98351 13.1106 6.98351 11.4434L6.98351 4.94168C6.98351 3.27452 8.33501 1.92301 10.0022 1.92301Z" fill="currentcolor"/>
            <path fill-rule="evenodd" clip-rule="evenodd" d="M17.4327 7.03152C17.048 7.03152 16.7361 7.34341 16.7361 7.72813V11.4434C16.7361 15.1625 13.7212 18.1774 10.0022 18.1774C6.28312 18.1774 3.26823 15.1625 3.26823 11.4434L3.26823 7.72814C3.26823 7.34341 2.95634 7.03152 2.57161 7.03152C2.18688 7.03152 1.875 7.34341 1.875 7.72814L1.875 11.4434C1.875 15.9319 5.51366 19.5706 10.0022 19.5706C14.4907 19.5706 18.1293 15.9319 18.1293 11.4434V7.72813C18.1293 7.34341 17.8175 7.03152 17.4327 7.03152Z" fill="currentcolor"/>
        </symbol>
        <symbol width="20" height="20" viewBox="0 0 20 20" fill="none" id="history-20-regular">
            <path d="M10 2.5C14.1421 2.5 17.5 5.85786 17.5 10C17.5 14.1421 14.1421 17.5 10 17.5C5.85786 17.5 2.5 14.1421 2.5 10C2.5 9.62365 2.52772 9.25377 2.58123 8.89229C2.64845 8.43823 2.31609 8 1.85708 8C1.48623 8 1.161 8.25624 1.10471 8.62279C1.03576 9.07178 1 9.53171 1 10C1 14.9706 5.02944 19 10 19C14.9706 19 19 14.9706 19 10C19 5.02944 14.9706 1 10 1C7.69494 1 5.59227 1.86656 4 3.29168V2.25C4 1.83579 3.66421 1.5 3.25 1.5C2.83579 1.5 2.5 1.83579 2.5 2.25V5.25C2.5 5.66421 2.83579 6 3.25 6H6.25C6.66421 6 7 5.66421 7 5.25C7 4.83579 6.66421 4.5 6.25 4.5H4.90093C6.23907 3.25883 8.03092 2.5 10 2.5ZM10.5 5.75C10.5 5.33579 10.1642 5 9.75 5C9.33579 5 9 5.33579 9 5.75V10.25C9 10.6642 9.33579 11 9.75 11H12.75C13.1642 11 13.5 10.6642 13.5 10.25C13.5 9.83579 13.1642 9.5 12.75 9.5H10.5V5.75Z" fill="currentcolor"/>
        </symbol>
        <symbol width="20" height="20" viewBox="0 0 20 20" fill="none" id="pin-20-regular">
            <path d="M10.1221 3.13764C10.7326 1.91665 12.3599 1.65257 13.3251 2.61785L17.382 6.67468C18.3472 7.63996 18.0832 9.26725 16.8622 9.87775L13.4037 11.607C13.0751 11.7713 12.8183 12.0504 12.6818 12.3915L11.2459 15.9815C10.9792 16.648 10.1179 16.8248 9.61027 16.3172L7 13.7069L3.70711 16.9998H3V16.2927L6.29289 12.9998L3.68262 10.3896C3.17498 9.88191 3.35177 9.0206 4.01834 8.75397L7.60829 7.31799C7.94939 7.18155 8.22855 6.92468 8.39285 6.59609L10.1221 3.13764ZM12.618 3.32496C12.1354 2.84232 11.3217 2.97436 11.0165 3.58486L9.28727 7.04331C9.01345 7.59095 8.54818 8.01907 7.97968 8.24646L4.38973 9.68245L10.3174 15.6101L11.7534 12.0201C11.9808 11.4516 12.4089 10.9864 12.9565 10.7125L16.415 8.98332C17.0255 8.67807 17.1575 7.86443 16.6749 7.38179L12.618 3.32496Z" fill="currentcolor" />
        </symbol>
        <symbol width="20" height="20" viewBox="0 0 20 20" fill="none" id="store-microsoft-20-regular">
            <path d="M9.5 7V10H6.5V7H9.5ZM9.5 14V11H6.5V14H9.5ZM13.5 7V10H10.5V7H13.5ZM13.5 14V11H10.5V14H13.5ZM7 4V2.5C7 1.67157 7.67157 1 8.5 1H11.5C12.3284 1 13 1.67157 13 2.5V4H17.5C17.7761 4 18 4.22386 18 4.5V14.5C18 15.8807 16.8807 17 15.5 17H4.5C3.11929 17 2 15.8807 2 14.5V4.5C2 4.22386 2.22386 4 2.5 4H7ZM8 2.5V4H12V2.5C12 2.22386 11.7761 2 11.5 2H8.5C8.22386 2 8 2.22386 8 2.5ZM3 14.5C3 15.3284 3.67157 16 4.5 16H15.5C16.3284 16 17 15.3284 17 14.5V5H3V14.5Z" fill="currentcolor" />
        </symbol>
        <symbol width="20" height="20" viewBox="0 0 20 20" fill="none" id="pin-off-20-regular">
            <path d="M2.85355 2.14645C2.65829 1.95118 2.34171 1.95118 2.14645 2.14645C1.95118 2.34171 1.95118 2.65829 2.14645 2.85355L6.896 7.60309L4.01834 8.75415C3.35177 9.02078 3.17498 9.88209 3.68262 10.3897L6.29289 13L3 16.2929V17H3.70711L7 13.7071L9.61027 16.3174C10.1179 16.825 10.9792 16.6482 11.2459 15.9817L12.3969 13.104L17.1464 17.8536C17.3417 18.0488 17.6583 18.0488 17.8536 17.8536C18.0488 17.6583 18.0488 17.3417 17.8536 17.1464L2.85355 2.14645ZM11.6276 12.3347L10.3174 15.6103L4.38973 9.68263L7.66531 8.3724L11.6276 12.3347ZM12.9565 10.7127C12.9294 10.7263 12.9026 10.7403 12.8761 10.7548L13.6202 11.4989L16.8622 9.87793C18.0832 9.26743 18.3473 7.64015 17.382 6.67486L13.3251 2.61804C12.3599 1.65275 10.7326 1.91683 10.1221 3.13783L8.5011 6.37977L9.24523 7.1239C9.25971 7.09739 9.27373 7.07059 9.28728 7.04349L11.0165 3.58504C11.3218 2.97454 12.1354 2.8425 12.618 3.32514L16.6749 7.38197C17.1575 7.86461 17.0255 8.67826 16.415 8.98351L12.9565 10.7127Z" fill="currentcolor" />
        </symbol>
        <symbol width="20" height="20" viewBox="0 0 20 20" fill="none" id="history-20-regular">
            <path d="M10 4C13.3137 4 16 6.68629 16 10C16 13.3137 13.3137 16 10 16C6.68629 16 4 13.3137 4 10C4 9.84443 4.00591 9.69034 4.0175 9.53793C4.03845 9.26258 3.83222 9.02239 3.55687 9.00144C3.28152 8.98049 3.04133 9.18673 3.02038 9.46207C3.00687 9.6397 3 9.8191 3 10C3 13.866 6.13401 17 10 17C13.866 17 17 13.866 17 10C17 6.13401 13.866 3 10 3C8.04094 3 6.27012 3.80499 5 5.10109V3.5C5 3.22386 4.77614 3 4.5 3C4.22386 3 4 3.22386 4 3.5V6.5C4 6.77614 4.22386 7 4.5 7H7.5C7.77614 7 8 6.77614 8 6.5C8 6.22386 7.77614 6 7.5 6H5.52772C6.62683 4.77191 8.2234 4 10 4ZM10 6.5C10 6.22386 9.77614 6 9.5 6C9.22386 6 9 6.22386 9 6.5V10.5C9 10.7761 9.22386 11 9.5 11H12.5C12.7761 11 13 10.7761 13 10.5C13 10.2239 12.7761 10 12.5 10H10V6.5Z" fill="currentcolor" />
        </symbol>
        <symbol width="20" height="20" viewBox="0 0 20 20" fill="none" id="arrow-download-20-regular">
            <path d="M15.5 16.9988C15.7761 16.9988 16 17.2226 16 17.4988C16 17.7442 15.8231 17.9484 15.5899 17.9907L15.5 17.9988H4.5C4.22386 17.9988 4 17.7749 4 17.4988C4 17.2533 4.17688 17.0492 4.41012 17.0068L4.5 16.9988H15.5ZM10.0001 2.00098C10.2456 2.00098 10.4497 2.17798 10.492 2.41124L10.5 2.50112L10.496 14.295L14.1414 10.6466C14.3148 10.4729 14.5842 10.4534 14.7792 10.5882L14.8485 10.646C15.0222 10.8194 15.0418 11.0888 14.907 11.2838L14.8492 11.3531L10.3574 15.8531C10.285 15.9257 10.1957 15.9714 10.1021 15.9901L9.99608 15.9999C9.83511 15.9999 9.69192 15.9237 9.60051 15.8056L5.14386 11.3537C4.94846 11.1586 4.94823 10.842 5.14336 10.6466C5.3168 10.4729 5.58621 10.4534 5.78117 10.5883L5.85046 10.6461L9.496 14.287L9.5 2.50083C9.50008 2.22469 9.724 2.00098 10.0001 2.00098Z" fill="currentcolor"/>
        </symbol>
        <symbol width="20" height="20" viewBox="0 0 20 20" fill="none" id="tag-20-regular">
            <path d="M14 7C14.5523 7 15 6.55228 15 6C15 5.44772 14.5523 5 14 5C13.4477 5 13 5.44772 13 6C13 6.55228 13.4477 7 14 7ZM11.1292 2.00004C10.5951 1.99654 10.0818 2.20681 9.7037 2.58399L3.02216 9.24852C2.23941 10.0293 2.2386 11.297 3.02036 12.0788L7.96875 17.0271C8.7498 17.8082 10.0161 17.8082 10.7972 17.0271L17.428 10.3963C17.8038 10.0205 18.0146 9.51063 18.0138 8.97917L18.0065 4.02911C18.0049 2.93081 17.1179 2.0393 16.0196 2.0321L11.1292 2.00004ZM10.4099 3.29199C10.599 3.1034 10.8556 2.99827 11.1227 3.00002L16.013 3.03208C16.5622 3.03568 17.0057 3.48143 17.0065 4.03058L17.0138 8.98065C17.0142 9.24637 16.9088 9.50133 16.7209 9.68923L10.0901 16.32C9.69955 16.7106 9.06638 16.7106 8.67586 16.32L3.72746 11.3716C3.33659 10.9808 3.33699 10.3469 3.72836 9.95653L10.4099 3.29199Z" fill="currentcolor"/>
        </symbol>
        <symbol width="20" height="20" viewBox="0 0 20 20" fill="none" id="heart-pulse-20-regular">
            <path d="M10.4965 16.8028L15.2543 12H14.25C14.1275 12 14.0068 11.985 13.8901 11.9562L10.0252 15.8577L6.16208 11.9557C6.04531 11.9848 5.92389 12 5.8 12H4.79874L9.55368 16.8028C9.81404 17.0657 10.2362 17.0657 10.4965 16.8028ZM16.7239 4.31249C17.9856 5.58687 18.3116 7.44242 17.7023 9.01353C17.6361 9.00461 17.5686 9 17.5 9H16.6113C17.2826 7.72238 17.0851 6.09863 16.0133 5.01605C14.7025 3.69204 12.5964 3.69135 11.3 5.00029L10.349 5.96272C10.1534 6.16067 9.8338 6.16082 9.63801 5.96306L8.6778 4.99319C7.36984 3.67208 5.26525 3.67106 3.97186 4.97746C2.89923 6.06088 2.71314 7.71093 3.4203 9H2.5C2.4393 9 2.37944 9.00361 2.32062 9.01062C1.68337 7.42933 1.99562 5.55224 3.26122 4.2739C4.91654 2.60193 7.58595 2.57726 9.28783 4.19116C9.32175 4.22334 9.35529 4.25616 9.38843 4.28963L9.99299 4.90026L10.5894 4.29673C10.6251 4.26068 10.6612 4.22539 10.6978 4.19086C12.3961 2.5895 15.0611 2.63292 16.7239 4.31249ZM7.96154 6.30769C7.88415 6.12196 7.70298 6.00072 7.50177 6C7.30056 5.99929 7.11853 6.11925 7.03983 6.30443L5.46922 10H2.5C2.22386 10 2 10.2239 2 10.5C2 10.7761 2.22386 11 2.5 11H5.8C6.00056 11 6.18172 10.8802 6.26017 10.6956L7.49544 7.78905L9.53846 12.6923C9.6104 12.865 9.77268 12.983 9.95909 12.9983C10.1455 13.0136 10.3249 12.9236 10.424 12.765L12.5671 9.33601L13.8737 10.8293C13.9687 10.9378 14.1058 11 14.25 11H17.5C17.7761 11 18 10.7761 18 10.5C18 10.2239 17.7761 10 17.5 10H14.4769L12.8763 8.17075C12.7721 8.05167 12.6177 7.98894 12.46 8.0016C12.3023 8.01427 12.1599 8.10083 12.076 8.235L10.0892 11.414L7.96154 6.30769Z" fill="currentcolor" />
        </symbol>
        <symbol width="20" height="20" viewBox="0 0 20 20" fill="none" id="key-20-regular">
            <path d="M15 6C15 6.55228 14.5523 7 14 7C13.4477 7 13 6.55228 13 6C13 5.44772 13.4477 5 14 5C14.5523 5 15 5.44772 15 6ZM12.5 2C9.42386 2 7 4.42386 7 7.5C7 7.89668 7.04001 8.29598 7.12154 8.67456C7.17968 8.94454 7.11378 9.17912 6.98018 9.31271L2.43934 13.8536C2.15804 14.1349 2 14.5164 2 14.9142V16.5C2 17.3284 2.67157 18 3.5 18H5.5C6.32843 18 7 17.3284 7 16.5V16H8C8.55228 16 9 15.5523 9 15V14H10C10.5523 14 11 13.5523 11 13V12.8199C11.4935 12.9536 12.0069 13 12.5 13C15.5761 13 18 10.5761 18 7.5C18 4.42386 15.5761 2 12.5 2ZM8 7.5C8 4.97614 9.97614 3 12.5 3C15.0239 3 17 4.97614 17 7.5C17 10.0239 15.0239 12 12.5 12C11.8408 12 11.2274 11.9047 10.7236 11.6528C10.5686 11.5753 10.3845 11.5836 10.2371 11.6747C10.0897 11.7658 10 11.9267 10 12.1V13H9C8.44772 13 8 13.4477 8 14V15H7C6.44772 15 6 15.4477 6 16V16.5C6 16.7761 5.77614 17 5.5 17H3.5C3.22386 17 3 16.7761 3 16.5V14.9142C3 14.7816 3.05268 14.6544 3.14645 14.5607L7.68729 10.0198C8.11942 9.58768 8.20942 8.97619 8.09913 8.46404C8.03354 8.15949 8 7.83105 8 7.5Z" fill="currentcolor" />
        </symbol>
        <symbol width="20" height="20" viewBox="0 0 20 20" fill="none" id="start-add-20-regular">
            <path d="M9.10433 2.89899C9.47114 2.15574 10.531 2.15574 10.8978 2.89899L12.8282 6.81048L17.1448 7.43772C17.9651 7.55691 18.2926 8.56488 17.699 9.14342L17.1502 9.67839C16.8358 9.50531 16.5026 9.36209 16.1544 9.25257L17.001 8.42733L12.6844 7.80009C12.3587 7.75276 12.0772 7.54819 11.9315 7.25305L10.0011 3.34155L8.07062 7.25305C7.92496 7.54819 7.6434 7.75276 7.31769 7.80009L3.00109 8.42733L6.12461 11.472C6.3603 11.7017 6.46784 12.0327 6.41221 12.3571L5.67484 16.6563L9.01625 14.8996C9.04183 15.2559 9.10136 15.6029 9.19162 15.9372L6.14018 17.5414C5.40655 17.9271 4.54913 17.3041 4.68924 16.4872L5.4266 12.1881L2.30308 9.14341C1.70956 8.56488 2.03708 7.55691 2.8573 7.43772L7.17389 6.81048L9.10433 2.89899ZM19.002 14.5C19.002 16.9853 16.9872 19 14.502 19C12.0167 19 10.002 16.9853 10.002 14.5C10.002 12.0147 12.0167 10 14.502 10C16.9872 10 19.002 12.0147 19.002 14.5ZM15.002 12.5C15.002 12.2239 14.7781 12 14.502 12C14.2258 12 14.002 12.2239 14.002 12.5V14H12.502C12.2258 14 12.002 14.2239 12.002 14.5C12.002 14.7761 12.2258 15 12.502 15H14.002V16.5C14.002 16.7761 14.2258 17 14.502 17C14.7781 17 15.002 16.7761 15.002 16.5V15H16.502C16.7781 15 17.002 14.7761 17.002 14.5C17.002 14.2239 16.7781 14 16.502 14H15.002V12.5Z" fill="currentcolor" />
        </symbol>
        <symbol width="20" height="20" viewBox="0 0 20 20" fill="none" id="eye-off-20-regular">
            <path d="M2.85355 2.14645C2.65829 1.95118 2.34171 1.95118 2.14645 2.14645C1.95118 2.34171 1.95118 2.65829 2.14645 2.85355L5.6453 6.35239C3.97044 7.49179 2.7234 9.27384 2.28017 11.3979C2.22377 11.6682 2.39718 11.9331 2.6675 11.9895C2.93782 12.0459 3.20268 11.8725 3.25909 11.6021C3.6629 9.66699 4.82367 8.06291 6.36714 7.07422L7.95336 8.66045C7.07297 9.29611 6.5 10.3311 6.5 11.5C6.5 13.433 8.067 15 10 15C11.1689 15 12.2039 14.427 12.8396 13.5466L17.1464 17.8536C17.3417 18.0488 17.6583 18.0488 17.8536 17.8536C18.0488 17.6583 18.0488 17.3417 17.8536 17.1464L2.85355 2.14645ZM12.1194 12.8265C11.6773 13.5314 10.8934 14 10 14C8.61929 14 7.5 12.8807 7.5 11.5C7.5 10.6066 7.96863 9.82265 8.67348 9.38057L12.1194 12.8265ZM10.1235 8.00214L13.4979 11.3765C13.4342 9.54169 11.9583 8.06576 10.1235 8.00214ZM10 6C9.43016 6 8.87149 6.07353 8.33419 6.21285L7.53113 5.40979C8.31349 5.14331 9.14485 5 10 5C13.6934 5 16.9425 7.67312 17.7199 11.3979C17.7763 11.6682 17.6029 11.933 17.3325 11.9895C17.0622 12.0459 16.7974 11.8725 16.7409 11.6021C16.0574 8.32688 13.2057 6 10 6Z" fill="currentcolor" />
        </symbol>
        <symbol width="20" height="20" viewBox="0 0 20 20" fill="none" id="read-aloud-20-regular">
            <path d="M12.0611 2.26066C12.1933 2.01824 12.497 1.92892 12.7394 2.06115C14.6532 3.10503 17.4722 5.22245 17.9969 9.94475C18.0274 10.2192 17.8296 10.4664 17.5552 10.4969C17.2807 10.5274 17.0335 10.3296 17.003 10.0552C16.5277 5.77762 14.0134 3.89511 12.2606 2.93903C12.0182 2.8068 11.9288 2.50308 12.0611 2.26066ZM8.46285 4.31074C8.38598 4.12283 8.20311 4.00006 8.00009 4.00006C7.79706 4.00006 7.61419 4.12283 7.53732 4.31074L3.03736 15.3106C2.9328 15.5661 3.05523 15.8581 3.31081 15.9626C3.56639 16.0672 3.85834 15.9448 3.9629 15.6892L5.50011 11.9316V11.9999H10.5001V11.9316L12.0373 15.6892C12.1418 15.9448 12.4338 16.0672 12.6894 15.9626C12.9449 15.8581 13.0674 15.5661 12.9628 15.3106L8.46285 4.31074ZM10.1189 10.9999H5.88124L8.00009 5.82057L10.1189 10.9999ZM12.2481 4.56592C12.0083 4.42892 11.7029 4.51222 11.5659 4.75197C11.4289 4.99173 11.5122 5.29715 11.7519 5.43415C13.3508 6.34776 14.2739 7.95271 14.505 9.57068C14.5441 9.84404 14.7973 10.034 15.0707 9.99493C15.344 9.95588 15.534 9.70262 15.4949 9.42926C15.2261 7.54728 14.1492 5.65228 12.2481 4.56592Z" fill="currentcolor" />
        </symbol>
        <symbol width="20" height="20" viewBox="0 0 20 20" fill="none" id="more-circle-20-regular">
            <path d="M7 10C7 10.5523 6.55228 11 6 11C5.44772 11 5 10.5523 5 10C5 9.44772 5.44772 9 6 9C6.55228 9 7 9.44772 7 10ZM11 10C11 10.5523 10.5523 11 10 11C9.44772 11 9 10.5523 9 10C9 9.44772 9.44772 9 10 9C10.5523 9 11 9.44772 11 10ZM15 10C15 10.5523 14.5523 11 14 11C13.4477 11 13 10.5523 13 10C13 9.44772 13.4477 9 14 9C14.5523 9 15 9.44772 15 10ZM10 2C5.58172 2 2 5.58172 2 10C2 14.4183 5.58172 18 10 18C14.4183 18 18 14.4183 18 10C18 5.58172 14.4183 2 10 2ZM3 10C3 6.13401 6.13401 3 10 3C13.866 3 17 6.13401 17 10C17 13.866 13.866 17 10 17C6.13401 17 3 13.866 3 10Z" fill="currentcolor"/>
        </symbol>
        <symbol width="20" height="20" viewBox="0 0 20 20" fill="none" id="apps-add-in-20-regular">
            <path d="M15 3C15 2.72386 14.7761 2.5 14.5 2.5C14.2239 2.5 14 2.72386 14 3V5H12C11.7239 5 11.5 5.22386 11.5 5.5C11.5 5.77614 11.7239 6 12 6H14V8C14 8.27614 14.2239 8.5 14.5 8.5C14.7761 8.5 15 8.27614 15 8V6H17C17.2761 6 17.5 5.77614 17.5 5.5C17.5 5.22386 17.2761 5 17 5L15 5V3ZM4.5 17C3.67157 17 3 16.3284 3 15.5V4.5C3 3.67157 3.67157 3 4.5 3H9C9.82843 3 10.5 3.67157 10.5 4.5V9.5H15.5C16.3284 9.5 17 10.1716 17 11V15.5C17 16.3284 16.3284 17 15.5 17H4.5ZM10.5 10.5V16H15.5C15.7761 16 16 15.7761 16 15.5V11C16 10.7239 15.7761 10.5 15.5 10.5H10.5ZM9.5 16V10.5H4V15.5C4 15.7589 4.19675 15.9718 4.44888 15.9974C4.46569 15.9991 4.48274 16 4.5 16H9.5ZM9.5 4.5C9.5 4.22386 9.27614 4 9 4H4.5C4.22386 4 4 4.22386 4 4.5V9.5H9.5V4.5Z" fill="currentcolor" />
        </symbol>
        <symbol width="20" height="20" viewBox="0 0 20 20" fill="none" id="share-20-regular">
            <path d="M13.3298 12.8377L17.8269 8.41512L17.8841 8.34968C18.0558 8.12058 18.0367 7.78916 17.8268 7.58283L13.3297 3.16165L13.268 3.10864C12.9078 2.83964 12.3776 3.09805 12.3776 3.57782V5.70757L12.153 5.72268C8.59039 6.00547 6.50344 8.25989 6.00472 12.3501C5.94067 12.8754 6.54318 13.2042 6.93261 12.8564C8.36448 11.5779 9.84382 10.784 11.3776 10.4657C11.6236 10.4147 11.871 10.3759 12.1199 10.3493L12.3776 10.3261V12.4216L12.3829 12.5039C12.4429 12.9566 12.992 13.1699 13.3298 12.8377ZM12.2263 6.72L13.3776 6.64256V4.61104L16.8238 7.99905L13.3776 11.3882V9.23223L12.022 9.35403L12.0136 9.35493C10.3113 9.53692 8.70337 10.2189 7.18674 11.3555C7.48493 10.0174 7.99417 9.01008 8.6632 8.28852C9.49235 7.39426 10.6526 6.84605 12.2263 6.72ZM5.5 4C4.11929 4 3 5.11929 3 6.5V14.5C3 15.8807 4.11929 17 5.5 17H13.5C14.8807 17 16 15.8807 16 14.5V13.5C16 13.2239 15.7761 13 15.5 13C15.2239 13 15 13.2239 15 13.5V14.5C15 15.3284 14.3284 16 13.5 16H5.5C4.67157 16 4 15.3284 4 14.5V6.5C4 5.67157 4.67157 5 5.5 5H8.5C8.77614 5 9 4.77614 9 4.5C9 4.22386 8.77614 4 8.5 4H5.5Z" fill="currentcolor" />
        </symbol>
        <symbol width="20" height="20" viewBox="0 0 20 20" fill="none" id="shopping-20-regular">
            <path d="M12.5002 6.49882C13.0525 6.49882 13.5002 6.05111 13.5002 5.49882C13.5002 4.94654 13.0525 4.49882 12.5002 4.49882C11.9479 4.49882 11.5002 4.94654 11.5002 5.49882C11.5002 6.05111 11.9479 6.49882 12.5002 6.49882Z" fill="currentcolor" />
            <path fill-rule="evenodd" clip-rule="evenodd" d="M13.8762 1.99609C14.5421 1.99609 15.1363 2.30961 15.5171 2.7985C16.4409 2.77199 17.2962 3.36721 17.5684 4.28685L18.9067 8.80837C19.0685 9.35499 18.9987 9.94407 18.7137 10.4378L14.5014 17.7337C13.9491 18.6903 12.7259 19.018 11.7693 18.4657L8.99042 16.8613C8.2052 17.4888 7.05688 17.4389 6.32948 16.7115L1.37973 11.7617C0.598682 10.9807 0.598684 9.71433 1.37973 8.93328L7.70806 2.60496C8.0979 2.21511 8.62666 1.99609 9.17799 1.99609H13.8762ZM15.9543 4.0223C15.953 3.96869 15.9496 3.9156 15.9443 3.8631C16.2551 3.97657 16.509 4.23097 16.6095 4.57066L17.9478 9.09218C18.0318 9.37585 17.9956 9.68156 17.8476 9.93776L13.6353 17.2337C13.3592 17.712 12.7476 17.8759 12.2693 17.5997L9.73363 16.1357L15.469 10.4004C15.8718 9.99761 16.0916 9.44724 16.0772 8.87784L15.9543 4.0223ZM14.9546 4.0476C14.9398 3.46261 14.4613 2.99609 13.8762 2.99609H9.17799C8.89187 2.99609 8.61748 3.10975 8.41516 3.31207L2.08684 9.64039C1.69632 10.0309 1.69631 10.6641 2.08684 11.0546L7.03659 16.0043C7.42711 16.3949 8.06027 16.3949 8.4508 16.0043L14.7619 9.69326C14.9709 9.48425 15.085 9.19863 15.0775 8.90314L14.9546 4.0476Z" fill="currentcolor" />
        </symbol>

    </defs>
</svg>