<svg>
    <defs>
        <symbol width="20" height="20" fill="none"
            xmlns="http://www.w3.org/2000/svg" id="layer-diagonal-20-regular">
            <path d="M10.5 3.5c0-.4-.4-.6-.7-.5L4 5.4c-.5.2-.9.7-.9 1.4v5.7c0 .4.4.6.7.5l.3-.2V14c-1 .4-2-.4-2-1.4V6.8c0-1 .6-2 1.6-2.4l5.8-2.3c1-.4 2 .3 2.1 1.3l-1 .4v-.3Zm3 2c0-.4-.4-.6-.7-.5L6.6 7.5a1 1 0 0 0-.6 1v6c0 .4.4.6.7.5l1.3-.6v1.1L7 16c-1 .4-2-.3-2-1.4v-6a2 2 0 0 1 1.3-2l6.1-2.4c1-.4 2.1.3 2.1 1.4v.1l-1 .4v-.5ZM16.3 7c.3 0 .7.1.7.5v6.6c0 .2-.1.4-.3.5l-6 2.4a.5.5 0 0 1-.7-.5V9.9c0-.2.1-.4.3-.5l6-2.4Zm1.7.5c0-1-1-1.8-2-1.4l-6 2.4c-.6.2-1 .8-1 1.4v6.6c0 1 1 1.8 2 1.4l6-2.4c.6-.2 1-.8 1-1.4V7.5Z" fill="currentcolor"/>
        </symbol>
        <symbol width="20" height="20" fill="none"
            xmlns="http://www.w3.org/2000/svg" id="tab-position-horizontal-20-regular">
            <path fill-rule="evenodd" clip-rule="evenodd" d="M5.5 3A2.5 2.5 0 0 0 3 5.5v9C3 15.9 4.1 17 5.5 17h9c1.4 0 2.5-1.1 2.5-2.5v-9C17 4.1 15.9 3 14.5 3h-9ZM4 14.5V7h2v9h-.5c-.8 0-1.5-.7-1.5-1.5ZM7 16V7h9v7.5c0 .8-.7 1.5-1.5 1.5H7Z" fill="currentcolor"/>
        </symbol>
        <symbol width="16" height="16" fill="none"
            xmlns="http://www.w3.org/2000/svg" id="tab-desktop-new-page-16-regular">
            <path d="M5 10a1 1 0 1 0 0-2 1 1 0 0 0 0 2Zm4-1a1 1 0 1 1-2 0 1 1 0 0 1 2 0Zm2 1a1 1 0 1 0 0-2 1 1 0 0 0 0 2ZM1 3.5C1 2.1 2.1 1 3.5 1h9C13.9 1 15 2.1 15 3.5v9c0 1.4-1.1 2.5-2.5 2.5h-9A2.5 2.5 0 0 1 1 12.5v-9ZM3.5 2C2.7 2 2 2.7 2 3.5v9c0 .8.7 1.5 1.5 1.5h9c.8 0 1.5-.7 1.5-1.5V5H7.5C6.7 5 6 4.3 6 3.5V2H3.5ZM14 3.5c0-.8-.7-1.5-1.5-1.5H7v1.5c0 .3.2.5.5.5H14v-.5Z" fill="currentcolor"/>
        </symbol>
        <symbol width="16" height="16" fill="none"
            xmlns="http://www.w3.org/2000/svg" id="dismiss-16-regular">
            <path d="m4.089 4.216.057-.07a.5.5 0 0 1 .638-.057l.07.057L8 7.293l3.146-3.147a.5.5 0 0 1 .708.708L8.707 8l3.147 3.146a.5.5 0 0 1 .057.638l-.057.07a.5.5 0 0 1-.638.057l-.07-.057L8 8.707l-3.146 3.147a.5.5 0 0 1-.708-.708L7.293 8 4.146 4.854a.5.5 0 0 1-.057-.638l.057-.07-.057.07Z" fill="currentcolor"/>
        </symbol>
        <symbol width="20" height="20"
            xmlns="http://www.w3.org/2000/svg" id="add-20-regular">
            <path d="M10 2.5a.5.5 0 0 0-1 0V9H2.5a.5.5 0 0 0 0 1H9v6.5a.5.5 0 0 0 1 0V10h6.5a.5.5 0 0 0 0-1H10V2.5Z" fill="currentcolor"/>
        </symbol>
        <symbol width="20" height="20"
            xmlns="http://www.w3.org/2000/svg" id="maximize-16-regular">
            <path d="M5.08496 4C5.29088 3.4174 5.8465 3 6.49961 3H9.99961C11.6565 3 12.9996 4.34315 12.9996 6V9.5C12.9996 10.1531 12.5822 10.7087 11.9996 10.9146V6C11.9996 4.89543 11.1042 4 9.99961 4H5.08496ZM4.5 5H9.5C10.3284 5 11 5.67157 11 6.5V11.5C11 12.3284 10.3284 13 9.5 13H4.5C3.67157 13 3 12.3284 3 11.5V6.5C3 5.67157 3.67157 5 4.5 5ZM4.5 6C4.22386 6 4 6.22386 4 6.5V11.5C4 11.7761 4.22386 12 4.5 12H9.5C9.77614 12 10 11.7761 10 11.5V6.5C10 6.22386 9.77614 6 9.5 6H4.5Z" fill="currentcolor"/>
        </symbol>
        <symbol width="20" height="20"
            xmlns="http://www.w3.org/2000/svg" id="minimize-16-regular">
            <path d="M3 8C3 7.72386 3.22386 7.5 3.5 7.5H12.5C12.7761 7.5 13 7.72386 13 8C13 8.27614 12.7761 8.5 12.5 8.5H3.5C3.22386 8.5 3 8.27614 3 8Z" fill="currentcolor"/>
        </symbol>
    </defs>
</svg>