<svg>
    <defs>
        <symbol width="20" height="20" fill="none"
            xmlns="http://www.w3.org/2000/svg" id="layer-diagonal-20-regular">
            <path d="M10.5 3.5c0-.4-.4-.6-.7-.5L4 5.4c-.5.2-.9.7-.9 1.4v5.7c0 .4.4.6.7.5l.3-.2V14c-1 .4-2-.4-2-1.4V6.8c0-1 .6-2 1.6-2.4l5.8-2.3c1-.4 2 .3 2.1 1.3l-1 .4v-.3Zm3 2c0-.4-.4-.6-.7-.5L6.6 7.5a1 1 0 0 0-.6 1v6c0 .4.4.6.7.5l1.3-.6v1.1L7 16c-1 .4-2-.3-2-1.4v-6a2 2 0 0 1 1.3-2l6.1-2.4c1-.4 2.1.3 2.1 1.4v.1l-1 .4v-.5ZM16.3 7c.3 0 .7.1.7.5v6.6c0 .2-.1.4-.3.5l-6 2.4a.5.5 0 0 1-.7-.5V9.9c0-.2.1-.4.3-.5l6-2.4Zm1.7.5c0-1-1-1.8-2-1.4l-6 2.4c-.6.2-1 .8-1 1.4v6.6c0 1 1 1.8 2 1.4l6-2.4c.6-.2 1-.8 1-1.4V7.5Z" fill="currentcolor"/>
        </symbol>
        <symbol width="20" height="20" fill="none"
            xmlns="http://www.w3.org/2000/svg" id="tab-position-horizontal-20-regular">
            <path fill-rule="evenodd" clip-rule="evenodd" d="M5.5 3A2.5 2.5 0 0 0 3 5.5v9C3 15.9 4.1 17 5.5 17h9c1.4 0 2.5-1.1 2.5-2.5v-9C17 4.1 15.9 3 14.5 3h-9ZM4 14.5V7h2v9h-.5c-.8 0-1.5-.7-1.5-1.5ZM7 16V7h9v7.5c0 .8-.7 1.5-1.5 1.5H7Z" fill="currentcolor"/>
        </symbol>
        <symbol width="16" height="16" fill="none"
            xmlns="http://www.w3.org/2000/svg" id="tab-desktop-new-page-16-regular">
            <path d="M5 10a1 1 0 1 0 0-2 1 1 0 0 0 0 2Zm4-1a1 1 0 1 1-2 0 1 1 0 0 1 2 0Zm2 1a1 1 0 1 0 0-2 1 1 0 0 0 0 2ZM1 3.5C1 2.1 2.1 1 3.5 1h9C13.9 1 15 2.1 15 3.5v9c0 1.4-1.1 2.5-2.5 2.5h-9A2.5 2.5 0 0 1 1 12.5v-9ZM3.5 2C2.7 2 2 2.7 2 3.5v9c0 .8.7 1.5 1.5 1.5h9c.8 0 1.5-.7 1.5-1.5V5H7.5C6.7 5 6 4.3 6 3.5V2H3.5ZM14 3.5c0-.8-.7-1.5-1.5-1.5H7v1.5c0 .3.2.5.5.5H14v-.5Z" fill="currentcolor"/>
        </symbol>
        <symbol width="16" height="16" fill="none"
            xmlns="http://www.w3.org/2000/svg" id="dismiss-16-regular">
            <path d="m4.089 4.216.057-.07a.5.5 0 0 1 .638-.057l.07.057L8 7.293l3.146-3.147a.5.5 0 0 1 .708.708L8.707 8l3.147 3.146a.5.5 0 0 1 .057.638l-.057.07a.5.5 0 0 1-.638.057l-.07-.057L8 8.707l-3.146 3.147a.5.5 0 0 1-.708-.708L7.293 8 4.146 4.854a.5.5 0 0 1-.057-.638l.057-.07-.057.07Z" fill="currentcolor"/>
        </symbol>
        <symbol width="20" height="20"
            xmlns="http://www.w3.org/2000/svg" id="add-20-regular">
            <path d="M10 2.5a.5.5 0 0 0-1 0V9H2.5a.5.5 0 0 0 0 1H9v6.5a.5.5 0 0 0 1 0V10h6.5a.5.5 0 0 0 0-1H10V2.5Z" fill="currentcolor"/>
        </symbol>
        <symbol width="20" height="20" fill="none"
            xmlns="http://www.w3.org/2000/svg" id="maximize-16-regular">
            <path d="M5.08496 4C5.29088 3.4174 5.8465 3 6.49961 3H9.99961C11.6565 3 12.9996 4.34315 12.9996 6V9.5C12.9996 10.1531 12.5822 10.7087 11.9996 10.9146V6C11.9996 4.89543 11.1042 4 9.99961 4H5.08496ZM4.5 5H9.5C10.3284 5 11 5.67157 11 6.5V11.5C11 12.3284 10.3284 13 9.5 13H4.5C3.67157 13 3 12.3284 3 11.5V6.5C3 5.67157 3.67157 5 4.5 5ZM4.5 6C4.22386 6 4 6.22386 4 6.5V11.5C4 11.7761 4.22386 12 4.5 12H9.5C9.77614 12 10 11.7761 10 11.5V6.5C10 6.22386 9.77614 6 9.5 6H4.5Z" fill="currentcolor"/>
        </symbol>
        <symbol width="20" height="20" fill="none"
            xmlns="http://www.w3.org/2000/svg" id="minimize-16-regular">
            <path d="M3 8C3 7.72386 3.22386 7.5 3.5 7.5H12.5C12.7761 7.5 13 7.72386 13 8C13 8.27614 12.7761 8.5 12.5 8.5H3.5C3.22386 8.5 3 8.27614 3 8Z" fill="currentcolor"/>
        </symbol>
        <symbol width="20" height="20" fill="none"
            xmlns="http://www.w3.org/2000/svg" id="back-20-regular">
            <path d="M9.15898 16.8666C9.36292 17.0528 9.67918 17.0384 9.86536 16.8345C10.0515 16.6305 10.0371 16.3143 9.8332 16.1281L3.66535 10.4974H17.4961C17.7722 10.4974 17.9961 10.2735 17.9961 9.99736C17.9961 9.72122 17.7722 9.49736 17.4961 9.49736H3.66824L9.8332 3.86927C10.0371 3.68309 10.0515 3.36684 9.86536 3.16289C9.67918 2.95895 9.36292 2.94456 9.15898 3.13074L2.24263 9.44478C2.10268 9.57254 2.02285 9.74008 2.00314 9.91323C1.99851 9.94058 1.99609 9.96869 1.99609 9.99736C1.99609 10.0242 1.99821 10.0506 2.00229 10.0763C2.02047 10.2522 2.10058 10.4229 2.24263 10.5526L9.15898 16.8666Z" fill="currentcolor"/>
        </symbol>
        <symbol width="20" height="20" fill="none"
            xmlns="http://www.w3.org/2000/svg" id="arrow-clockwise-20-regular">
            <path d="M4 10C4 6.68629 6.68629 4 10 4C11.7766 4 13.3732 4.77191 14.4723 6H12.5C12.2239 6 12 6.22386 12 6.5C12 6.77614 12.2239 7 12.5 7H15.5C15.7761 7 16 6.77614 16 6.5V3.5C16 3.22386 15.7761 3 15.5 3C15.2239 3 15 3.22386 15 3.5V5.10109C13.7299 3.80499 11.9591 3 10 3C6.13401 3 3 6.13401 3 10C3 13.866 6.13401 17 10 17C13.866 17 17 13.866 17 10C17 9.8191 16.9931 9.6397 16.9796 9.46207C16.9587 9.18673 16.7185 8.98049 16.4431 9.00144C16.1678 9.02239 15.9615 9.26258 15.9825 9.53793C15.9941 9.69034 16 9.84443 16 10C16 13.3137 13.3137 16 10 16C6.68629 16 4 13.3137 4 10Z" fill="currentcolor" />
        </symbol>
        <symbol width="20" height="20" fill="none"
            xmlns="http://www.w3.org/2000/svg" id="star-list-horizontal-20-regular">
            <path d="M9.10431 2.89886C9.47113 2.15561 10.531 2.15562 10.8978 2.89889L12.9217 6.99995H17.5008C17.777 6.99995 18.0008 7.22381 18.0008 7.49995C18.0008 7.7761 17.777 7.99995 17.5008 7.99995H12.9217C12.541 7.99995 12.1934 7.78384 12.0249 7.4425L10.001 3.34143L8.07062 7.2529C7.92496 7.54804 7.6434 7.75261 7.31769 7.79994L3.00109 8.42718L6.12461 11.4719C6.3603 11.7016 6.46784 12.0326 6.41221 12.357L5.67484 16.6561L9.76839 14.504C10.0128 14.3755 10.3151 14.4695 10.4436 14.7139C10.5721 14.9583 10.4782 15.2607 10.2337 15.3892L6.14018 17.5413C5.40655 17.927 4.54913 17.304 4.68924 16.4871L5.4266 12.1879L2.30308 9.14326C1.70956 8.56472 2.03708 7.55675 2.8573 7.43757L7.17389 6.81033L9.10431 2.89886ZM12 10.5C12 10.2239 12.2239 10 12.5 10H17.5C17.7761 10 18 10.2239 18 10.5C18 10.7761 17.7761 11 17.5 11H12.5C12.2239 11 12 10.7761 12 10.5ZM12.5 13C12.2239 13 12 13.2239 12 13.5C12 13.7761 12.2239 14 12.5 14H17.5C17.7761 14 18 13.7761 18 13.5C18 13.2239 17.7761 13 17.5 13H12.5Z" fill="currentcolor"/>
        </symbol>
        <symbol width="20" height="20" fill="none"
            xmlns="http://www.w3.org/2000/svg" id="more-horizontal-20-regular">
            <path d="M6.25 10C6.25 10.6904 5.69036 11.25 5 11.25C4.30964 11.25 3.75 10.6904 3.75 10C3.75 9.30964 4.30964 8.75 5 8.75C5.69036 8.75 6.25 9.30964 6.25 10ZM11.25 10C11.25 10.6904 10.6904 11.25 10 11.25C9.30964 11.25 8.75 10.6904 8.75 10C8.75 9.30964 9.30964 8.75 10 8.75C10.6904 8.75 11.25 9.30964 11.25 10ZM15 11.25C15.6904 11.25 16.25 10.6904 16.25 10C16.25 9.30964 15.6904 8.75 15 8.75C14.3096 8.75 13.75 9.30964 13.75 10C13.75 10.6904 14.3096 11.25 15 11.25Z" fill="currentcolor"/>
        </symbol>
    </defs>
</svg>