<svg width="14" height="15" viewBox="0 0 14 15" fill="none"
    xmlns="http://www.w3.org/2000/svg">
    <g clip-path="url(#clip0_146_107398)">
        <rect width="13.3917" height="13.3917" transform="translate(0.116455 0.658203)" fill="#EC1C2E"/>
        <path d="M5.92878 4.76573C5.44617 4.75844 5.01784 5.14862 5.01784 5.71328V8.25602C5.01833 8.34754 4.94997 8.42873 4.85044 8.42873H4.05562C2.33569 8.43078 2.48937 6.22995 3.95336 6.22789C4.60418 6.22696 4.83166 6.22789 4.83166 6.22789V5.61126H3.92214C3.35221 5.61218 2.92074 5.82921 2.63052 6.15278C2.34029 6.47637 2.1917 6.90729 2.19193 7.33553C2.19216 7.74781 2.33278 8.1757 2.6265 8.49998C2.92023 8.82427 3.36684 9.04604 3.98409 9.04604H5.48431C5.57104 9.04604 5.64457 8.97258 5.64457 8.88691V5.78037C5.64361 5.61792 5.72787 5.48732 5.86335 5.44409H5.86337C5.99479 5.40228 6.13913 5.45674 6.22613 5.58048L6.22652 5.58104L6.22686 5.58161C6.43769 5.92708 6.96449 6.77456 7.44033 7.53851C7.67825 7.92048 7.90345 8.2816 8.07008 8.54871C8.15339 8.68227 8.22207 8.79232 8.27037 8.86974C8.3183 8.94654 8.34493 8.98921 8.3479 8.99404C8.38299 9.04363 8.42716 9.06226 8.46395 9.05067H8.46397L8.46401 9.05065C8.48489 9.04416 8.5013 9.02946 8.51359 9.00526C8.52588 8.98106 8.53317 8.94745 8.53317 8.90708V5.78082C8.53265 5.61889 8.61639 5.48801 8.75233 5.44503C8.88295 5.40315 9.02772 5.45761 9.11386 5.58148L9.1142 5.58197L9.1145 5.58248C9.3258 5.92773 9.85284 6.77522 10.3288 7.53916C10.8045 8.30268 11.2298 8.98383 11.2364 8.99444C11.2365 8.99446 11.2365 8.99448 11.2365 8.9945C11.2709 9.04378 11.3178 9.06345 11.3571 9.0511C11.3783 9.04438 11.3953 9.02937 11.4079 9.00515C11.4206 8.98093 11.4281 8.94756 11.4281 8.90754V4.78498V4.78477H10.806V7.19219C10.806 7.19219 10.4207 6.53887 9.76392 5.41128C9.12135 4.30663 7.9087 4.7632 7.9082 5.71373V7.19175C7.9082 7.19175 7.53218 6.53796 6.87583 5.41037C6.61461 4.96178 6.25899 4.77071 5.92878 4.76573ZM4.03454 4.78477C0.459389 4.78432 0.493306 9.87781 4.08269 9.88014H5.4852C6.08878 9.88057 6.47636 9.52259 6.47588 8.86281V7.57266C6.47588 7.57266 7.26248 8.87683 7.57116 9.38732C8.09633 10.2553 9.36719 10.0846 9.36399 9.00041V7.57357C9.36399 7.57357 10.1506 8.87726 10.4597 9.38844C10.9848 10.2562 12.2558 10.0853 12.2525 9.00084V4.78477H11.6313V8.9075V8.90754C11.6318 9.10236 11.5226 9.21125 11.4185 9.24414L11.4185 9.24417C11.2915 9.28463 11.1534 9.23048 11.0676 9.1075L11.0673 9.10707L11.067 9.10665C11.0493 9.07829 9.36578 6.38242 8.94487 5.69367C8.90995 5.64408 8.85879 5.62371 8.81341 5.63805C8.76629 5.65315 8.73633 5.70303 8.73633 5.78074V8.90657V8.90661C8.73682 9.10222 8.62947 9.21079 8.52586 9.24414L8.52579 9.24417L8.52573 9.24419C8.40066 9.28349 8.26478 9.22944 8.17946 9.10656L8.17925 9.10627L8.17905 9.10597C8.17565 9.10068 8.14849 9.05722 8.09991 8.97948C8.05134 8.90174 7.98243 8.7914 7.89892 8.65761C7.73189 8.39001 7.50646 8.02858 7.26845 7.64653C6.79265 6.88277 6.26695 6.03706 6.05678 5.69276C6.0219 5.64324 5.97028 5.62323 5.92481 5.63763V5.63761C5.87716 5.65273 5.84691 5.7026 5.84735 5.77969V5.77976V8.88689C5.84735 9.0863 5.68388 9.24878 5.48431 9.24878H3.98407C3.30148 9.24878 2.80167 9.001 2.47377 8.63754C2.14587 8.27409 1.98964 7.79605 1.98917 7.33553C1.98871 6.85771 2.15419 6.37673 2.479 6.01446C2.80381 5.65219 3.28836 5.40942 3.92167 5.4085H3.92169H4.83166V4.78477H4.03454Z" fill="white"/>
    </g>
    <defs>
        <clipPath id="clip0_146_107398">
            <path d="M0.116455 4.02242C0.116455 2.16442 1.62267 0.658203 3.48067 0.658203H10.1439C12.0019 0.658203 13.5081 2.16442 13.5081 4.02242V10.6856C13.5081 12.5437 12.0019 14.0499 10.1439 14.0499H3.48067C1.62267 14.0499 0.116455 12.5437 0.116455 10.6856V4.02242Z" fill="white"/>
        </clipPath>
    </defs>
</svg>
