<svg width="14" height="15" viewBox="0 0 14 15" fill="none"
    xmlns="http://www.w3.org/2000/svg">
    <g clip-path="url(#clip0_133_93018)">
        <rect width="13.3917" height="13.3917" transform="translate(0.406006 0.789062)" fill="#23272B"/>
        <path d="M3.92064 5.29883V6.9753H5.69007V5.29883H6.65099V9.66907H5.69007V7.78381H3.92064V9.66907H2.95972V5.29883H3.92064Z" fill="white"/>
        <path d="M7.58423 5.29893V9.66918H9.70116C9.89441 9.66861 10.0868 9.643 10.2734 9.59299C10.4512 9.54728 10.6193 9.46983 10.7695 9.36437C10.9147 9.26231 11.0333 9.12696 11.1155 8.96965C11.2045 8.7923 11.2485 8.59574 11.2435 8.39736C11.2507 8.1488 11.1812 7.90405 11.0446 7.69628C10.8976 7.49445 10.6833 7.35177 10.4403 7.29394C10.6178 7.21537 10.771 7.09063 10.8838 6.93272C10.9899 6.76931 11.0431 6.57723 11.0362 6.38255C11.0418 6.20571 11.0074 6.02989 10.9356 5.86818C10.872 5.73359 10.7736 5.61838 10.6507 5.53441C10.5176 5.44604 10.3684 5.38467 10.2117 5.3538C10.0244 5.31566 9.83362 5.29727 9.64247 5.29893H7.58423ZM8.5444 6.04574H9.44434C9.52737 6.04538 9.61026 6.05252 9.692 6.06706C9.76641 6.07942 9.83795 6.10525 9.90309 6.14327C9.96489 6.17997 10.0157 6.23261 10.0502 6.29568C10.0898 6.37309 10.1087 6.45948 10.105 6.54639C10.105 6.73029 10.0499 6.86314 9.93966 6.94493C9.81612 7.03077 9.66779 7.07361 9.51751 7.06685L8.5444 7.06763V6.04574ZM9.65054 7.72129C9.80933 7.72463 9.96364 7.77449 10.0944 7.86468C10.2198 7.9607 10.2828 8.12075 10.2833 8.34479C10.2871 8.44198 10.2675 8.53865 10.2262 8.62672C10.1895 8.69743 10.1355 8.75772 10.0692 8.80199C9.99931 8.84635 9.92181 8.87736 9.84061 8.89343C9.7521 8.91165 9.66197 8.92085 9.5716 8.92087L8.5444 8.9224V7.7222H9.59142C9.61111 7.72118 9.63083 7.72087 9.65054 7.72129Z" fill="white"/>
    </g>
    <defs>
        <clipPath id="clip0_133_93018">
            <rect x="0.406006" y="0.789062" width="13.3917" height="13.3917" rx="3.34792" fill="white"/>
        </clipPath>
    </defs>
</svg>
