<svg width="14" height="14" viewBox="0 0 14 14" fill="none"
    xmlns="http://www.w3.org/2000/svg">
    <g clip-path="url(#clip0_133_92986)">
        <rect width="13.3917" height="13.3917" transform="translate(0.587402 0.259766)" fill="#23272B"/>
        <path d="M7.87309 6.95614C7.87309 8.40002 6.71056 9.57057 5.27647 9.57057C3.84237 9.57057 2.67993 8.40038 2.67993 6.95614C2.67993 5.51191 3.84246 4.3418 5.27647 4.3418C6.71047 4.3418 7.87309 5.51226 7.87309 6.95614ZM10.7216 6.95614C10.7216 8.31538 10.1403 9.41716 9.4233 9.41716C8.7063 9.41716 8.12499 8.31503 8.12499 6.95614C8.12499 5.59726 8.7063 4.49513 9.4233 4.49513C10.1403 4.49513 10.7216 5.59726 10.7216 6.95614ZM11.8867 6.95614C11.8867 8.17395 11.6822 9.16111 11.4301 9.16111C11.1779 9.16111 10.9734 8.1736 10.9734 6.95614C10.9734 5.73868 11.1779 4.75117 11.4302 4.75117C11.6824 4.75117 11.8867 5.73842 11.8867 6.95614Z" fill="white"/>
    </g>
    <defs>
        <clipPath id="clip0_133_92986">
            <rect x="0.587402" y="0.259766" width="13.3917" height="13.3917" rx="3.34792" fill="white"/>
        </clipPath>
    </defs>
</svg>
