<svg width="84" height="85" viewBox="0 0 84 85" fill="none"
    xmlns="http://www.w3.org/2000/svg">
    <circle cx="38.7843" cy="42.4327" r="34.8741" fill="url(#paint0_linear_1053_187316)"/>
    <circle cx="38.7843" cy="42.4327" r="34.8741" fill="url(#paint1_linear_1053_187316)"/>
    <path fill-rule="evenodd" clip-rule="evenodd" d="M40.965 63.3586L55.2053 63.3586L56.2224 63.3586L69.4455 63.3586C75.6249 63.3586 80.6343 58.3492 80.6343 52.1698C80.6343 45.9904 75.6249 40.981 69.4455 40.981C69.2002 40.981 68.9567 40.9889 68.7153 41.0045C66.1612 36.1522 61.0696 32.8438 55.2053 32.8438C47.8141 32.8438 41.6504 38.0994 40.2474 45.0774C35.527 45.4434 31.8105 49.3898 31.8105 54.2042C31.8105 59.26 35.9091 63.3586 40.965 63.3586Z" fill="white"/>
    <path fill-rule="evenodd" clip-rule="evenodd" d="M40.965 63.3586L55.2053 63.3586L56.2224 63.3586L69.4455 63.3586C75.6249 63.3586 80.6343 58.3492 80.6343 52.1698C80.6343 45.9904 75.6249 40.981 69.4455 40.981C69.2002 40.981 68.9567 40.9889 68.7153 41.0045C66.1612 36.1522 61.0696 32.8438 55.2053 32.8438C47.8141 32.8438 41.6504 38.0994 40.2474 45.0774C35.527 45.4434 31.8105 49.3898 31.8105 54.2042C31.8105 59.26 35.9091 63.3586 40.965 63.3586Z" fill="url(#paint2_linear_1053_187316)"/>
    <path fill-rule="evenodd" clip-rule="evenodd" d="M40.965 63.3586L55.2053 63.3586L56.2224 63.3586L69.4455 63.3586C75.6249 63.3586 80.6343 58.3492 80.6343 52.1698C80.6343 45.9904 75.6249 40.981 69.4455 40.981C69.2002 40.981 68.9567 40.9889 68.7153 41.0045C66.1612 36.1522 61.0696 32.8438 55.2053 32.8438C47.8141 32.8438 41.6504 38.0994 40.2474 45.0774C35.527 45.4434 31.8105 49.3898 31.8105 54.2042C31.8105 59.26 35.9091 63.3586 40.965 63.3586Z" fill="url(#paint3_linear_1053_187316)"/>
    <path d="M31.8105 54.2052C31.8105 49.1494 35.9091 45.0508 40.965 45.0508H44.0165C50.7576 45.0508 56.2224 50.5156 56.2224 57.2567V63.3597H40.965C35.9091 63.3597 31.8105 59.2611 31.8105 54.2052Z" fill="url(#paint4_radial_1053_187316)"/>
    <path d="M39.9482 48.1012C39.9482 39.6747 46.7792 32.8438 55.2057 32.8438C63.6321 32.8438 70.4631 39.6747 70.4631 48.1012C70.4631 56.5276 63.6321 63.3586 55.2057 63.3586C46.7792 63.3586 39.9482 56.5276 39.9482 48.1012Z" fill="url(#paint5_radial_1053_187316)"/>
    <circle cx="69.4456" cy="52.1693" r="11.1888" fill="url(#paint6_radial_1053_187316)"/>
    <defs>
        <linearGradient id="paint0_linear_1053_187316" x1="13.7185" y1="17.3669" x2="73.6544" y2="71.4171" gradientUnits="userSpaceOnUse">
            <stop offset="0.162966" stop-color="#FFE975"/>
            <stop offset="0.53915" stop-color="#FFB729"/>
            <stop offset="0.742056" stop-color="#FF9900"/>
        </linearGradient>
        <linearGradient id="paint1_linear_1053_187316" x1="56.2243" y1="72.7061" x2="21.3444" y2="12.2922" gradientUnits="userSpaceOnUse">
            <stop stop-color="#E25A01"/>
            <stop offset="1" stop-color="#FFD400"/>
        </linearGradient>
        <linearGradient id="paint2_linear_1053_187316" x1="47.068" y1="39.9639" x2="56.2224" y2="63.3586" gradientUnits="userSpaceOnUse">
            <stop stop-color="#C7DBFF"/>
            <stop offset="1" stop-color="#B5CBDF" stop-opacity="0"/>
        </linearGradient>
        <linearGradient id="paint3_linear_1053_187316" x1="53.5777" y1="64.4385" x2="52.9362" y2="32.8437" gradientUnits="userSpaceOnUse">
            <stop stop-color="#C3D0E7"/>
            <stop offset="0.257422" stop-color="#D0E0EE" stop-opacity="0"/>
        </linearGradient>
        <radialGradient id="paint4_radial_1053_187316" cx="0" cy="0" r="1" gradientUnits="userSpaceOnUse" gradientTransform="translate(45.0337 63.3597) rotate(-117.897) scale(19.5655 22.6425)">
            <stop offset="0.629385" stop-color="#B8CDDF" stop-opacity="0"/>
            <stop offset="1" stop-color="#A3B9CC"/>
        </radialGradient>
        <radialGradient id="paint5_radial_1053_187316" cx="0" cy="0" r="1" gradientUnits="userSpaceOnUse" gradientTransform="translate(55.2057 60.3071) rotate(-90) scale(27.4634)">
            <stop offset="0.6875" stop-color="#B8CDDF" stop-opacity="0"/>
            <stop offset="1" stop-color="#C1D7EA"/>
        </radialGradient>
        <radialGradient id="paint6_radial_1053_187316" cx="0" cy="0" r="1" gradientUnits="userSpaceOnUse" gradientTransform="translate(63.4783 60.3744) rotate(-56.3099) scale(21.5156)">
            <stop offset="0.382649" stop-color="#B8CDDF" stop-opacity="0"/>
            <stop offset="1" stop-color="#A3B9CC"/>
        </radialGradient>
    </defs>
</svg>
