<svg width="18" height="18" viewBox="0 0 18 18" fill="none"
    xmlns="http://www.w3.org/2000/svg">
    <path d="M3.22534 6.44595L1.5143 8.15698C1.15409 8.5172 1.15409 9.05753 1.5143 9.41775L4.57616 12.3896L7.54797 9.41775L4.57616 6.44595C4.21595 6.08573 3.58556 6.08573 3.22534 6.44595Z" fill="#185ABD"/>
    <path d="M15.2023 5.18454L13.4912 3.38345C13.131 3.02323 12.5907 3.02323 12.2305 3.38345L9.88906 5.72487L6.91725 8.78673L4.57583 11.1282C4.21561 11.4884 4.21561 12.0287 4.57583 12.3889L6.28687 14.1C6.64709 14.4602 7.18741 14.4602 7.54763 14.1L9.88906 11.7585L12.8609 8.78673L15.2023 6.44531C15.5625 6.08509 15.5625 5.4547 15.2023 5.18454Z" fill="url(#paint0_linear_1053_187207)"/>
    <defs>
        <linearGradient id="paint0_linear_1053_187207" x1="9.69565" y1="-0.00992583" x2="1.18148" y2="8.81552" gradientUnits="userSpaceOnUse">
            <stop stop-color="#62C4F6"/>
            <stop offset="1" stop-color="#2A88E5"/>
        </linearGradient>
    </defs>
</svg>
