<svg width="14" height="15" viewBox="0 0 14 15" fill="none"
    xmlns="http://www.w3.org/2000/svg">
    <rect width="13.3917" height="13.3917" transform="translate(0.572754 0.658203)" fill="#FFF500"/>
    <path d="M6.82271 4.79348H6.97737L6.99556 4.7207H5.04867L5.03048 4.79348H5.3125C5.55814 4.79348 5.75829 4.96634 5.75829 5.30295C5.75829 5.494 5.67641 5.73963 5.53994 6.03985L4.27538 8.83282L3.96606 5.20288C3.93877 4.92085 4.08433 4.79348 4.40275 4.79348H4.5847L4.60289 4.7207H1.85542L1.82812 4.79348H2.00098C2.21932 4.79348 2.3012 4.92995 2.3194 5.18468L2.81067 9.87904H3.96606L5.90385 5.77602C6.20407 5.16649 6.51339 4.79348 6.82271 4.79348ZM6.59527 9.89724C6.42241 9.89724 6.31324 9.84265 6.31324 9.55153C6.31324 9.18762 6.4497 8.46891 6.59527 7.81389C6.61346 8.11411 6.82271 8.41433 7.13202 8.41433C7.20481 8.41433 7.26849 8.40523 7.33217 8.39613C7.04105 9.6425 6.93188 9.89724 6.59527 9.89724ZM12.1084 7.43179C12.4723 7.43179 12.7089 7.13157 12.7089 6.78586C12.7089 6.49473 12.4996 6.27639 12.1994 6.27639C11.6626 6.27639 11.4079 6.70398 10.9621 7.48637C10.8711 6.9951 10.6437 6.35827 10.0796 6.35827C9.44281 6.35827 8.70591 7.26803 8.03269 7.83208C7.72337 8.09591 7.38676 8.25967 7.11383 8.25967C6.8318 8.25967 6.66805 7.97764 6.66805 7.47727C6.86819 6.65849 6.96827 6.44925 7.27759 6.44925C7.48683 6.44925 7.57781 6.56752 7.57781 6.81315C7.57781 7.07698 7.52322 7.51367 7.40495 8.06862C7.70517 7.97764 8.16005 7.59554 8.54215 7.18615C8.34201 6.70398 7.90532 6.37647 7.28668 6.37647C6.13129 6.37647 5.11236 7.41359 5.11236 8.57808C5.11236 9.37867 5.68551 9.98821 6.57707 9.98821C8.05088 9.98821 8.66952 8.71455 8.66952 7.82298C8.66952 7.69562 8.66042 7.60464 8.65132 7.48637C8.87876 7.24074 9.16989 7.0042 9.40642 7.0042C9.67935 7.0042 9.89769 7.68652 10.1069 8.71455C9.91589 8.92379 9.72484 9.32409 9.63386 9.39687C9.59747 9.03296 9.35184 8.80552 9.03342 8.80552C8.66952 8.80552 8.42388 9.15123 8.42388 9.44236C8.42388 9.76987 8.65132 9.98821 8.95154 9.98821C9.57928 9.98821 9.75213 9.39687 10.1433 8.86921C10.2616 9.43326 10.5436 9.98821 11.0258 9.98821C11.5989 9.98821 12.1266 9.49694 12.3995 9.15123L12.3449 9.06935C12.1721 9.24221 11.9992 9.35138 11.7991 9.35138C11.4443 9.35138 11.1896 8.58718 10.9985 7.65923C11.1168 7.50457 11.2987 7.10427 11.4261 6.95871C11.508 7.12247 11.6899 7.43179 12.1084 7.43179Z" fill="#23272B"/>
</svg>
