<svg width="24" height="25" fill="none"
    xmlns="http://www.w3.org/2000/svg">
    <g clip-path="url(#a)">
        <g filter="url(#b)">
            <path d="M12 .4A12 12 0 1 1 6.4 23l-5.1 1.4A1 1 0 0 1 0 23L1.4 18A12 12 0 0 1 12 .4Z" fill="url(#c)"/>
            <path d="M12 .4A12 12 0 1 1 6.4 23l-5.1 1.4A1 1 0 0 1 0 23L1.4 18A12 12 0 0 1 12 .4Z" fill="url(#d)"/>
            <path d="M12 .4A12 12 0 1 1 6.4 23l-5.1 1.4A1 1 0 0 1 0 23L1.4 18A12 12 0 0 1 12 .4Z" fill="url(#e)"/>
        </g>
        <g filter="url(#f)">
            <path d="M5 8.6c0-.6.6-1.2 1.3-1.2h7.5c.6 0 1.2.6 1.2 1.2v7.5c0 .7-.6 1.3-1.3 1.3H6.3c-.7 0-1.3-.6-1.3-1.3V8.6Z" fill="url(#g)"/>
            <path d="M16 10.6c0-.1 0-.3.2-.4L18 8.7c.4-.4 1-.1 1 .4v6.8c0 .5-.6.8-1 .5l-1.8-1.5c-.2-.1-.2-.3-.2-.4v-3.9Z" fill="url(#h)"/>
        </g>
    </g>
    <defs>
        <linearGradient id="c" x1="34.5" y1=".4" x2="-3.8" y2="17.5" gradientUnits="userSpaceOnUse">
            <stop offset=".5" stop-color="#7B82EA"/>
            <stop offset="1" stop-color="#231998"/>
        </linearGradient>
        <linearGradient id="d" x1="28.4" y1="-1.8" x2="12" y2="12.4" gradientUnits="userSpaceOnUse">
            <stop offset=".2" stop-color="#BFC4FF"/>
            <stop offset="1" stop-color="#7C9FFF" stop-opacity="0"/>
        </linearGradient>
        <linearGradient id="e" x1="-14.7" y1="-9.4" x2="15.3" y2="14" gradientUnits="userSpaceOnUse">
            <stop stop-color="#EFA4FB"/>
            <stop offset="1" stop-color="#EFA4FB" stop-opacity="0"/>
        </linearGradient>
        <linearGradient id="g" x1="16.2" y1="17.4" x2="12.5" y2="5.6" gradientUnits="userSpaceOnUse">
            <stop stop-color="#F2F2F2"/>
            <stop offset=".6" stop-color="#F8F8F8"/>
            <stop offset="1" stop-color="#fff"/>
        </linearGradient>
        <linearGradient id="h" x1="19.4" y1="16.5" x2="14.3" y2="10.3" gradientUnits="userSpaceOnUse">
            <stop stop-color="#F2F2F2"/>
            <stop offset=".6" stop-color="#F8F8F8"/>
            <stop offset="1" stop-color="#fff"/>
        </linearGradient>
        <filter id="b" x="0" y="-.1" width="24" height="24.5" filterUnits="userSpaceOnUse" color-interpolation-filters="sRGB">
            <feFlood flood-opacity="0" result="BackgroundImageFix"/>
            <feBlend in="SourceGraphic" in2="BackgroundImageFix" result="shape"/>
            <feColorMatrix in="SourceAlpha" values="0 0 0 0 0 0 0 0 0 0 0 0 0 0 0 0 0 0 127 0" result="hardAlpha"/>
            <feOffset dy="-.5"/>
            <feGaussianBlur stdDeviation=".4"/>
            <feComposite in2="hardAlpha" operator="arithmetic" k2="-1" k3="1"/>
            <feColorMatrix values="0 0 0 0 0 0 0 0 0 0 0 0 0 0 0 0 0 0 0.1 0"/>
            <feBlend in2="shape" result="effect1_innerShadow_1_111197"/>
        </filter>
        <filter id="f" x="3.5" y="6.4" width="17" height="13" filterUnits="userSpaceOnUse" color-interpolation-filters="sRGB">
            <feFlood flood-opacity="0" result="BackgroundImageFix"/>
            <feColorMatrix in="SourceAlpha" values="0 0 0 0 0 0 0 0 0 0 0 0 0 0 0 0 0 0 127 0" result="hardAlpha"/>
            <feOffset dy=".3"/>
            <feGaussianBlur stdDeviation=".3"/>
            <feColorMatrix values="0 0 0 0 0 0 0 0 0 0 0 0 0 0 0 0 0 0 0.1 0"/>
            <feBlend in2="BackgroundImageFix" result="effect1_dropShadow_1_111197"/>
            <feColorMatrix in="SourceAlpha" values="0 0 0 0 0 0 0 0 0 0 0 0 0 0 0 0 0 0 127 0" result="hardAlpha"/>
            <feOffset dy=".5"/>
            <feGaussianBlur stdDeviation=".8"/>
            <feColorMatrix values="0 0 0 0 0 0 0 0 0 0 0 0 0 0 0 0 0 0 0.2 0"/>
            <feBlend in2="effect1_dropShadow_1_111197" result="effect2_dropShadow_1_111197"/>
            <feBlend in="SourceGraphic" in2="effect2_dropShadow_1_111197" result="shape"/>
            <feColorMatrix in="SourceAlpha" values="0 0 0 0 0 0 0 0 0 0 0 0 0 0 0 0 0 0 127 0" result="hardAlpha"/>
            <feOffset dy="-.5"/>
            <feGaussianBlur stdDeviation=".4"/>
            <feComposite in2="hardAlpha" operator="arithmetic" k2="-1" k3="1"/>
            <feColorMatrix values="0 0 0 0 0.0822499 0 0 0 0 0 0 0 0 0 0.5875 0 0 0 0.14 0"/>
            <feBlend in2="shape" result="effect3_innerShadow_1_111197"/>
        </filter>
        <clipPath id="a">
            <path fill="#fff" transform="translate(0 .4)" d="M0 0h24v24H0z"/>
        </clipPath>
    </defs>
</svg>