<svg width="25" height="24" fill="none"
    xmlns="http://www.w3.org/2000/svg">
    <g clip-path="url(#a)">
        <g filter="url(#b)">
            <path d="M12.5 0a12 12 0 1 1-5.6 22.6L1.8 24a1 1 0 0 1-1.3-1.3L2 17.6A12 12 0 0 1 12.5 0Z" fill="url(#c)"/>
            <path d="M12.5 0a12 12 0 1 1-5.6 22.6L1.8 24a1 1 0 0 1-1.3-1.3L2 17.6A12 12 0 0 1 12.5 0Z" fill="url(#d)"/>
            <path d="M12.5 0a12 12 0 1 1-5.6 22.6L1.8 24a1 1 0 0 1-1.3-1.3L2 17.6A12 12 0 0 1 12.5 0Z" fill="url(#e)"/>
        </g>
        <g filter="url(#f)">
            <path d="M5.5 8.3c0-.7.6-1.3 1.3-1.3h7.5c.6 0 1.2.6 1.2 1.3v7.4c0 .7-.6 1.3-1.3 1.3H6.8c-.7 0-1.3-.6-1.3-1.3V8.3Z" fill="url(#g)"/>
            <path d="M16.5 10.3c0-.2 0-.4.2-.5l1.8-1.5c.4-.4 1-.1 1 .4v6.9c0 .4-.6.7-1 .4l-1.8-1.5c-.2-.1-.2-.3-.2-.4v-3.8Z" fill="url(#h)"/>
        </g>
    </g>
    <defs>
        <linearGradient id="c" x1="35" y1="0" x2="-3.3" y2="17.1" gradientUnits="userSpaceOnUse">
            <stop offset=".5" stop-color="#7B82EA"/>
            <stop offset="1" stop-color="#231998"/>
        </linearGradient>
        <linearGradient id="d" x1="28.9" y1="-2.2" x2="12.5" y2="12" gradientUnits="userSpaceOnUse">
            <stop offset=".2" stop-color="#BFC4FF"/>
            <stop offset="1" stop-color="#7C9FFF" stop-opacity="0"/>
        </linearGradient>
        <linearGradient id="e" x1="-14.2" y1="-9.8" x2="15.8" y2="13.6" gradientUnits="userSpaceOnUse">
            <stop stop-color="#EFA4FB"/>
            <stop offset="1" stop-color="#EFA4FB" stop-opacity="0"/>
        </linearGradient>
        <linearGradient id="g" x1="16.7" y1="17" x2="13" y2="5.2" gradientUnits="userSpaceOnUse">
            <stop stop-color="#F2F2F2"/>
            <stop offset=".6" stop-color="#F8F8F8"/>
            <stop offset="1" stop-color="#fff"/>
        </linearGradient>
        <linearGradient id="h" x1="19.9" y1="16.1" x2="14.8" y2="10" gradientUnits="userSpaceOnUse">
            <stop stop-color="#F2F2F2"/>
            <stop offset=".6" stop-color="#F8F8F8"/>
            <stop offset="1" stop-color="#fff"/>
        </linearGradient>
        <filter id="b" x=".5" y="-.5" width="24" height="24.5" filterUnits="userSpaceOnUse" color-interpolation-filters="sRGB">
            <feFlood flood-opacity="0" result="BackgroundImageFix"/>
            <feBlend in="SourceGraphic" in2="BackgroundImageFix" result="shape"/>
            <feColorMatrix in="SourceAlpha" values="0 0 0 0 0 0 0 0 0 0 0 0 0 0 0 0 0 0 127 0" result="hardAlpha"/>
            <feOffset dy="-.5"/>
            <feGaussianBlur stdDeviation=".4"/>
            <feComposite in2="hardAlpha" operator="arithmetic" k2="-1" k3="1"/>
            <feColorMatrix values="0 0 0 0 0 0 0 0 0 0 0 0 0 0 0 0 0 0 0.1 0"/>
            <feBlend in2="shape" result="effect1_innerShadow_2803_29632"/>
        </filter>
        <filter id="f" x="4" y="6" width="17" height="13" filterUnits="userSpaceOnUse" color-interpolation-filters="sRGB">
            <feFlood flood-opacity="0" result="BackgroundImageFix"/>
            <feColorMatrix in="SourceAlpha" values="0 0 0 0 0 0 0 0 0 0 0 0 0 0 0 0 0 0 127 0" result="hardAlpha"/>
            <feOffset dy=".3"/>
            <feGaussianBlur stdDeviation=".3"/>
            <feColorMatrix values="0 0 0 0 0 0 0 0 0 0 0 0 0 0 0 0 0 0 0.1 0"/>
            <feBlend in2="BackgroundImageFix" result="effect1_dropShadow_2803_29632"/>
            <feColorMatrix in="SourceAlpha" values="0 0 0 0 0 0 0 0 0 0 0 0 0 0 0 0 0 0 127 0" result="hardAlpha"/>
            <feOffset dy=".5"/>
            <feGaussianBlur stdDeviation=".8"/>
            <feColorMatrix values="0 0 0 0 0 0 0 0 0 0 0 0 0 0 0 0 0 0 0.2 0"/>
            <feBlend in2="effect1_dropShadow_2803_29632" result="effect2_dropShadow_2803_29632"/>
            <feBlend in="SourceGraphic" in2="effect2_dropShadow_2803_29632" result="shape"/>
            <feColorMatrix in="SourceAlpha" values="0 0 0 0 0 0 0 0 0 0 0 0 0 0 0 0 0 0 127 0" result="hardAlpha"/>
            <feOffset dy="-.5"/>
            <feGaussianBlur stdDeviation=".4"/>
            <feComposite in2="hardAlpha" operator="arithmetic" k2="-1" k3="1"/>
            <feColorMatrix values="0 0 0 0 0.0822499 0 0 0 0 0 0 0 0 0 0.5875 0 0 0 0.14 0"/>
            <feBlend in2="shape" result="effect3_innerShadow_2803_29632"/>
        </filter>
        <clipPath id="a">
            <path fill="#fff" transform="translate(.5)" d="M0 0h24v24H0z"/>
        </clipPath>
    </defs>
</svg>