<svg width="24" height="24" viewBox="0 0 24 25"
    xmlns="http://www.w3.org/2000/svg">
    <g clip-path="url(#a)">
        <path d="m21.7 18.3-1 .4c-1.1.4-2.2.6-3.4.6-4.4 0-8.3-3-8.3-7a3 3 0 0 1 1.5-2.5c-4 .1-5 4.3-5 6.8 0 6.9 6.4 7.6 7.8 7.6a10 10 0 0 0 2.6-.5 12 12 0 0 0 6.3-5 .4.4 0 0 0-.5-.4Z" fill="url(#b)"/>
        <path opacity=".3" d="m21.7 18.3-1 .4c-1.1.4-2.2.6-3.4.6-4.4 0-8.3-3-8.3-7a3 3 0 0 1 1.5-2.5c-4 .1-5 4.3-5 6.8 0 6.9 6.4 7.6 7.8 7.6a10 10 0 0 0 2.6-.5 12 12 0 0 0 6.3-5 .4.4 0 0 0-.5-.4Z" fill="url(#c)"/>
        <path d="M10 23a7.6 7.6 0 0 1 .6-13.2c.4-.3.9-.4 1.4-.4a3 3 0 0 1 3 3s2.3-7.5-7.5-7.5C3.4 4.9 0 8.8 0 12.2c0 1.8.4 3.6 1.1 5.3a12 12 0 0 0 14.7 6.3 7 7 0 0 1-5.9-.8Z" fill="url(#d)"/>
        <path opacity=".4" d="M10 23a7.6 7.6 0 0 1 .6-13.2c.4-.3.9-.4 1.4-.4a3 3 0 0 1 3 3s2.3-7.5-7.5-7.5C3.4 4.9 0 8.8 0 12.2c0 1.8.4 3.6 1.1 5.3a12 12 0 0 0 14.7 6.3 7 7 0 0 1-5.9-.8Z" fill="url(#e)"/>
        <path d="M14.3 14.3c-.1.1-.3.3-.3.6a.9.9 0 0 0 .4.7c1.4.9 3.9.8 4 .8 1 0 1.9-.3 2.7-.8a5.8 5.8 0 0 0 2.9-5c0-1.4-.4-2.8-1-4A12 12 0 0 0 12 .3 12 12 0 0 0 0 12.2C0 8.8 3.5 6 7.5 6a9 9 0 0 1 4 1 6 6 0 0 1 3.6 5.5c-.1.7-.4 1.3-.8 1.8Z" fill="url(#f)"/>
        <path d="M14.3 14.3c-.1.1-.3.3-.3.6a.9.9 0 0 0 .4.7c1.4.9 3.9.8 4 .8 1 0 1.9-.3 2.7-.8a5.8 5.8 0 0 0 2.9-5c0-1.4-.4-2.8-1-4A12 12 0 0 0 12 .3 12 12 0 0 0 0 12.2C0 8.8 3.5 6 7.5 6a9 9 0 0 1 4 1 6 6 0 0 1 3.6 5.5c-.1.7-.4 1.3-.8 1.8Z" fill="url(#g)"/>
    </g>
    <defs>
        <radialGradient id="c" cx="0" cy="0" r="1" gradientUnits="userSpaceOnUse" gradientTransform="matrix(8.94225 0 0 8.5047 14.7 17.1)">
            <stop offset=".7" stop-opacity="0"/>
            <stop offset=".9" stop-opacity=".5"/>
            <stop offset="1"/>
        </radialGradient>
        <radialGradient id="e" cx="0" cy="0" r="1" gradientUnits="userSpaceOnUse" gradientTransform="rotate(-81.5 14.4 5.6) scale(13.4283 10.8206)">
            <stop offset=".8" stop-opacity="0"/>
            <stop offset=".9" stop-opacity=".5"/>
            <stop offset="1"/>
        </radialGradient>
        <radialGradient id="f" cx="0" cy="0" r="1" gradientUnits="userSpaceOnUse" gradientTransform="matrix(-.70502 18.9648 -40.3919 -1.50158 2.4 4.8)">
            <stop stop-color="#35C1F1"/>
            <stop offset=".1" stop-color="#34C1ED"/>
            <stop offset=".2" stop-color="#2FC2DF"/>
            <stop offset=".3" stop-color="#2BC3D2"/>
            <stop offset=".7" stop-color="#36C752"/>
        </radialGradient>
        <radialGradient id="g" cx="0" cy="0" r="1" gradientUnits="userSpaceOnUse" gradientTransform="rotate(73.7 6.3 19) scale(9.12542 7.45043)">
            <stop stop-color="#66EB6E"/>
            <stop offset="1" stop-color="#66EB6E" stop-opacity="0"/>
        </radialGradient>
        <linearGradient id="b" x1="5.5" y1="17" x2="22.2" y2="17" gradientUnits="userSpaceOnUse">
            <stop stop-color="#0C59A4"/>
            <stop offset="1" stop-color="#114A8B"/>
        </linearGradient>
        <linearGradient id="d" x1="14.3" y1="9.7" x2="3.9" y2="21.1" gradientUnits="userSpaceOnUse">
            <stop stop-color="#1B9DE2"/>
            <stop offset=".2" stop-color="#1595DF"/>
            <stop offset=".7" stop-color="#0680D7"/>
            <stop offset="1" stop-color="#0078D4"/>
        </linearGradient>
        <clipPath id="a">
            <path fill="#fff" transform="translate(0 .4)" d="M0 0h24v24H0z"/>
        </clipPath>
    </defs>
</svg>