<svg width="24" height="24" viewBox="0 0 24 24" fill="none" xmlns="http://www.w3.org/2000/svg">
<path d="M8.6252 22.5C10.4882 22.5 12.0004 20.9317 12.0004 18.9997V15.4994H8.6252C6.76224 15.4994 5.25 17.0677 5.25 18.9997C5.25 20.9317 6.76224 22.5 8.6252 22.5Z" fill="black" fill-opacity="0.86"/>
<path d="M5.25 12C5.25 10.068 6.76224 8.49973 8.6252 8.49973H12.0004V15.4994H8.6252C6.76224 15.5003 5.25 13.932 5.25 12Z" fill="#A259FF"/>
<path d="M5.25 5.00028C5.25 3.06828 6.76224 1.5 8.6252 1.5H12.0004V8.49972H8.6252C6.76224 8.49972 5.25 6.93228 5.25 5.00028Z" fill="#F24E1E"/>
<path d="M11.9995 1.5H15.3747C17.2377 1.5 18.7499 3.06828 18.7499 5.00028C18.7499 6.93228 17.2377 8.49972 15.3747 8.49972H11.9995V1.5Z" fill="#FF7262"/>
<path d="M18.7499 12C18.7499 13.932 17.2377 15.5003 15.3747 15.5003C13.5118 15.5003 11.9995 13.932 11.9995 12C11.9995 10.068 13.5118 8.49973 15.3747 8.49973C17.2377 8.49973 18.7499 10.068 18.7499 12Z" fill="#1ABCFE"/>
</svg>
