<svg width="24" height="25" fill="none"
    xmlns="http://www.w3.org/2000/svg">
    <g clip-path="url(#a)">
        <path d="M22.8 4.4H9.5l-.9-1.1a2.4 2.4 0 0 0-1.8-1H1.2A1.2 1.2 0 0 0 0 3.7v17.6a1.2 1.2 0 0 0 1.2 1.2h21.6a1.2 1.2 0 0 0 1.2-1.2V5.6a1.2 1.2 0 0 0-1.2-1.2Z" fill="url(#b)"/>
        <mask id="d" maskUnits="userSpaceOnUse" x="0" y="2" width="24" height="21" style="mask-type:alpha">
            <path d="M22.8 4.4H9.5l-.9-1.1a2.4 2.4 0 0 0-1.8-1H1.2A1.2 1.2 0 0 0 0 3.7v17.6a1.2 1.2 0 0 0 1.2 1.2h21.6a1.2 1.2 0 0 0 1.2-1.2V5.6a1.2 1.2 0 0 0-1.2-1.2Z" fill="url(#c)"/>
        </mask>
        <g filter="url(#e)" mask="url(#d)">
            <path d="M20.5 6.4h-19C.7 6.4 0 7 0 7.9v4c0 .8.7 1.5 1.5 1.5h19c.8 0 1.5-.7 1.5-1.5v-4c0-.8-.7-1.5-1.5-1.5Z" fill="#C4C4C4"/>
        </g>
        <path d="M10.3 5.4c-.4 0-.8.1-1.1.3-.6.5-1.3.7-2 .7h-6A1.2 1.2 0 0 0 0 7.6v14.6a1.2 1.2 0 0 0 1.2 1.2h21.6a1.2 1.2 0 0 0 1.2-1.2V6.6a1.2 1.2 0 0 0-1.2-1.2H10.3Z" fill="url(#f)"/>
        <path opacity=".3" d="M22.8 5.4H10.3c-.4 0-.8 0-1 .3-.7.5-1.5.7-2.3.7H1.2A1.2 1.2 0 0 0 0 7.6v1a1.2 1.2 0 0 1 1.2-1.2h6c.8 0 1.7-.2 2.4-.7.3-.2.6-.3 1-.3h12.2A1.2 1.2 0 0 1 24 7.6v-1a1.2 1.2 0 0 0-1.2-1.2Z" fill="url(#g)"/>
        <mask id="i" maskUnits="userSpaceOnUse" x="0" y="5" width="24" height="19" style="mask-type:alpha">
            <path d="M10.3 5.4c-.4 0-.8.1-1.1.3-.6.5-1.3.7-2 .7h-6A1.2 1.2 0 0 0 0 7.6v14.6a1.2 1.2 0 0 0 1.2 1.2h21.6a1.2 1.2 0 0 0 1.2-1.2V6.6a1.2 1.2 0 0 0-1.2-1.2H10.3Z" fill="url(#h)"/>
        </mask>
        <g filter="url(#j)" mask="url(#i)">
            <path d="M7 16.4h10a3 3 0 0 1 3 3v4H4v-4a3 3 0 0 1 3-3Z" fill="url(#k)"/>
        </g>
        <path d="M7 16.4h10a3 3 0 0 1 3 3v4H4v-4a3 3 0 0 1 3-3Z" fill="url(#l)"/>
        <path d="M16.5 19.4h-9a.5.5 0 0 0 0 1h9a.5.5 0 1 0 0-1Z" fill="#114A8B"/>
    </g>
    <defs>
        <linearGradient id="b" x1="17.6" y1="23.1" x2="6.1" y2="3.2" gradientUnits="userSpaceOnUse">
            <stop offset=".1" stop-color="#D18B00"/>
            <stop offset=".6" stop-color="#E09F00"/>
        </linearGradient>
        <linearGradient id="c" x1="17.6" y1="23.1" x2="6.1" y2="3.2" gradientUnits="userSpaceOnUse">
            <stop offset=".1" stop-color="#D18B00"/>
            <stop offset=".6" stop-color="#E09F00"/>
        </linearGradient>
        <linearGradient id="f" x1="18.6" y1="25.9" x2="6.2" y2="4.3" gradientUnits="userSpaceOnUse">
            <stop stop-color="#F5B300"/>
            <stop offset=".5" stop-color="#FFCB3C"/>
            <stop offset="1" stop-color="#FFD762"/>
        </linearGradient>
        <linearGradient id="g" x1="0" y1="7" x2="24" y2="7" gradientUnits="userSpaceOnUse">
            <stop stop-color="#fff"/>
            <stop offset="1" stop-color="#fff" stop-opacity="0"/>
        </linearGradient>
        <linearGradient id="h" x1="18.6" y1="25.9" x2="6.2" y2="4.3" gradientUnits="userSpaceOnUse">
            <stop stop-color="#F5B300"/>
            <stop offset=".5" stop-color="#FFCB3C"/>
            <stop offset="1" stop-color="#FFD762"/>
        </linearGradient>
        <linearGradient id="k" x1="14.4" y1="25.1" x2="8.8" y2="15.4" gradientUnits="userSpaceOnUse">
            <stop stop-color="#0062B4"/>
            <stop offset="1" stop-color="#1493DF"/>
        </linearGradient>
        <linearGradient id="l" x1="14.4" y1="25.1" x2="8.8" y2="15.4" gradientUnits="userSpaceOnUse">
            <stop stop-color="#0062B4"/>
            <stop offset="1" stop-color="#1493DF"/>
        </linearGradient>
        <filter id="e" x="-1.5" y="4.9" width="25" height="10" filterUnits="userSpaceOnUse" color-interpolation-filters="sRGB">
            <feFlood flood-opacity="0" result="BackgroundImageFix"/>
            <feColorMatrix in="SourceAlpha" values="0 0 0 0 0 0 0 0 0 0 0 0 0 0 0 0 0 0 127 0" result="hardAlpha"/>
            <feOffset/>
            <feGaussianBlur stdDeviation=".3"/>
            <feColorMatrix values="0 0 0 0 0 0 0 0 0 0 0 0 0 0 0 0 0 0 0.1 0"/>
            <feBlend in2="BackgroundImageFix" result="effect1_dropShadow_1_111206"/>
            <feColorMatrix in="SourceAlpha" values="0 0 0 0 0 0 0 0 0 0 0 0 0 0 0 0 0 0 127 0" result="hardAlpha"/>
            <feOffset/>
            <feGaussianBlur stdDeviation=".8"/>
            <feColorMatrix values="0 0 0 0 0 0 0 0 0 0 0 0 0 0 0 0 0 0 0.2 0"/>
            <feBlend in2="effect1_dropShadow_1_111206" result="effect2_dropShadow_1_111206"/>
            <feBlend in="SourceGraphic" in2="effect2_dropShadow_1_111206" result="shape"/>
        </filter>
        <filter id="j" x="2.5" y="14.9" width="19" height="10" filterUnits="userSpaceOnUse" color-interpolation-filters="sRGB">
            <feFlood flood-opacity="0" result="BackgroundImageFix"/>
            <feColorMatrix in="SourceAlpha" values="0 0 0 0 0 0 0 0 0 0 0 0 0 0 0 0 0 0 127 0" result="hardAlpha"/>
            <feOffset/>
            <feGaussianBlur stdDeviation=".3"/>
            <feColorMatrix values="0 0 0 0 0 0 0 0 0 0 0 0 0 0 0 0 0 0 0.1 0"/>
            <feBlend in2="BackgroundImageFix" result="effect1_dropShadow_1_111206"/>
            <feColorMatrix in="SourceAlpha" values="0 0 0 0 0 0 0 0 0 0 0 0 0 0 0 0 0 0 127 0" result="hardAlpha"/>
            <feOffset/>
            <feGaussianBlur stdDeviation=".8"/>
            <feColorMatrix values="0 0 0 0 0 0 0 0 0 0 0 0 0 0 0 0 0 0 0.2 0"/>
            <feBlend in2="effect1_dropShadow_1_111206" result="effect2_dropShadow_1_111206"/>
            <feBlend in="SourceGraphic" in2="effect2_dropShadow_1_111206" result="shape"/>
        </filter>
        <clipPath id="a">
            <path fill="#fff" transform="translate(0 .4)" d="M0 0h24v24H0z"/>
        </clipPath>
    </defs>
</svg>