<svg xmlns="http://www.w3.org/2000/svg">
    <defs>
        <symbol width="16" height="16" viewBox="0 0 17 17" id="battery">
            <path fill="currentcolor" d="M16 8.9c0 .3-.1.5-.3.7a1 1 0 0 1-.7.3h-1v1c0 .4 0 .7-.2 1a2.5 2.5 0 0 1-1.3 1.3l-1 .2h-9c-.4 0-.7 0-1-.2l-.8-.5-.5-.8-.2-1V6c0-.4 0-.7.2-1a2.6 2.6 0 0 1 1.3-1.3l1-.2h9c.4 0 .7 0 1 .2a2.4 2.4 0 0 1 1.3 1.3l.2 1v1h1.4a1 1 0 0 1 .6 1v1Zm-3-3a1.5 1.5 0 0 0-.4-1 1.4 1.4 0 0 0-1.1-.5h-9a1.5 1.5 0 0 0-1 .4 1.5 1.5 0 0 0-.5 1v5l.1.7.3.5c.2 0 .3.2.5.3h9.6a1.5 1.5 0 0 0 1-.3 1.5 1.5 0 0 0 .5-1.1v-5Zm-4.8-.5c.3 0 .4 0 .6.2l.2.5v4.5c0 .2 0 .4-.2.6l-.6.2H2.8c-.3 0-.4 0-.6-.2a.7.7 0 0 1-.2-.6V6.1c0-.2 0-.3.2-.5l.5-.2h5.5Z"/>
        </symbol>
        <symbol width="16" height="16" viewBox="0 0 16 17" id="volume">
            <g clip-path="url(#a)">
                <g clip-path="url(#b)">
                    <path d="M12 14.6v-.2a1.3 1.3 0 0 1 .4-.4l.3-.2a7 7 0 0 0 2.1-3.9 7.4 7.4 0 0 0-1.1-5.8 6.3 6.3 0 0 0-1.5-1.6l-.2-.1V2l.1-.3a.5.5 0 0 1 .6-.1h.1l.7.6A7.6 7.6 0 0 1 14.7 4a9 9 0 0 1 1 2.6 8.4 8.4 0 0 1-1.5 7.2 9.1 9.1 0 0 1-1.4 1.3l-.1.1h-.2l-.4-.1a.5.5 0 0 1-.1-.4Zm-8.7-3.2H1.5l-.6-.1-.5-.3-.3-.5-.1-.6v-3a1.5 1.5 0 0 1 .4-1 1.5 1.5 0 0 1 1.1-.5h1.8L5.7 3l.3-.2h.3c.2 0 .3 0 .5.2l.2.5V13.6l-.2.2-.3.2h-.3c-.2 0-.3 0-.5-.2l-2.4-2.4Zm6.7 1.4v-.2l.2-.1a15.2 15.2 0 0 0 1.3-1.9l.4-1a5.4 5.4 0 0 0 0-2.4 4.5 4.5 0 0 0-1-2 15.2 15.2 0 0 0-.8-1v-.6l.4-.1h.4l.4.5a5.1 5.1 0 0 1 .9 1.2l.2.6a6.4 6.4 0 0 1-.2 5.8 8 8 0 0 1-.9 1.2 2.4 2.4 0 0 1-.6.5h-.2l-.3-.1a.5.5 0 0 1-.2-.4Zm-4-.1V4L3.9 6.2l-.4.2h-2l-.4.1L1 7v3l.1.3.4.2h2l.4.1L6 12.7Zm2-1.8.1-.1.1-.2a13.6 13.6 0 0 0 .6-1 3.3 3.3 0 0 0-.3-2.9 10.6 10.6 0 0 0-.4-.7V6l.1-.4.4-.1h.2l.2.1.4.7c.1.2.3.4.3.7A4.3 4.3 0 0 1 10 9a4.8 4.8 0 0 1-.5 1.5l-.4.6a.5.5 0 0 1-.8 0 .5.5 0 0 1-.1-.3Z" fill="currentColor"/>
                </g>
            </g>
            <defs>
                <clipPath id="a">
                    <path fill="#fff" transform="translate(0 .4)" d="M0 0h16v16H0z"/>
                </clipPath>
                <clipPath id="b">
                    <path fill="#fff" transform="translate(0 .4)" d="M0 0h16v16H0z"/>
                </clipPath>
            </defs>
        </symbol>
        <symbol width="16" height="16" viewBox="0 0 17 17" id="wifi">
            <g clip-path="url(#a)">
                <path d="M8 3.4a8.2 8.2 0 0 0-3.3.7A8.6 8.6 0 0 0 1 7c0 .1 0 .2-.2.2H.3L0 6.8l.1-.3 1.5-1.8a9.7 9.7 0 0 1 10.9-1.3 9.5 9.5 0 0 1 3.4 3.1.5.5 0 0 1 0 .7h-.7l-.1-.1a6 6 0 0 1-.3-.5A5.4 5.4 0 0 0 14 6a8.5 8.5 0 0 0-6-2.5Zm0 3a5.3 5.3 0 0 0-3.3 1 5.5 5.5 0 0 0-1.5 1.7c0 .1 0 .2-.2.2h-.5a.5.5 0 0 1-.2-.4v-.3l1-1.3a6.6 6.6 0 0 1 3-1.7 6.2 6.2 0 0 1 5 .7c.4.3 1 .6 1.3 1 .4.4.8.8 1 1.3l.1.3c0 .1 0 .2-.2.3l-.3.2h-.3l-.1-.3-.4-.4c0-.2-.2-.3-.3-.5A5.3 5.3 0 0 0 10.2 7 5.3 5.3 0 0 0 8 6.4Zm0 3-.8.1a3.3 3.3 0 0 0-1.2.6 2.8 2.8 0 0 0-.5.6l-.2.4-.2.2h-.6l-.2-.4v-.2l.7-1a4.1 4.1 0 0 1 2-1.1 3.6 3.6 0 0 1 2.1 0A4.2 4.2 0 0 1 11 9.7c.3.3.5.6.6 1v.2a.5.5 0 0 1-.4.5h-.3l-.2-.3a8.3 8.3 0 0 0-.5-.7l-.2-.3-.4-.2A3.1 3.1 0 0 0 8 9.4Zm-1.3 3c0-.2 0-.3.2-.5a1.3 1.3 0 0 1 .6-.7h1l.4.3a1.2 1.2 0 0 1 .3.9v.5a1.3 1.3 0 0 1-.7.6l-.5.1h-.5l-.4-.3-.2-.4-.2-.5Z" fill="currentColor"/>
            </g>
            <defs>
                <clipPath id="a">
                    <path fill="#fff" transform="translate(0 .4)" d="M0 0h16.1v16H0z"/>
                </clipPath>
            </defs>
        </symbol>
        <symbol width="16" height="16" viewBox="0 0 16 17" id="chevron-up">
            <g clip-path="url(#clip0_1_110857)">
                <path d="M2.66406 10.3906C2.66406 10.2083 2.72917 10.0521 2.85938 9.92188L7.53125 5.25C7.66146 5.11979 7.81771 5.05469 8 5.05469C8.18229 5.05469 8.33854 5.11979 8.46875 5.25L13.1406 9.92188C13.2708 10.0521 13.3359 10.2083 13.3359 10.3906C13.3359 10.5781 13.2682 10.737 13.1328 10.8672C13.0026 10.9922 12.8464 11.0547 12.6641 11.0547C12.4818 11.0547 12.3255 10.9896 12.1953 10.8594L8 6.66406L3.80469 10.8594C3.67448 10.9896 3.51823 11.0547 3.33594 11.0547C3.15365 11.0547 2.99479 10.9922 2.85938 10.8672C2.72917 10.737 2.66406 10.5781 2.66406 10.3906Z" fill="currentColor"></path>
            </g>
            <defs>
                <clipPath id="clip0_1_110857">
                    <rect width="16" height="16" fill="white" transform="translate(0 0.390625)"></rect>
                </clipPath>
            </defs>
        </symbol>
    </defs>
</svg>