<svg width="24" height="24" fill="none"
    xmlns="http://www.w3.org/2000/svg">
    <g clip-path="url(#a)">
        <path opacity=".2" d="M9.9 18A8 8 0 0 1 2 10a8 8 0 1 1 7.9 8Z" fill="url(#b)"/>
        <g filter="url(#c)">
            <path fill-rule="evenodd" clip-rule="evenodd" d="M10 0a10 10 0 1 0 0 20 10 10 0 0 0 6-2l5 5a1.5 1.5 0 0 0 2-2l-5-5a10 10 0 0 0 2-6A10 10 0 0 0 10 0Zm-.1 17.3c-4 0-7.2-3.2-7.2-7.3a7.3 7.3 0 1 1 7.2 7.3Z" fill="url(#d)"/>
        </g>
    </g>
    <defs>
        <linearGradient id="b" x1="15" y1="17" x2="13.7" y2="1.8" gradientUnits="userSpaceOnUse">
            <stop stop-color="#fff" stop-opacity=".5"/>
            <stop offset="1" stop-color="#fff"/>
        </linearGradient>
        <linearGradient id="d" x1="17.6" y1="21.9" x2="5.9" y2="1.6" gradientUnits="userSpaceOnUse">
            <stop stop-color="#D5D8DD"/>
            <stop offset="1" stop-color="#fff"/>
        </linearGradient>
        <clipPath id="a">
            <path fill="#fff" d="M0 0h24v24H0z"/>
        </clipPath>
        <filter id="c" x="0" y="-.5" width="23.5" height="24" filterUnits="userSpaceOnUse" color-interpolation-filters="sRGB">
            <feFlood flood-opacity="0" result="BackgroundImageFix"/>
            <feBlend in="SourceGraphic" in2="BackgroundImageFix" result="shape"/>
            <feColorMatrix in="SourceAlpha" values="0 0 0 0 0 0 0 0 0 0 0 0 0 0 0 0 0 0 127 0" result="hardAlpha"/>
            <feOffset dy="-.5"/>
            <feGaussianBlur stdDeviation=".4"/>
            <feComposite in2="hardAlpha" operator="arithmetic" k2="-1" k3="1"/>
            <feColorMatrix values="0 0 0 0 0 0 0 0 0 0 0 0 0 0 0 0 0 0 0.2 0"/>
            <feBlend in2="shape" result="effect1_innerShadow_2803_35182"/>
        </filter>
    </defs>
</svg>