<svg width="24" height="24" viewBox="0 0 32 32" fill="none"
    xmlns="http://www.w3.org/2000/svg">
    <path d="M21.4 1c-.3 0-.7 0-.9.4a5.4 5.4 0 0 1-9.3 0 .9.9 0 0 0-.9-.4C8.6 1.6 7 2.5 5.6 3.7c-.3.2-.3.6-.1 1a5.3 5.3 0 0 1-4.6 8c-.3 0-.7.2-.7.6a15 15 0 0 0 0 5.4c.2.4.4.6.8.6a5.3 5.3 0 0 1 4.7 8c-.2.3-.2.7.1 1 .7.6 1.5 1 2.3 1.5.8.5 1.6 1 2.5 1.2.3.2.7 0 .9-.3a5.4 5.4 0 0 1 9.3 0c.2.3.5.5.9.4 1.7-.6 3.3-1.5 4.7-2.7.3-.2.3-.6.1-.9a5.3 5.3 0 0 1 4.6-8c.3 0 .7-.2.7-.6a15 15 0 0 0 0-5.4c-.2-.4-.4-.6-.8-.6a5.3 5.3 0 0 1-4.7-8c.2-.3.2-.7-.1-1l-2.3-1.6c-.8-.6-1.6-.9-2.5-1.2Z" fill="url(#a)"/>
    <path d="M16 24.3a8 8 0 1 0 0-16 8 8 0 0 0 0 16Z" fill="url(#b)"/>
    <path d="M16 21.7A5.3 5.3 0 1 0 16 11a5.3 5.3 0 0 0 0 10.7Z" fill="url(#c)"/>
    <defs>
        <linearGradient id="a" x1="23.9" y1="29.9" x2="7.9" y2="2.2" gradientUnits="userSpaceOnUse">
            <stop stop-color="#626F7A"/>
            <stop offset="1" stop-color="#8B9299"/>
        </linearGradient>
        <linearGradient id="b" x1="20" y1="23.3" x2="12" y2="9.4" gradientUnits="userSpaceOnUse">
            <stop stop-color="#fff"/>
            <stop offset="1" stop-color="#CCC"/>
        </linearGradient>
        <linearGradient id="c" x1="18.7" y1="21" x2="13.3" y2="11.7" gradientUnits="userSpaceOnUse">
            <stop stop-color="#114A8B"/>
            <stop offset="1" stop-color="#0669BC"/>
        </linearGradient>
    </defs>
</svg>