<svg width="25" height="24" fill="none"
    xmlns="http://www.w3.org/2000/svg">
    <g clip-path="url(#a)">
        <path fill-rule="evenodd" clip-rule="evenodd" d="M1.5 1a1 1 0 0 0-1 1v10h11V1h-10Zm21 0h-10v11h11V2c0-.6-.4-1-1-1Zm-10 12h11v10c0 .6-.4 1-1 1h-10V13Zm-1 0H.5v10c0 .6.4 1 1 1h10V13Z" fill="url(#b)"/>
    </g>
    <defs>
        <linearGradient id="b" x1="4" y1="1" x2="19" y2="24" gradientUnits="userSpaceOnUse">
            <stop stop-color="#80F9FF"/>
            <stop offset="1" stop-color="#0B9CFF"/>
        </linearGradient>
        <clipPath id="a">
            <path fill="#fff" transform="translate(.5)" d="M0 0h24v24H0z"/>
        </clipPath>
    </defs>
</svg>