<svg width="25" height="24" fill="none"
    xmlns="http://www.w3.org/2000/svg">
    <g clip-path="url(#a)">
        <g clip-path="url(#b)">
            <path d="M.5 5c0-.6.4-1 1-1h21c.6 0 1 .4 1 1v13.5c0 2.5-2 4.5-4.5 4.5H5c-2.5 0-4.5-2-4.5-4.5V5Z" fill="url(#c)"/>
            <mask id="e" style="mask-type:alpha" maskUnits="userSpaceOnUse" x="0" y="4" width="24" height="19">
                <path d="M.5 5c0-.6.4-1 1-1h21c.6 0 1 .4 1 1v13.5c0 2.5-2 4.5-4.5 4.5H5c-2.5 0-4.5-2-4.5-4.5V5Z" fill="url(#d)"/>
            </mask>
            <g filter="url(#f)" mask="url(#e)">
                <path d="M6.5 5V1h11v4" stroke="url(#g)" stroke-width="2" stroke-linecap="round"/>
            </g>
            <rect x="6.5" y="8" width="11" height="11" rx="1" fill="#fff" fill-opacity=".5"/>
            <g filter="url(#h)">
                <path d="M11.5 9h-4v4h4V9Z" fill="#F25022"/>
                <path d="M16.5 9h-4v4h4V9Z" fill="#7FBA00"/>
                <path d="M16.5 14h-4v4h4v-4Z" fill="#FFB900"/>
                <path d="M11.5 14h-4v4h4v-4Z" fill="#00A4EF"/>
            </g>
            <path d="M6.5 5V2c0-.6.4-1 1-1h9c.6 0 1 .4 1 1v3" stroke="url(#i)" stroke-width="2" stroke-linecap="round"/>
            <path fill="url(#j)" d="M7.5 0h9v2h-9z"/>
            <mask id="l" style="mask-type:alpha" maskUnits="userSpaceOnUse" x="7" y="0" width="10" height="2">
                <path fill="url(#k)" d="M7.5 0h9v2h-9z"/>
            </mask>
            <g filter="url(#m)" mask="url(#l)"/>
        </g>
    </g>
    <defs>
        <linearGradient id="c" x1="5.7" y1="1.2" x2="10.1" y2="22.3" gradientUnits="userSpaceOnUse">
            <stop offset=".3" stop-color="#fff"/>
            <stop offset="1" stop-color="#DFDFDF"/>
        </linearGradient>
        <linearGradient id="d" x1="12" y1="4" x2="16" y2="23.7" gradientUnits="userSpaceOnUse">
            <stop stop-color="#0078D4"/>
            <stop offset="1" stop-color="#114A8B"/>
        </linearGradient>
        <linearGradient id="g" x1="12" y1="1" x2="12.4" y2="5.3" gradientUnits="userSpaceOnUse">
            <stop stop-color="#28AFEA"/>
            <stop offset="1" stop-color="#0078D4"/>
        </linearGradient>
        <linearGradient id="i" x1="12" y1="1" x2="12.2" y2="4.2" gradientUnits="userSpaceOnUse">
            <stop stop-color="#30DAFF"/>
            <stop offset="1" stop-color="#0094D4"/>
        </linearGradient>
        <linearGradient id="j" x1="11.5" y1="0" x2="11.5" y2="2" gradientUnits="userSpaceOnUse">
            <stop stop-color="#22BCFF"/>
            <stop offset="1" stop-color="#0088F0"/>
        </linearGradient>
        <linearGradient id="k" x1="11.5" y1="0" x2="11.5" y2="2" gradientUnits="userSpaceOnUse">
            <stop stop-color="#28AFEA"/>
            <stop offset="1" stop-color="#3CCBF4"/>
        </linearGradient>
        <filter id="f" x="4" y="-1" width="16" height="9" filterUnits="userSpaceOnUse" color-interpolation-filters="sRGB">
            <feFlood flood-opacity="0" result="BackgroundImageFix"/>
            <feColorMatrix in="SourceAlpha" values="0 0 0 0 0 0 0 0 0 0 0 0 0 0 0 0 0 0 127 0" result="hardAlpha"/>
            <feOffset dy=".3"/>
            <feGaussianBlur stdDeviation=".3"/>
            <feColorMatrix values="0 0 0 0 0 0 0 0 0 0 0 0 0 0 0 0 0 0 0.1 0"/>
            <feBlend in2="BackgroundImageFix" result="effect1_dropShadow_2803_29696"/>
            <feColorMatrix in="SourceAlpha" values="0 0 0 0 0 0 0 0 0 0 0 0 0 0 0 0 0 0 127 0" result="hardAlpha"/>
            <feOffset dy=".5"/>
            <feGaussianBlur stdDeviation=".8"/>
            <feColorMatrix values="0 0 0 0 0 0 0 0 0 0 0 0 0 0 0 0 0 0 0.2 0"/>
            <feBlend in2="effect1_dropShadow_2803_29696" result="effect2_dropShadow_2803_29696"/>
            <feBlend in="SourceGraphic" in2="effect2_dropShadow_2803_29696" result="shape"/>
        </filter>
        <filter id="h" x="6.5" y="8.3" width="11" height="11" filterUnits="userSpaceOnUse" color-interpolation-filters="sRGB">
            <feFlood flood-opacity="0" result="BackgroundImageFix"/>
            <feColorMatrix in="SourceAlpha" values="0 0 0 0 0 0 0 0 0 0 0 0 0 0 0 0 0 0 127 0" result="hardAlpha"/>
            <feOffset dy=".3"/>
            <feGaussianBlur stdDeviation=".5"/>
            <feColorMatrix values="0 0 0 0 0 0 0 0 0 0 0 0 0 0 0 0 0 0 0.15 0"/>
            <feBlend in2="BackgroundImageFix" result="effect1_dropShadow_2803_29696"/>
            <feBlend in="SourceGraphic" in2="effect1_dropShadow_2803_29696" result="shape"/>
        </filter>
        <filter id="m" x="4" y="-2.5" width="16" height="8" filterUnits="userSpaceOnUse" color-interpolation-filters="sRGB">
            <feFlood flood-opacity="0" result="BackgroundImageFix"/>
            <feColorMatrix in="SourceAlpha" values="0 0 0 0 0 0 0 0 0 0 0 0 0 0 0 0 0 0 127 0" result="hardAlpha"/>
            <feOffset dy="-1"/>
            <feGaussianBlur stdDeviation=".3"/>
            <feColorMatrix values="0 0 0 0 0 0 0 0 0 0 0 0 0 0 0 0 0 0 0.1 0"/>
            <feBlend in2="BackgroundImageFix" result="effect1_dropShadow_2803_29696"/>
            <feColorMatrix in="SourceAlpha" values="0 0 0 0 0 0 0 0 0 0 0 0 0 0 0 0 0 0 127 0" result="hardAlpha"/>
            <feOffset dy="-1"/>
            <feGaussianBlur stdDeviation=".8"/>
            <feColorMatrix values="0 0 0 0 0 0 0 0 0 0 0 0 0 0 0 0 0 0 0.2 0"/>
            <feBlend in2="effect1_dropShadow_2803_29696" result="effect2_dropShadow_2803_29696"/>
            <feBlend in="SourceGraphic" in2="effect2_dropShadow_2803_29696" result="shape"/>
        </filter>
        <clipPath id="a">
            <path fill="#fff" transform="translate(.5)" d="M0 0h24v24H0z"/>
        </clipPath>
        <clipPath id="b">
            <path fill="#fff" transform="translate(.5)" d="M0 0h24v24H0z"/>
        </clipPath>
    </defs>
</svg>