<svg width="25" height="24" fill="none"
    xmlns="http://www.w3.org/2000/svg">
    <g filter="url(#a)">
        <path d="M1.5 7.1h16c.6 0 1 .4 1 1v14c0 .6-.4 1-1 1h-16c-.6 0-1-.4-1-1v-14c0-.6.4-1 1-1Z" fill="url(#b)"/>
    </g>
    <g filter="url(#c)">
        <path d="M7.5 1.1h16c.6 0 1 .4 1 1v14c0 .6-.4 1-1 1h-16c-.6 0-1-.4-1-1v-14c0-.6.4-1 1-1Z" fill="url(#d)"/>
    </g>
    <mask id="f" style="mask-type:alpha" maskUnits="userSpaceOnUse" x="6" y="1" width="19" height="17">
        <path d="M7.5 1.1h16c.6 0 1 .4 1 1v14c0 .6-.4 1-1 1h-16c-.6 0-1-.4-1-1v-14c0-.6.4-1 1-1Z" fill="url(#e)"/>
    </mask>
    <g mask="url(#f)">
        <path opacity=".3" d="M1.5 7h16c.6 0 1 .4 1 1v14c0 .6-.4 1-1 1h-16c-.6 0-1-.4-1-1V8c0-.6.4-1 1-1Z" fill="url(#g)"/>
    </g>
    <defs>
        <linearGradient id="b" x1="14.3" y1="23.4" x2="5.3" y2="7.8" gradientUnits="userSpaceOnUse">
            <stop stop-color="#575757"/>
            <stop offset="1" stop-color="#727272"/>
        </linearGradient>
        <linearGradient id="d" x1="20" y1="16" x2="12.5" y2="1.4" gradientUnits="userSpaceOnUse">
            <stop stop-color="#D5D8DD"/>
            <stop offset="1" stop-color="#fff"/>
        </linearGradient>
        <linearGradient id="e" x1="20.2" y1="17.2" x2="10.6" y2=".5" gradientUnits="userSpaceOnUse">
            <stop stop-color="#E6E6E6"/>
            <stop offset="1" stop-color="#fff"/>
        </linearGradient>
        <linearGradient id="g" x1="14.2" y1="23" x2="5.2" y2="6.4" gradientUnits="userSpaceOnUse">
            <stop stop-color="#201F1F"/>
            <stop offset="1" stop-color="#484644"/>
        </linearGradient>
        <filter id="a" x=".5" y="6.6" width="18" height="16.5" filterUnits="userSpaceOnUse" color-interpolation-filters="sRGB">
            <feFlood flood-opacity="0" result="BackgroundImageFix"/>
            <feBlend in="SourceGraphic" in2="BackgroundImageFix" result="shape"/>
            <feColorMatrix in="SourceAlpha" values="0 0 0 0 0 0 0 0 0 0 0 0 0 0 0 0 0 0 127 0" result="hardAlpha"/>
            <feOffset dy="-.5"/>
            <feGaussianBlur stdDeviation=".4"/>
            <feComposite in2="hardAlpha" operator="arithmetic" k2="-1" k3="1"/>
            <feColorMatrix values="0 0 0 0 0 0 0 0 0 0 0 0 0 0 0 0 0 0 0.25 0"/>
            <feBlend in2="shape" result="effect1_innerShadow_2803_29624"/>
        </filter>
        <filter id="c" x="6.5" y=".6" width="18" height="16.5" filterUnits="userSpaceOnUse" color-interpolation-filters="sRGB">
            <feFlood flood-opacity="0" result="BackgroundImageFix"/>
            <feBlend in="SourceGraphic" in2="BackgroundImageFix" result="shape"/>
            <feColorMatrix in="SourceAlpha" values="0 0 0 0 0 0 0 0 0 0 0 0 0 0 0 0 0 0 127 0" result="hardAlpha"/>
            <feOffset dy="-.5"/>
            <feGaussianBlur stdDeviation=".4"/>
            <feComposite in2="hardAlpha" operator="arithmetic" k2="-1" k3="1"/>
            <feColorMatrix values="0 0 0 0 0 0 0 0 0 0 0 0 0 0 0 0 0 0 0.19 0"/>
            <feBlend in2="shape" result="effect1_innerShadow_2803_29624"/>
        </filter>
    </defs>
</svg>