<svg width="24" height="25" fill="none"
    xmlns="http://www.w3.org/2000/svg">
    <g filter="url(#a)">
        <path d="M1 7.5h16c.6 0 1 .4 1 1v14c0 .6-.4 1-1 1H1c-.6 0-1-.4-1-1v-14c0-.6.4-1 1-1Z" fill="url(#b)"/>
    </g>
    <g filter="url(#c)">
        <path d="M7 1.5h16c.6 0 1 .4 1 1v14c0 .6-.4 1-1 1H7c-.6 0-1-.4-1-1v-14c0-.6.4-1 1-1Z" fill="url(#d)"/>
    </g>
    <mask id="f" maskUnits="userSpaceOnUse" x="6" y="1" width="18" height="17" style="mask-type:alpha">
        <path d="M7 1.5h16c.6 0 1 .4 1 1v14c0 .6-.4 1-1 1H7c-.6 0-1-.4-1-1v-14c0-.6.4-1 1-1Z" fill="url(#e)"/>
    </mask>
    <g mask="url(#f)">
        <path opacity=".3" d="M1 7.4h16c.6 0 1 .4 1 1v14c0 .6-.4 1-1 1H1c-.6 0-1-.4-1-1v-14c0-.6.4-1 1-1Z" fill="url(#g)"/>
    </g>
    <defs>
        <linearGradient id="b" x1="13.7" y1="23.5" x2="4.7" y2="6.9" gradientUnits="userSpaceOnUse">
            <stop stop-color="#201F1F"/>
            <stop offset="1" stop-color="#484644"/>
        </linearGradient>
        <linearGradient id="d" x1="19.5" y1="16.4" x2="12" y2="1.8" gradientUnits="userSpaceOnUse">
            <stop stop-color="#D5D8DD"/>
            <stop offset="1" stop-color="#fff"/>
        </linearGradient>
        <linearGradient id="e" x1="19.7" y1="17.5" x2="10.1" y2=".9" gradientUnits="userSpaceOnUse">
            <stop stop-color="#E6E6E6"/>
            <stop offset="1" stop-color="#fff"/>
        </linearGradient>
        <linearGradient id="g" x1="13.7" y1="23.4" x2="4.7" y2="6.8" gradientUnits="userSpaceOnUse">
            <stop stop-color="#201F1F"/>
            <stop offset="1" stop-color="#484644"/>
        </linearGradient>
        <filter id="a" x="0" y="7" width="18" height="16.5" filterUnits="userSpaceOnUse" color-interpolation-filters="sRGB">
            <feFlood flood-opacity="0" result="BackgroundImageFix"/>
            <feBlend in="SourceGraphic" in2="BackgroundImageFix" result="shape"/>
            <feColorMatrix in="SourceAlpha" values="0 0 0 0 0 0 0 0 0 0 0 0 0 0 0 0 0 0 127 0" result="hardAlpha"/>
            <feOffset dy="-.5"/>
            <feGaussianBlur stdDeviation=".4"/>
            <feComposite in2="hardAlpha" operator="arithmetic" k2="-1" k3="1"/>
            <feColorMatrix values="0 0 0 0 0 0 0 0 0 0 0 0 0 0 0 0 0 0 0.25 0"/>
            <feBlend in2="shape" result="effect1_innerShadow_1_111187"/>
        </filter>
        <filter id="c" x="6" y="1" width="18" height="16.5" filterUnits="userSpaceOnUse" color-interpolation-filters="sRGB">
            <feFlood flood-opacity="0" result="BackgroundImageFix"/>
            <feBlend in="SourceGraphic" in2="BackgroundImageFix" result="shape"/>
            <feColorMatrix in="SourceAlpha" values="0 0 0 0 0 0 0 0 0 0 0 0 0 0 0 0 0 0 127 0" result="hardAlpha"/>
            <feOffset dy="-.5"/>
            <feGaussianBlur stdDeviation=".4"/>
            <feComposite in2="hardAlpha" operator="arithmetic" k2="-1" k3="1"/>
            <feColorMatrix values="0 0 0 0 0 0 0 0 0 0 0 0 0 0 0 0 0 0 0.19 0"/>
            <feBlend in2="shape" result="effect1_innerShadow_1_111187"/>
        </filter>
    </defs>
</svg>