<svg width="24" height="24" viewBox="0 0 24 24" fill="none"
    xmlns="http://www.w3.org/2000/svg">
    <g clip-path="url(#clip0_2806_34676)">
        <g filter="url(#filter0_dd_2806_34676)">
            <path d="M9.5201 7.19906C9.11945 7.19906 8.74383 7.27345 8.39326 7.42224C8.04268 7.57103 7.73468 7.77189 7.46924 8.02482C7.20381 8.27776 6.99597 8.58029 6.84572 8.93242C6.69547 9.28455 6.61785 9.65899 6.61284 10.0558C6.61284 10.4525 6.68796 10.822 6.83821 11.1642C6.98845 11.5064 7.19379 11.809 7.45422 12.0718C7.71464 12.3347 8.02265 12.5405 8.37823 12.6893C8.73381 12.8381 9.10693 12.9124 9.49757 12.9124H18.1517C18.6826 12.9124 19.1809 12.8133 19.6467 12.6149C20.1125 12.4165 20.5206 12.1462 20.8712 11.804C21.2218 11.4618 21.4972 11.0576 21.6976 10.5914C21.8979 10.1252 21.998 9.62923 21.998 9.10352C21.998 8.57781 21.8979 8.08434 21.6976 7.6231C21.4972 7.16186 21.2243 6.75766 20.8787 6.41049C20.5331 6.06333 20.125 5.79055 19.6542 5.59217C19.1834 5.39379 18.6826 5.2946 18.1517 5.2946C17.9214 5.2946 17.6885 5.31692 17.4531 5.36155C17.2528 5.05406 17.0224 4.77881 16.762 4.53579C16.5015 4.29277 16.2136 4.08447 15.8981 3.91089C15.5825 3.7373 15.252 3.60836 14.9064 3.52404C14.5609 3.43973 14.2003 3.3951 13.8247 3.39014C13.2687 3.39014 12.7454 3.48685 12.2546 3.68027C11.7638 3.87369 11.3256 4.13903 10.9399 4.47628C10.5543 4.81352 10.2413 5.21773 10.0009 5.68888C9.7605 6.16004 9.60023 6.66343 9.5201 7.19906Z" fill="url(#paint0_linear_2806_34676)" fill-opacity="0.65"/>
        </g>
        <mask id="mask0_2806_34676" style="mask-type:alpha" maskUnits="userSpaceOnUse" x="6" y="3" width="16" height="10">
            <path d="M9.5201 7.19906C9.11945 7.19906 8.74383 7.27345 8.39326 7.42224C8.04268 7.57103 7.73468 7.77189 7.46924 8.02482C7.20381 8.27776 6.99597 8.58029 6.84572 8.93242C6.69548 9.28455 6.61785 9.65899 6.61284 10.0558C6.61284 10.4525 6.68796 10.822 6.83821 11.1642C6.98846 11.5064 7.19379 11.809 7.45422 12.0718C7.71465 12.3347 8.02265 12.5405 8.37823 12.6893C8.73382 12.8381 9.10693 12.9124 9.49757 12.9124H18.1517C18.6826 12.9124 19.1809 12.8133 19.6467 12.6149C20.1125 12.4165 20.5206 12.1462 20.8712 11.804C21.2218 11.4618 21.4972 11.0576 21.6976 10.5914C21.8979 10.1252 21.998 9.62923 21.998 9.10352C21.998 8.57781 21.8979 8.08434 21.6976 7.6231C21.4972 7.16186 21.2243 6.75766 20.8787 6.41049C20.5331 6.06333 20.125 5.79055 19.6542 5.59217C19.1834 5.39379 18.6826 5.2946 18.1517 5.2946C17.9214 5.2946 17.6885 5.31692 17.4531 5.36155C17.2528 5.05406 17.0224 4.77881 16.762 4.53579C16.5015 4.29277 16.2136 4.08447 15.8981 3.91089C15.5825 3.7373 15.252 3.60836 14.9064 3.52404C14.5609 3.43973 14.2003 3.3951 13.8247 3.39014C13.2687 3.39014 12.7454 3.48685 12.2546 3.68027C11.7638 3.87369 11.3256 4.13903 10.9399 4.47628C10.5543 4.81352 10.2413 5.21773 10.0009 5.68888C9.7605 6.16004 9.60023 6.66343 9.5201 7.19906Z" fill="url(#paint1_linear_2806_34676)" fill-opacity="0.65"/>
        </mask>
        <g mask="url(#mask0_2806_34676)">
            <path d="M5.74803 8.79993C5.22853 8.79993 4.7415 8.89518 4.28694 9.08566C3.83238 9.27614 3.43302 9.53329 3.08885 9.85711C2.74468 10.1809 2.47519 10.5682 2.28038 11.0191C2.08557 11.4699 1.98492 11.9492 1.97842 12.4572C1.97842 12.9651 2.07583 13.4382 2.27064 13.8763C2.46545 14.3144 2.7317 14.7017 3.06937 15.0382C3.40704 15.3748 3.80641 15.6383 4.26746 15.8287C4.72851 16.0192 5.2123 16.1145 5.71881 16.1145H16.9399C17.6283 16.1145 18.2744 15.9875 18.8783 15.7335C19.4822 15.4795 20.0115 15.1335 20.466 14.6954C20.9206 14.2573 21.2778 13.7398 21.5375 13.1429C21.7972 12.5461 21.9271 11.9111 21.9271 11.2381C21.9271 10.5651 21.7972 9.9333 21.5375 9.34281C21.2778 8.75231 20.9238 8.23484 20.4758 7.79038C20.0277 7.34592 19.4985 6.9967 18.8881 6.74272C18.2777 6.48875 17.6283 6.36176 16.9399 6.36176C16.6412 6.36176 16.3393 6.39033 16.0341 6.44748C15.7743 6.05381 15.4756 5.70142 15.1379 5.3903C14.8003 5.07918 14.4269 4.8125 14.0178 4.59027C13.6087 4.36804 13.1801 4.20296 12.732 4.09502C12.284 3.98708 11.8164 3.92993 11.3294 3.92358C10.6086 3.92358 9.92998 4.0474 9.2936 4.29502C8.65721 4.54265 8.08901 4.88235 7.589 5.31411C7.08898 5.74587 6.68312 6.26334 6.37142 6.86654C6.05973 7.46973 5.85193 8.1142 5.74803 8.79993Z" fill="black" fill-opacity="0.1"/>
        </g>
        <g filter="url(#filter1_dd_2806_34676)">
            <path d="M4.77893 10.1768C4.2581 10.1768 3.76982 10.2784 3.31409 10.4815C2.85836 10.6846 2.45797 10.9588 2.11291 11.3042C1.76786 11.6495 1.49768 12.0625 1.30237 12.5432C1.10705 13.0239 1.00614 13.5351 0.999633 14.0768C0.999633 14.6185 1.09729 15.1229 1.2926 15.5901C1.48791 16.0573 1.75484 16.4703 2.09338 16.8292C2.43192 17.188 2.83232 17.469 3.29455 17.6721C3.75679 17.8752 4.24182 17.9768 4.74963 17.9768H15.9996C16.6897 17.9768 17.3375 17.8414 17.943 17.5706C18.5485 17.2997 19.0791 16.9307 19.5348 16.4635C19.9905 15.9963 20.3486 15.4445 20.609 14.8081C20.8694 14.1716 20.9996 13.4945 20.9996 12.7768C20.9996 12.0591 20.8694 11.3854 20.609 10.7557C20.3486 10.126 19.9938 9.5742 19.5446 9.10024C19.0953 8.62629 18.5647 8.25389 17.9528 7.98306C17.3408 7.71222 16.6897 7.57681 15.9996 7.57681C15.7002 7.57681 15.3974 7.60728 15.0914 7.66821C14.831 7.24842 14.5315 6.87264 14.193 6.54087C13.8545 6.2091 13.4801 5.92472 13.0699 5.68774C12.6598 5.45076 12.2301 5.27472 11.7809 5.15962C11.3317 5.04451 10.8629 4.98358 10.3746 4.97681C9.65198 4.97681 8.97164 5.10884 8.33362 5.3729C7.6956 5.63696 7.12594 5.9992 6.62463 6.45962C6.12333 6.92004 5.71643 7.47186 5.40393 8.11509C5.09143 8.75832 4.8831 9.44556 4.77893 10.1768Z" fill="url(#paint2_linear_2806_34676)"/>
        </g>
        <path d="M20.9308 12.3266C20.9308 14.6735 18.5497 16.1096 16.1922 16.1096C13.8346 16.1096 11.9235 14.207 11.9235 11.8601C11.9235 9.51316 13.8346 7.6106 16.1922 7.6106C18.5497 7.6106 20.9308 9.97965 20.9308 12.3266Z" fill="url(#paint3_linear_2806_34676)"/>
        <path d="M14.7848 9.09776C13.8103 9.09776 12.9417 9.45693 12.2638 10.0274C12.2638 10.0274 12.2426 10.0274 12.2426 10.0485C12.6451 9.20339 13.3442 8.50617 14.1916 8.10474C13.4713 7.28075 12.4333 6.77368 11.2469 6.77368C9.10728 6.77368 7.39131 8.50617 7.39131 10.5978C7.39131 10.9359 7.43368 11.2739 7.51842 11.5909C7.22183 11.4852 6.90406 11.4218 6.5651 11.4218C5.08217 11.4218 3.87463 12.6261 3.87463 14.0839C3.87463 15.5418 5.08217 16.7461 6.5651 16.7461C6.58629 16.7461 6.60747 16.7461 6.60747 16.7461H14.7001C14.7213 16.7461 14.7424 16.7461 14.7636 16.7461C16.9033 16.7461 18.6193 15.0136 18.6193 12.9219C18.6193 10.8302 16.9033 9.09776 14.7848 9.09776Z" fill="url(#paint4_linear_2806_34676)"/>
        <path d="M14.8313 14.15C14.8313 14.15 11.7337 18.4345 9.26868 21.2184C9.26196 21.226 7.86951 21.2184 7.86951 21.2184L9.78929 15.5796H7.3219L8.81069 11.2908L12.6632 11.2908L11.7203 14.15H14.8313Z" fill="#FFB800"/>
        <path d="M16.2956 14.151L9.96394 21.2184H9.203L11.9222 15.581H9.46884L10.9492 11.2908L14.1398 11.2908L13.2022 14.151H16.2956Z" fill="black" fill-opacity="0.1"/>
        <g filter="url(#filter2_d_2806_34676)">
            <path d="M15.5825 14.151L9.25084 21.2184L11.2091 15.581H8.75574L10.2361 11.2908L13.4267 11.2908L12.4891 14.151H15.5825Z" fill="url(#paint5_linear_2806_34676)"/>
        </g>
    </g>
    <defs>
        <filter id="filter0_dd_2806_34676" x="4.61279" y="1.39014" width="19.3853" height="13.5222" filterUnits="userSpaceOnUse" color-interpolation-filters="sRGB">
            <feFlood flood-opacity="0" result="BackgroundImageFix"/>
            <feColorMatrix in="SourceAlpha" type="matrix" values="0 0 0 0 0 0 0 0 0 0 0 0 0 0 0 0 0 0 127 0" result="hardAlpha"/>
            <feOffset/>
            <feGaussianBlur stdDeviation="1"/>
            <feColorMatrix type="matrix" values="0 0 0 0 0 0 0 0 0 0 0 0 0 0 0 0 0 0 0.2 0"/>
            <feBlend mode="normal" in2="BackgroundImageFix" result="effect1_dropShadow_2806_34676"/>
            <feColorMatrix in="SourceAlpha" type="matrix" values="0 0 0 0 0 0 0 0 0 0 0 0 0 0 0 0 0 0 127 0" result="hardAlpha"/>
            <feOffset dx="1" dy="1"/>
            <feGaussianBlur stdDeviation="0.5"/>
            <feColorMatrix type="matrix" values="0 0 0 0 0 0 0 0 0 0 0 0 0 0 0 0 0 0 0.15 0"/>
            <feBlend mode="normal" in2="effect1_dropShadow_2806_34676" result="effect2_dropShadow_2806_34676"/>
            <feBlend mode="normal" in="SourceGraphic" in2="effect2_dropShadow_2806_34676" result="shape"/>
        </filter>
        <filter id="filter1_dd_2806_34676" x="-1.00037" y="2.97681" width="24" height="17" filterUnits="userSpaceOnUse" color-interpolation-filters="sRGB">
            <feFlood flood-opacity="0" result="BackgroundImageFix"/>
            <feColorMatrix in="SourceAlpha" type="matrix" values="0 0 0 0 0 0 0 0 0 0 0 0 0 0 0 0 0 0 127 0" result="hardAlpha"/>
            <feOffset/>
            <feGaussianBlur stdDeviation="1"/>
            <feColorMatrix type="matrix" values="0 0 0 0 0 0 0 0 0 0 0 0 0 0 0 0 0 0 0.2 0"/>
            <feBlend mode="normal" in2="BackgroundImageFix" result="effect1_dropShadow_2806_34676"/>
            <feColorMatrix in="SourceAlpha" type="matrix" values="0 0 0 0 0 0 0 0 0 0 0 0 0 0 0 0 0 0 127 0" result="hardAlpha"/>
            <feOffset dx="1" dy="1"/>
            <feGaussianBlur stdDeviation="0.5"/>
            <feColorMatrix type="matrix" values="0 0 0 0 0 0 0 0 0 0 0 0 0 0 0 0 0 0 0.15 0"/>
            <feBlend mode="normal" in2="effect1_dropShadow_2806_34676" result="effect2_dropShadow_2806_34676"/>
            <feBlend mode="normal" in="SourceGraphic" in2="effect2_dropShadow_2806_34676" result="shape"/>
        </filter>
        <filter id="filter2_d_2806_34676" x="6.75574" y="10.2908" width="10.8268" height="13.9275" filterUnits="userSpaceOnUse" color-interpolation-filters="sRGB">
            <feFlood flood-opacity="0" result="BackgroundImageFix"/>
            <feColorMatrix in="SourceAlpha" type="matrix" values="0 0 0 0 0 0 0 0 0 0 0 0 0 0 0 0 0 0 127 0" result="hardAlpha"/>
            <feOffset dy="1"/>
            <feGaussianBlur stdDeviation="1"/>
            <feColorMatrix type="matrix" values="0 0 0 0 0 0 0 0 0 0 0 0 0 0 0 0 0 0 0.25 0"/>
            <feBlend mode="normal" in2="BackgroundImageFix" result="effect1_dropShadow_2806_34676"/>
            <feBlend mode="normal" in="SourceGraphic" in2="effect1_dropShadow_2806_34676" result="shape"/>
        </filter>
        <linearGradient id="paint0_linear_2806_34676" x1="6.61284" y1="3.39014" x2="21.9133" y2="13.0468" gradientUnits="userSpaceOnUse">
            <stop offset="0.21875" stop-color="white"/>
            <stop offset="0.645833" stop-color="#F7FCFF"/>
        </linearGradient>
        <linearGradient id="paint1_linear_2806_34676" x1="6.61284" y1="3.39014" x2="21.9133" y2="13.0468" gradientUnits="userSpaceOnUse">
            <stop offset="0.21875" stop-color="white"/>
            <stop offset="0.645833" stop-color="#F7FCFF"/>
        </linearGradient>
        <linearGradient id="paint2_linear_2806_34676" x1="3.7743" y1="7.06322" x2="20.9069" y2="17.3722" gradientUnits="userSpaceOnUse">
            <stop stop-color="white"/>
            <stop offset="0.551728" stop-color="#D9E7EF"/>
            <stop offset="0.96875" stop-color="#ADDDF9"/>
        </linearGradient>
        <linearGradient id="paint3_linear_2806_34676" x1="14.7286" y1="7.73201" x2="15.8169" y2="12.5907" gradientUnits="userSpaceOnUse">
            <stop offset="0.265243" stop-color="#F4F8FA"/>
            <stop offset="0.899425" stop-color="#F4F8FA" stop-opacity="0"/>
        </linearGradient>
        <linearGradient id="paint4_linear_2806_34676" x1="5.57423" y1="10.2251" x2="16.4955" y2="17.3836" gradientUnits="userSpaceOnUse">
            <stop offset="0.0589154" stop-color="#BAD7E7"/>
            <stop offset="0.464316" stop-color="#DEEBF2"/>
            <stop offset="0.6583" stop-color="#DEEBF2"/>
            <stop offset="1" stop-color="#BDE1F6"/>
        </linearGradient>
        <linearGradient id="paint5_linear_2806_34676" x1="8.99581" y1="19.3507" x2="12.0109" y2="8.71084" gradientUnits="userSpaceOnUse">
            <stop offset="0.353019" stop-color="#FFE501"/>
            <stop offset="0.866137" stop-color="#FF9900"/>
        </linearGradient>
        <clipPath id="clip0_2806_34676">
            <rect width="24" height="24" fill="white"/>
        </clipPath>
    </defs>
</svg>
