<svg width="24" height="24" viewBox="0 0 24 24" fill="none"
    xmlns="http://www.w3.org/2000/svg">
    <g filter="url(#filter0_dd_2806_34676)">
        <ellipse cx="8.20034" cy="10.6" rx="5.6" ry="5.6" fill="url(#paint0_linear_2806_34676)"/>
    </g>
    <mask id="mask0_2806_34676" style="mask-type:alpha" maskUnits="userSpaceOnUse" x="2" y="5" width="12" height="12">
        <ellipse cx="8.20034" cy="10.6" rx="5.6" ry="5.6" fill="url(#paint1_linear_2806_34676)"/>
    </mask>
    <g mask="url(#mask0_2806_34676)">
        <path d="M5.81186 11.3668C5.29236 11.3668 4.80533 11.4621 4.35077 11.6526C3.89621 11.843 3.49685 12.1002 3.15268 12.424C2.80852 12.7478 2.53903 13.1351 2.34421 13.5859C2.1494 14.0368 2.04875 14.5161 2.04226 15.0241C2.04226 15.532 2.13966 16.0051 2.33447 16.4432C2.52929 16.8813 2.79553 17.2686 3.1332 17.6051C3.47087 17.9416 3.87024 18.2051 4.33129 18.3956C4.79235 18.5861 5.27613 18.6814 5.78264 18.6814H17.0038C17.6921 18.6814 18.3382 18.5544 18.9422 18.3004C19.5461 18.0464 20.0753 17.7004 20.5299 17.2623C20.9844 16.8242 21.3416 16.3067 21.6013 15.7098C21.8611 15.113 21.991 14.478 21.991 13.805C21.991 13.132 21.8611 12.5002 21.6013 11.9097C21.3416 11.3192 20.9877 10.8017 20.5396 10.3573C20.0916 9.91281 19.5623 9.5636 18.9519 9.30962C18.3415 9.05564 17.6921 8.92865 17.0038 8.92865C16.7051 8.92865 16.4031 8.95723 16.0979 9.01437C15.8382 8.62071 15.5395 8.26831 15.2018 7.95719C14.8641 7.64607 14.4907 7.3794 14.0816 7.15717C13.6725 6.93494 13.2439 6.76985 12.7959 6.66191C12.3478 6.55397 11.8802 6.49683 11.3932 6.49048C10.6724 6.49048 9.99382 6.61429 9.35743 6.86192C8.72105 7.10955 8.15285 7.44924 7.65283 7.881C7.15281 8.31276 6.74696 8.83024 6.43526 9.43343C6.12356 10.0366 5.91576 10.6811 5.81186 11.3668Z" fill="#1D1300" fill-opacity="0.1"/>
    </g>
    <g filter="url(#filter1_dd_2806_34676)">
        <path d="M6.37964 12.2C5.85881 12.2 5.37053 12.3016 4.9148 12.5047C4.45907 12.7078 4.05868 12.982 3.71362 13.3273C3.36857 13.6727 3.09839 14.0857 2.90308 14.5664C2.70776 15.0471 2.60685 15.5583 2.60034 16.1C2.60034 16.6417 2.698 17.1461 2.89331 17.6133C3.08862 18.0805 3.35555 18.4935 3.69409 18.8523C4.03263 19.2112 4.43303 19.4922 4.89526 19.6953C5.3575 19.8984 5.84253 20 6.35034 20H17.6003C18.2904 20 18.9382 19.8646 19.5437 19.5937C20.1492 19.3229 20.6798 18.9539 21.1355 18.4867C21.5912 18.0195 21.9493 17.4677 22.2097 16.8312C22.4701 16.1948 22.6003 15.5177 22.6003 14.8C22.6003 14.0823 22.4701 13.4086 22.2097 12.7789C21.9493 12.1492 21.5945 11.5974 21.1453 11.1234C20.696 10.6495 20.1654 10.2771 19.5535 10.0062C18.9415 9.73542 18.2904 9.6 17.6003 9.6C17.3009 9.6 16.9981 9.63047 16.6921 9.69141C16.4317 9.27161 16.1322 8.89583 15.7937 8.56406C15.4552 8.23229 15.0808 7.94792 14.6707 7.71094C14.2605 7.47396 13.8308 7.29792 13.3816 7.18281C12.9324 7.06771 12.4636 7.00677 11.9753 7C11.2527 7 10.5723 7.13203 9.93433 7.39609C9.29631 7.66016 8.72664 8.0224 8.22534 8.48281C7.72404 8.94323 7.31714 9.49505 7.00464 10.1383C6.69214 10.7815 6.48381 11.4687 6.37964 12.2Z" fill="url(#paint2_linear_2806_34676)"/>
    </g>
    <path d="M22.5319 14.3498C22.5319 16.6967 20.1508 18.1328 17.7933 18.1328C15.4357 18.1328 13.5245 16.2302 13.5245 13.8833C13.5245 11.5364 15.4357 9.63379 17.7933 9.63379C20.1508 9.63379 22.5319 12.0028 22.5319 14.3498Z" fill="url(#paint3_linear_2806_34676)"/>
    <path d="M16.3861 11.1209C15.4116 11.1209 14.543 11.4801 13.8651 12.0506C13.8651 12.0506 13.8439 12.0506 13.8439 12.0717C14.2465 11.2266 14.9456 10.5294 15.7929 10.1279C15.0727 9.30395 14.0346 8.79688 12.8483 8.79688C10.7086 8.79688 8.99263 10.5294 8.99263 12.621C8.99263 12.9591 9.035 13.2971 9.11974 13.614C8.82315 13.5084 8.50538 13.445 8.16642 13.445C6.68349 13.445 5.47595 14.6493 5.47595 16.1071C5.47595 17.565 6.68349 18.7693 8.16642 18.7693C8.18761 18.7693 8.20879 18.7693 8.20879 18.7693H16.3014C16.3226 18.7693 16.3438 18.7693 16.3649 18.7693C18.5046 18.7693 20.2206 17.0368 20.2206 14.9451C20.2206 12.8534 18.5046 11.1209 16.3861 11.1209Z" fill="url(#paint4_linear_2806_34676)"/>
    <defs>
        <filter id="filter0_dd_2806_34676" x="1.40034" y="3.8" width="13.6" height="14.2" filterUnits="userSpaceOnUse" color-interpolation-filters="sRGB">
            <feFlood flood-opacity="0" result="BackgroundImageFix"/>
            <feColorMatrix in="SourceAlpha" type="matrix" values="0 0 0 0 0 0 0 0 0 0 0 0 0 0 0 0 0 0 127 0" result="hardAlpha"/>
            <feOffset/>
            <feGaussianBlur stdDeviation="0.6"/>
            <feColorMatrix type="matrix" values="0 0 0 0 0.996078 0 0 0 0 0.878431 0 0 0 0 0.411765 0 0 0 1 0"/>
            <feBlend mode="normal" in2="BackgroundImageFix" result="effect1_dropShadow_2806_34676"/>
            <feColorMatrix in="SourceAlpha" type="matrix" values="0 0 0 0 0 0 0 0 0 0 0 0 0 0 0 0 0 0 127 0" result="hardAlpha"/>
            <feOffset dy="0.6"/>
            <feGaussianBlur stdDeviation="0.6"/>
            <feColorMatrix type="matrix" values="0 0 0 0 0 0 0 0 0 0 0 0 0 0 0 0 0 0 0.25 0"/>
            <feBlend mode="normal" in2="effect1_dropShadow_2806_34676" result="effect2_dropShadow_2806_34676"/>
            <feBlend mode="normal" in="SourceGraphic" in2="effect2_dropShadow_2806_34676" result="shape"/>
        </filter>
        <filter id="filter1_dd_2806_34676" x="1.40034" y="5.8" width="22.4" height="15.4" filterUnits="userSpaceOnUse" color-interpolation-filters="sRGB">
            <feFlood flood-opacity="0" result="BackgroundImageFix"/>
            <feColorMatrix in="SourceAlpha" type="matrix" values="0 0 0 0 0 0 0 0 0 0 0 0 0 0 0 0 0 0 127 0" result="hardAlpha"/>
            <feOffset/>
            <feGaussianBlur stdDeviation="0.6"/>
            <feColorMatrix type="matrix" values="0 0 0 0 0 0 0 0 0 0 0 0 0 0 0 0 0 0 0.2 0"/>
            <feBlend mode="normal" in2="BackgroundImageFix" result="effect1_dropShadow_2806_34676"/>
            <feColorMatrix in="SourceAlpha" type="matrix" values="0 0 0 0 0 0 0 0 0 0 0 0 0 0 0 0 0 0 127 0" result="hardAlpha"/>
            <feOffset dx="0.3" dy="0.6"/>
            <feGaussianBlur stdDeviation="0.3"/>
            <feColorMatrix type="matrix" values="0 0 0 0 0 0 0 0 0 0 0 0 0 0 0 0 0 0 0.15 0"/>
            <feBlend mode="normal" in2="effect1_dropShadow_2806_34676" result="effect2_dropShadow_2806_34676"/>
            <feBlend mode="normal" in="SourceGraphic" in2="effect2_dropShadow_2806_34676" result="shape"/>
        </filter>
        <linearGradient id="paint0_linear_2806_34676" x1="4.17534" y1="6.575" x2="13.7997" y2="15.2542" gradientUnits="userSpaceOnUse">
            <stop offset="0.0653907" stop-color="#FFE975"/>
            <stop offset="0.364583" stop-color="#FFB729"/>
            <stop offset="0.595906" stop-color="#FF9900"/>
        </linearGradient>
        <linearGradient id="paint1_linear_2806_34676" x1="4.17534" y1="6.575" x2="13.7997" y2="15.2542" gradientUnits="userSpaceOnUse">
            <stop offset="0.0653907" stop-color="#FFE975"/>
            <stop offset="0.364583" stop-color="#FFB729"/>
            <stop offset="0.595906" stop-color="#FF9900"/>
        </linearGradient>
        <linearGradient id="paint2_linear_2806_34676" x1="5.37501" y1="9.08641" x2="22.5076" y2="19.3954" gradientUnits="userSpaceOnUse">
            <stop stop-color="white"/>
            <stop offset="0.551728" stop-color="#D9E7EF"/>
            <stop offset="0.96875" stop-color="#ADDDF9"/>
        </linearGradient>
        <linearGradient id="paint3_linear_2806_34676" x1="16.3297" y1="9.7552" x2="17.418" y2="14.6139" gradientUnits="userSpaceOnUse">
            <stop offset="0.265243" stop-color="#F4F8FA"/>
            <stop offset="0.899425" stop-color="#F4F8FA" stop-opacity="0"/>
        </linearGradient>
        <linearGradient id="paint4_linear_2806_34676" x1="7.17555" y1="12.2483" x2="18.0968" y2="19.4068" gradientUnits="userSpaceOnUse">
            <stop offset="0.0589154" stop-color="#BAD7E7"/>
            <stop offset="0.464316" stop-color="#DEEBF2"/>
            <stop offset="0.6583" stop-color="#DEEBF2"/>
            <stop offset="1" stop-color="#BDE1F6"/>
        </linearGradient>
    </defs>
</svg>
