<svg width="24" height="24" fill="none"
    xmlns="http://www.w3.org/2000/svg">
    <path d="M17 8.1c0 .6 0 1-.2 1.5a3.7 3.7 0 0 1-3.5 2.3H1.8v-1.2h11.5l1-.2.8-.6.5-.8.2-1c0-.3 0-.7-.2-1l-.5-.8-.8-.5c-.3-.2-.7-.2-1-.2-.4 0-.7 0-1 .2l-.8.5-.6.8-.2 1H9.5a3.7 3.7 0 0 1 1-2.7 4 4 0 0 1 1.3-.8c.4-.2 1-.3 1.5-.3A3.7 3.7 0 0 1 16 5.4l.8 1.2.3 1.5Zm2.6 2.6c.4 0 .7 0 1 .2l.8.5c.3.2.5.5.6.8l.2 1c0 .4 0 .7-.2 1-.1.3-.3.6-.6.8-.2.3-.5.4-.8.6l-1 .2H18c.3.3.4.8.4 1.2l-.2 1c-.2.3-.3.6-.6.8-.2.3-.5.5-.8.6l-1 .2c-.3 0-.7 0-1-.2l-.8-.6-.5-.8c-.2-.3-.2-.6-.2-1h1.2a1.2 1.2 0 0 0 .4 1l.4.2.5.1a1.2 1.2 0 0 0 1-.4l.2-.4V17a1.2 1.2 0 0 0-.3-.9l-.4-.2a1 1 0 0 0-.5-.1h-14v-1.3h17.8a1.2 1.2 0 0 0 1-.4l.2-.4.1-.5a1.2 1.2 0 0 0-.4-.9l-.4-.3a1 1 0 0 0-.5 0 1.2 1.2 0 0 0-.9.3l-.2.4-.1.5H17c0-.3 0-.7.2-1l.5-.8.8-.5c.4-.2.7-.2 1-.2ZM19 9.4c-.2 0-.3 0-.4-.2a.6.6 0 0 1-.2-.4c0-.2 0-.4.2-.5l.4-.2c.2 0 .3 0 .5.2l.1.5-.1.4-.5.2Zm-11.5 0c-.1 0-.3 0-.4-.2a.6.6 0 0 1-.2-.4c0-.2 0-.4.2-.5l.4-.2c.2 0 .4 0 .5.2l.2.5c0 .1 0 .3-.2.4l-.5.2Zm3.9 7.6.4.2.2.5c0 .1 0 .3-.2.4l-.4.2c-.2 0-.4 0-.5-.2a.6.6 0 0 1-.2-.4c0-.2 0-.3.2-.5l.5-.2Z" fill="#000" fill-opacity=".2"/>
</svg>