<svg width="24" height="24" viewBox="0 0 24 24" fill="none"
    xmlns="http://www.w3.org/2000/svg">
    <g clip-path="url(#clip0_2806_34676)">
        <g filter="url(#filter0_d_2806_34676)">
            <path d="M5.01184 8.07451C4.46497 8.07451 3.95227 8.17607 3.47376 8.3792C2.99524 8.58232 2.57483 8.85654 2.21253 9.20186C1.85022 9.54717 1.56653 9.96019 1.36145 10.4409C1.15637 10.9216 1.05042 11.4328 1.04358 11.9745C1.04358 12.5162 1.14612 13.0206 1.3512 13.4878C1.55628 13.955 1.83655 14.368 2.19202 14.7269C2.54749 15.0857 2.9679 15.3667 3.45325 15.5698C3.9386 15.7729 4.44788 15.8745 4.98108 15.8745H16.7936C17.5182 15.8745 18.1984 15.7391 18.8341 15.4683C19.4698 15.1974 20.027 14.8284 20.5055 14.3612C20.984 13.894 21.36 13.3422 21.6334 12.7058C21.9069 12.0693 22.0436 11.3922 22.0436 10.6745C22.0436 9.9568 21.9069 9.28311 21.6334 8.65342C21.36 8.02373 20.9874 7.47191 20.5157 6.99795C20.0441 6.52399 19.4869 6.1516 18.8444 5.88076C18.2018 5.60993 17.5182 5.47451 16.7936 5.47451C16.4791 5.47451 16.1613 5.50498 15.84 5.56592C15.5665 5.14613 15.2521 4.77035 14.8966 4.43857C14.5411 4.1068 14.1481 3.82243 13.7174 3.58545C13.2867 3.34847 12.8356 3.17243 12.3639 3.05732C11.8922 2.94222 11.4 2.88128 10.8873 2.87451C10.1285 2.87451 9.41419 3.00654 8.74426 3.27061C8.07434 3.53467 7.4762 3.89691 6.94983 4.35732C6.42346 4.81774 5.99622 5.36956 5.66809 6.01279C5.33997 6.65602 5.12122 7.34326 5.01184 8.07451Z" fill="url(#paint0_linear_2806_34676)"/>
            <path d="M5.01957 8.07567L5.06407 8.08232H5.01184C4.46596 8.08232 3.95431 8.1837 3.47681 8.38639C2.99912 8.58916 2.57951 8.86287 2.21791 9.20751C1.85641 9.55206 1.57332 9.96419 1.36864 10.444C1.16397 10.9237 1.05822 11.4339 1.05139 11.9746C1.0514 12.5152 1.15375 13.0185 1.35835 13.4847C1.56305 13.951 1.84278 14.3632 2.19757 14.7214C2.55228 15.0795 2.97182 15.3599 3.45626 15.5626C3.94065 15.7653 4.4489 15.8667 4.98108 15.8667H16.7936C17.5172 15.8667 18.1963 15.7315 18.831 15.4611C19.4659 15.1906 20.0222 14.8221 20.5 14.3556C20.9778 13.8892 21.3532 13.3382 21.6262 12.7027C21.8992 12.0672 22.0358 11.3912 22.0358 10.6745C22.0358 9.95782 21.8992 9.28519 21.6263 8.65653C21.3532 8.02771 20.9812 7.47671 20.5102 7.00346C20.0393 6.53025 19.483 6.15842 18.8413 5.88796C18.1997 5.61755 17.5172 5.48232 16.7936 5.48232C16.4796 5.48232 16.1623 5.51274 15.8414 5.57359L15.8438 5.58611L15.8334 5.57018C15.5603 5.1509 15.2463 4.77561 14.8913 4.44429C14.5363 4.11296 14.1437 3.82896 13.7136 3.59229C13.2836 3.35564 12.833 3.17985 12.362 3.06491C11.891 2.94996 11.3994 2.88909 10.8873 2.88232C10.1294 2.88233 9.41607 3.0142 8.74713 3.27787C8.07802 3.54162 7.48065 3.9034 6.95497 4.3632C6.42938 4.82295 6.00274 5.37397 5.67505 6.01634C5.34732 6.6588 5.12882 7.34523 5.01957 8.07567Z" stroke="#C6E5FF" stroke-width="0.015625"/>
        </g>
        <path d="M21.9719 10.2243C21.9719 12.5712 19.4717 14.0073 16.9963 14.0073C14.5209 14.0073 12.5142 12.1047 12.5142 9.75781C12.5142 7.41087 14.5209 5.5083 16.9963 5.5083C19.4717 5.5083 21.9719 7.87736 21.9719 10.2243Z" fill="url(#paint1_linear_2806_34676)"/>
        <path d="M15.5192 6.99546C14.4959 6.99546 13.5839 7.35464 12.8721 7.92509C12.8721 7.92509 12.8499 7.92509 12.8499 7.94622C13.2725 7.1011 14.0066 6.40388 14.8963 6.00245C14.14 5.17846 13.0501 4.67139 11.8044 4.67139C9.55775 4.67139 7.75599 6.40388 7.75599 8.49554C7.75599 8.83359 7.80048 9.17164 7.88945 9.48856C7.57804 9.38292 7.24437 9.31953 6.88847 9.31953C5.33139 9.31953 4.06348 10.5238 4.06348 11.9817C4.06348 13.4395 5.33139 14.6438 6.88847 14.6438C6.91071 14.6438 6.93296 14.6438 6.93296 14.6438H15.4302C15.4524 14.6438 15.4747 14.6438 15.4969 14.6438C17.7436 14.6438 19.5453 12.9113 19.5453 10.8196C19.5453 8.72795 17.7436 6.99546 15.5192 6.99546Z" fill="url(#paint2_linear_2806_34676)"/>
        <g filter="url(#filter1_d_2806_34676)">
            <path d="M7.2596 16.6055L5.48145 20.0138C5.38812 20.2351 5.33313 20.4768 5.33313 20.7306C5.33313 20.9844 5.38812 21.2261 5.48145 21.4475C5.57977 21.6761 5.72059 21.8837 5.89724 22.0565C6.07472 22.2292 6.28803 22.3654 6.52301 22.4611C6.75049 22.5527 6.99879 22.6054 7.2596 22.6054C7.52124 22.6054 7.76955 22.5527 7.99619 22.4611C8.232 22.3654 8.44448 22.2292 8.62196 22.0565C8.79944 21.8837 8.94026 21.6761 9.03775 21.4475C9.13191 21.2261 9.18607 20.9844 9.18607 20.7306C9.18607 20.4768 9.13191 20.2351 9.03775 20.0138L7.2596 16.6055Z" fill="#A4D4FF"/>
            <path d="M7.58626 17.2317L6.00448 20.2767C5.92063 20.4756 5.87122 20.6928 5.87122 20.9208C5.87122 21.1489 5.92063 21.366 6.00448 21.5649C6.09283 21.7704 6.21935 21.9569 6.37808 22.1121C6.53755 22.2673 6.72921 22.3897 6.94034 22.4757C7.14473 22.558 7.36784 22.6054 7.60217 22.6054C7.83726 22.6054 8.06037 22.558 8.26401 22.4757C8.47589 22.3897 8.6668 22.2673 8.82627 22.1121C8.98574 21.9569 9.11227 21.7704 9.19987 21.5649C9.28447 21.366 9.33313 21.1489 9.33313 20.9208C9.33313 20.6928 9.28447 20.4756 9.19987 20.2767L7.58626 17.2317Z" fill="url(#paint3_linear_2806_34676)"/>
            <path d="M11.2596 11.3333L9.48145 14.7415C9.38812 14.9629 9.33313 15.2046 9.33313 15.4584C9.33313 15.7122 9.38812 15.9539 9.48145 16.1752C9.57977 16.4039 9.72059 16.6115 9.89724 16.7842C10.0747 16.957 10.288 17.0932 10.523 17.1889C10.7505 17.2805 10.9988 17.3332 11.2596 17.3332C11.5212 17.3332 11.7695 17.2805 11.9962 17.1889C12.232 17.0932 12.4445 16.957 12.622 16.7842C12.7994 16.6115 12.9403 16.4039 13.0378 16.1752C13.1319 15.9539 13.1861 15.7122 13.1861 15.4584C13.1861 15.2046 13.1319 14.9629 13.0378 14.7415L11.2596 11.3333Z" fill="#A4D4FF"/>
            <path d="M11.5863 11.9595L10.0045 15.0045C9.92063 15.2034 9.87122 15.4206 9.87122 15.6486C9.87122 15.8767 9.92063 16.0938 10.0045 16.2927C10.0928 16.4982 10.2194 16.6847 10.3781 16.8399C10.5375 16.9951 10.7292 17.1175 10.9403 17.2035C11.1447 17.2858 11.3678 17.3332 11.6022 17.3332C11.8373 17.3332 12.0604 17.2858 12.264 17.2035C12.4759 17.1175 12.6668 16.9951 12.8263 16.8399C12.9857 16.6847 13.1123 16.4982 13.1999 16.2927C13.2845 16.0938 13.3331 15.8767 13.3331 15.6486C13.3331 15.4206 13.2845 15.2034 13.1999 15.0045L11.5863 11.9595Z" fill="url(#paint4_linear_2806_34676)"/>
            <path d="M17.9262 14L16.1481 17.4083C16.0548 17.6297 15.9998 17.8713 15.9998 18.1251C15.9998 18.379 16.0548 18.6206 16.1481 18.842C16.2464 19.0707 16.3872 19.2783 16.5639 19.451C16.7413 19.6237 16.9547 19.7599 17.1896 19.8556C17.4171 19.9473 17.6654 20 17.9262 20C18.1879 20 18.4362 19.9473 18.6628 19.8556C18.8986 19.7599 19.1111 19.6237 19.2886 19.451C19.4661 19.2783 19.6069 19.0707 19.7044 18.842C19.7985 18.6206 19.8527 18.379 19.8527 18.1251C19.8527 17.8713 19.7985 17.6297 19.7044 17.4083L17.9262 14Z" fill="#A4D4FF"/>
            <path d="M18.253 14.6262L16.6712 17.6713C16.5874 17.8702 16.538 18.0873 16.538 18.3154C16.538 18.5434 16.5874 18.7605 16.6712 18.9595C16.7596 19.1649 16.8861 19.3515 17.0448 19.5067C17.2043 19.6618 17.396 19.7843 17.6071 19.8702C17.8115 19.9526 18.0346 19.9999 18.2689 19.9999C18.504 19.9999 18.7271 19.9526 18.9308 19.8702C19.1426 19.7843 19.3336 19.6618 19.493 19.5067C19.6525 19.3515 19.779 19.1649 19.8666 18.9595C19.9512 18.7605 19.9999 18.5434 19.9999 18.3154C19.9999 18.0873 19.9512 17.8702 19.8666 17.6713L18.253 14.6262Z" fill="url(#paint5_linear_2806_34676)"/>
        </g>
    </g>
    <defs>
        <filter id="filter0_d_2806_34676" x="-0.956421" y="2.87451" width="25" height="17" filterUnits="userSpaceOnUse" color-interpolation-filters="sRGB">
            <feFlood flood-opacity="0" result="BackgroundImageFix"/>
            <feColorMatrix in="SourceAlpha" type="matrix" values="0 0 0 0 0 0 0 0 0 0 0 0 0 0 0 0 0 0 127 0" result="hardAlpha"/>
            <feOffset dy="2"/>
            <feGaussianBlur stdDeviation="1"/>
            <feColorMatrix type="matrix" values="0 0 0 0 0 0 0 0 0 0 0 0 0 0 0 0 0 0 0.25 0"/>
            <feBlend mode="normal" in2="BackgroundImageFix" result="effect1_dropShadow_2806_34676"/>
            <feBlend mode="normal" in="SourceGraphic" in2="effect1_dropShadow_2806_34676" result="shape"/>
        </filter>
        <filter id="filter1_d_2806_34676" x="4.33313" y="11.3333" width="16.6667" height="13.2722" filterUnits="userSpaceOnUse" color-interpolation-filters="sRGB">
            <feFlood flood-opacity="0" result="BackgroundImageFix"/>
            <feColorMatrix in="SourceAlpha" type="matrix" values="0 0 0 0 0 0 0 0 0 0 0 0 0 0 0 0 0 0 127 0" result="hardAlpha"/>
            <feOffset dy="1"/>
            <feGaussianBlur stdDeviation="0.5"/>
            <feColorMatrix type="matrix" values="0 0 0 0 0 0 0 0 0 0 0 0 0 0 0 0 0 0 0.2 0"/>
            <feBlend mode="normal" in2="BackgroundImageFix" result="effect1_dropShadow_2806_34676"/>
            <feBlend mode="normal" in="SourceGraphic" in2="effect1_dropShadow_2806_34676" result="shape"/>
        </filter>
        <linearGradient id="paint0_linear_2806_34676" x1="2.08706" y1="3.91799" x2="21.46" y2="16.0412" gradientUnits="userSpaceOnUse">
            <stop stop-color="white"/>
            <stop offset="0.387304" stop-color="#C6EBFF"/>
            <stop offset="0.96875" stop-color="#96C6E0"/>
        </linearGradient>
        <linearGradient id="paint1_linear_2806_34676" x1="15.4596" y1="5.62972" x2="16.5007" y2="10.5101" gradientUnits="userSpaceOnUse">
            <stop offset="0.265243" stop-color="#F4F8FA"/>
            <stop offset="0.899425" stop-color="#F4F8FA" stop-opacity="0"/>
        </linearGradient>
        <linearGradient id="paint2_linear_2806_34676" x1="5.49967" y1="6.99045" x2="13.9379" y2="15.8999" gradientUnits="userSpaceOnUse">
            <stop offset="0.0589154" stop-color="#98DAFE"/>
            <stop offset="0.751885" stop-color="#E7F6FF"/>
            <stop offset="1" stop-color="#BCE6FF"/>
        </linearGradient>
        <linearGradient id="paint3_linear_2806_34676" x1="5.48951" y1="21.0079" x2="9.51134" y2="19.1103" gradientUnits="userSpaceOnUse">
            <stop offset="0.395833" stop-color="#6BB5F8"/>
            <stop offset="1" stop-color="#2696EF"/>
        </linearGradient>
        <linearGradient id="paint4_linear_2806_34676" x1="9.48951" y1="15.7357" x2="13.5113" y2="13.8381" gradientUnits="userSpaceOnUse">
            <stop offset="0.395833" stop-color="#6BB5F8"/>
            <stop offset="1" stop-color="#2696EF"/>
        </linearGradient>
        <linearGradient id="paint5_linear_2806_34676" x1="16.1563" y1="18.4025" x2="20.1781" y2="16.5048" gradientUnits="userSpaceOnUse">
            <stop offset="0.395833" stop-color="#6BB5F8"/>
            <stop offset="1" stop-color="#2696EF"/>
        </linearGradient>
        <clipPath id="clip0_2806_34676">
            <rect width="24" height="24" fill="white"/>
        </clipPath>
    </defs>
</svg>
